<?xml version="1.0" encoding="utf-8"?>
<!-- Generator: Adobe Illustrator 25.2.1, SVG Export Plug-In . SVG Version: 6.00 Build 0)  -->
<svg version="1.1" id="レイヤー_1" xmlns="http://www.w3.org/2000/svg" xmlns:xlink="http://www.w3.org/1999/xlink" x="0px"
	 y="0px" viewBox="0 0 60.3 65.1" style="enable-background:new 0 0 60.3 65.1;" xml:space="preserve">
<style type="text/css">
	.st0{fill:#FFFFFF;}
	.st1{fill:#021F59;}
</style>
<path class="st0" d="M5.2,39.6L0.8,40c0,0,0.2,8.2,3.7,10.7c1.1-0.1,2,0,2,0s3.5,7,5.7,7.2c-1,3.6-1.4,6.4-1.4,6.4s7.3-0.6,8.3-3.6
	c6.9,1,15.7,0.4,15.7,0.4l1.8,3.2c0,0,5-1.4,5-5.9c3.8-2.9,8.3-6.5,8.7-12c0.3-3.2,0-4.1,0-4.1s-3.9-11.6-13.5-14s-18.8,0-18.8,0
	s-2.6-3.1-7.1-4c-0.7,3.9,0.8,7.1,0.8,7.1S8.5,32.8,5.2,39.6z"/>
<path class="st0" d="M11.6,0.7c0,0-6,0.2-3.9,5.8c3,2,26.8,16.6,26.8,16.6l2.6,1.9l7.9,0.7l-4.3-7.6L11.6,0.7z"/>
<g id="service-5" transform="translate(-9.084 -0.5)">
	<path id="Trazado_236" class="st1" d="M17.1,8.3c0.1,0,0.1,0.1,0.2,0.1l0,0l25.6,15.6c0.1,0.1,0.3,0.1,0.4,0.1
		c0.3,0,0.5-0.1,0.7-0.4c0.2-0.4,0.1-0.9-0.3-1.1c0,0,0,0,0,0L24.6,11c-0.6-0.5-1-1.3-1-2.2c0-0.3,0-0.5,0.1-0.7l20.9,12.7
		c-0.1,0.4-0.2,0.8-0.3,1.3c0,0.4,0.3,0.8,0.7,0.9h0.1c0.4,0,0.8-0.3,0.8-0.7c0.1-1.5,1.4-2.7,2.9-2.7c0.3,0,0.7,0.1,1,0.2l3.4,5.6
		l-6.2-0.6c-0.4,0-0.8,0.3-0.9,0.7c0,0.4,0.3,0.8,0.7,0.9l0,0l7.8,0.8h0.1c0.3,0,0.5-0.1,0.7-0.4c0.2-0.3,0.2-0.6,0-0.9l-4.3-7.1
		c-0.1-0.2-0.2-0.3-0.3-0.4l-24.6-15c-0.1-0.1-0.2-0.1-0.2-0.2c0,0,0,0-0.1,0L22.1,1c0,0-0.1,0-0.1-0.1s-0.1,0-0.1-0.1
		c-0.5-0.2-1.1-0.4-1.7-0.4c-2.5,0-4.5,2-4.5,4.5C15.6,6.3,16.1,7.5,17.1,8.3z M25,4.7c-1.8,0.6-2.9,2.3-2.9,4.2c0,0.2,0,0.3,0,0.5
		c-0.5-0.5-0.7-1.2-0.7-1.9c0-1.6,1.3-2.9,2.8-2.9c0,0,0,0,0,0C24.5,4.6,24.8,4.6,25,4.7z M45.5,19.5L24.6,6.8c0.8-0.7,2-0.9,3-0.5
		l19.7,12C46.6,18.5,46,18.9,45.5,19.5z M20,2.1c0.4,0,0.8,0.1,1.1,0.2h0.1l1.5,0.9c-1.8,0.6-3,2.3-2.9,4.2c0,0.2,0,0.4,0,0.6
		l-1.6-1c0,0,0,0,0,0C17,6,16.9,4.2,18,3C18.5,2.4,19.3,2.1,20,2.1z"/>
	<path id="Trazado_237" class="st1" d="M69,42.3c-1.4-0.6-3-0.5-4.4,0.2c-0.1,0-0.1-0.1-0.2-0.1c-1.4-0.5-2.9-0.5-4.3,0
		c-0.4-2-2-6.7-8.3-11.6c-3.5-2.7-8.7-4-15.6-3.9c-3,0.1-5.9,0.3-8.8,0.9c-4.1-4-6.9-3.9-7.2-3.9c-0.4,0-0.7,0.3-0.7,0.6
		c-0.4,2.3-0.2,4.7,0.6,6.9c-1.4,1.1-5.1,4.3-6,8.1H9.9c-0.4,0-0.7,0.3-0.8,0.7c-0.2,4.2,1.3,8.4,4.3,11.4c0.2,0.2,0.4,0.2,0.6,0.2
		h1.4c0.2,0.6,0.4,1.1,0.7,1.6c1.2,2,2.7,3.7,4.4,5.2l-1.4,5.5c-0.1,0.2,0,0.4,0.1,0.6c0.1,0.2,0.3,0.3,0.6,0.4
		c0.2,0,5.8,0.7,8.9-3.5c5.1,0.9,10.4,1,15.5,0.5l0.7,2.7c0.1,0.3,0.4,0.6,0.8,0.6h0.1c1-0.2,1.9-0.6,2.8-1.2
		c1.7-1.3,2.9-3.2,3.1-5.4c1.3-0.8,2.4-1.7,3.5-2.7c2.6-2.5,4.4-5.8,5.1-9.3c0.1-0.4-0.2-0.9-0.6-1c-0.4-0.1-0.9,0.2-1,0.6
		c-0.6,3.2-2.2,6.2-4.6,8.5c-1,1-2.2,1.9-3.5,2.7c-0.2,0.1-0.4,0.4-0.4,0.6c-0.1,2.4-1.6,4.5-3.9,5.4l-0.6-2.6
		c-0.1-0.4-0.5-0.6-0.9-0.6c-5.4,0.6-10.9,0.5-16.2-0.5c-0.3-0.1-0.6,0.1-0.8,0.4c-1.8,2.8-5.1,3.2-6.7,3.3l1.3-5.1
		c0.1-0.3,0-0.6-0.2-0.8c-1.7-1.4-3.2-3-4.4-4.9c-0.3-0.6-0.6-1.2-0.7-1.8c0-0.4-0.4-0.8-0.8-0.7c0,0,0,0,0,0h-1.7
		c-2.3-2.5-3.6-5.8-3.6-9.1h4c0.4,0,0.7-0.3,0.8-0.7c0.6-4.2,5.9-8.1,6-8.1c0.3-0.2,0.4-0.6,0.2-1c-0.8-1.9-1-3.9-0.8-5.8
		c1.1,0.2,3.2,1.2,5.6,3.7c0.2,0.2,0.5,0.3,0.7,0.2c0.1,0,16-3.2,23.5,2.7c2.8,2.1,5.2,4.8,6.8,7.9c0.5,1.1,0.9,2.2,1,3.4
		c0,0.4,0.4,0.8,0.8,0.8c0.1,0,0.2,0,0.3-0.1c0.9-0.4,1.9-0.6,2.9-0.5c-0.4,0.3-0.7,0.6-1,1c-0.6,0.7-0.8,1.6-0.7,2.5
		c0.1,0.8,0.6,1.5,1.3,1.9c1.1,0.6,2.5,0.4,3.4-0.4c1.5-1.3,1-3.3,0.6-4.1c-0.1-0.3-0.2-0.5-0.4-0.8c0.7-0.3,1.5-0.3,2.3,0
		c0.4,0.2,0.9,0.1,1.1-0.3C69.5,42.9,69.4,42.5,69,42.3C69,42.3,69,42.3,69,42.3z M64.6,47.4c-0.4,0.4-1.1,0.5-1.6,0.2
		c-0.2-0.2-0.4-0.5-0.5-0.8c-0.1-0.4,0-0.9,0.3-1.2c0.5-0.5,1-0.9,1.6-1.3c0.2,0.2,0.3,0.4,0.4,0.6C65.3,46.1,65.2,47,64.6,47.4
		L64.6,47.4z"/>
	<path id="Trazado_238" class="st1" d="M20.1,38.5c0,0.9,0.7,1.6,1.6,1.6c0.9,0,1.6-0.7,1.6-1.6c0-0.9-0.7-1.6-1.6-1.6h0
		C20.8,36.9,20.1,37.6,20.1,38.5z"/>
</g>
</svg>
