<?xml version="1.0" encoding="utf-8"?>
<!-- Generator: Adobe Illustrator 25.2.1, SVG Export Plug-In . SVG Version: 6.00 Build 0)  -->
<svg version="1.1" id="レイヤー_1" xmlns="http://www.w3.org/2000/svg" xmlns:xlink="http://www.w3.org/1999/xlink" x="0px"
	 y="0px" viewBox="0 0 24 24" style="enable-background:new 0 0 24 24;" xml:space="preserve">
<style type="text/css">
	.st0{fill:#484848;}
</style>
<path class="st0" d="M2.6,7.8l4.9,13.5c-3.4-1.7-5.8-5.2-5.8-9.3C1.7,10.5,2,9.1,2.6,7.8z M18.9,11.5c0-1.3-0.5-2.2-0.8-2.8
	c-0.5-0.8-1-1.6-1-2.4c0-1,0.7-1.9,1.9-1.8c-1.8-1.7-4.3-2.7-7-2.7c-3.6,0-6.8,1.8-8.6,4.6c0.6,0,1.5,0,3.4-0.1
	c0.6,0,0.6,0.8,0.1,0.8c0,0-0.6,0.1-1.2,0.1l3.7,11.1l2.3-6.8l-1.6-4.4C9.5,7.1,9,7.1,9,7.1C8.5,7,8.5,6.2,9.1,6.2
	c2.2,0.2,3.3,0.2,5.5,0c0.6,0,0.6,0.8,0.1,0.8c0,0-0.6,0.1-1.2,0.1l3.7,11.1l1-3.4C18.6,13.4,18.9,12.4,18.9,11.5z M12.2,12.9
	l-3.1,9c0.9,0.3,1.9,0.4,2.9,0.4c1.2,0,2.3-0.2,3.4-0.6C15.3,21.6,12.2,13.1,12.2,12.9z M21,7.1c0.2,1.7-0.1,3.2-0.7,4.7l-3.1,9.1
	c3.1-1.8,5.1-5.1,5.1-8.9C22.3,10.2,21.8,8.5,21,7.1z M24,12c0,6.6-5.4,12-12,12S0,18.6,0,12S5.4,0,12,0S24,5.4,24,12z M23.5,12
	c0-6.3-5.1-11.4-11.4-11.4S0.6,5.7,0.6,12S5.7,23.5,12,23.5S23.5,18.3,23.5,12z"/>
</svg>
