<?xml version="1.0" encoding="utf-8"?>
<!-- Generator: Adobe Illustrator 25.2.1, SVG Export Plug-In . SVG Version: 6.00 Build 0)  -->
<svg version="1.1" id="レイヤー_1" xmlns="http://www.w3.org/2000/svg" xmlns:xlink="http://www.w3.org/1999/xlink" x="0px"
	 y="0px" viewBox="0 0 24 24" style="enable-background:new 0 0 24 24;" xml:space="preserve">
<style type="text/css">
	.st0{fill:#FFFFFF;}
</style>
<path class="st0" d="M19,2c0-1.1-0.9-2-2-2H7C5.9,0,5,0.9,5,2v20c0,1.1,0.9,2,2,2h10c1.1,0,2-0.9,2-2V2z M10.5,2h3
	C13.8,2,14,2.2,14,2.5S13.8,3,13.5,3h-3C10.2,3,10,2.8,10,2.5S10.2,2,10.5,2z M12,22c-0.6,0-1-0.4-1-1s0.4-1,1-1c0.6,0,1,0.4,1,1
	S12.6,22,12,22z M17,19H7V5h10V19z"/>
</svg>
