<?xml version="1.0" encoding="utf-8"?>
<!-- Generator: Adobe Illustrator 25.2.1, SVG Export Plug-In . SVG Version: 6.00 Build 0)  -->
<svg version="1.1" id="レイヤー_1" xmlns="http://www.w3.org/2000/svg" xmlns:xlink="http://www.w3.org/1999/xlink" x="0px"
	 y="0px" viewBox="0 0 555 616" style="enable-background:new 0 0 555 616;" xml:space="preserve">
<style type="text/css">
	.st0{fill:#F5E532;stroke:#000000;stroke-miterlimit:10;}
	.st1{fill:#FFFFFF;stroke:#000000;stroke-miterlimit:10;}
	.st2{fill:#F5E532;}
	.st3{fill:none;stroke:#4B4B4B;stroke-width:0.5679;stroke-miterlimit:10;}
	.st4{fill:none;stroke:#021F59;stroke-width:17.0079;stroke-linecap:round;stroke-linejoin:round;stroke-miterlimit:10;}
</style>
<path class="st0" d="M30,71.4h101.8l146-61.1l145.9,61.1h120.7L542,379.8c0,0-14.4,137.2-264.2,231.2C4,519,11.8,367,11.8,367
	L11.2,71.4H30z"/>
<g id="レイヤー_3">
</g>
<path class="st1" d="M161.2,257.4c0,0,5.8-11.9,35.3-14.6c5.5-62.7,26.1-95.2,81.3-97.4s76.3,48.2,76.2,97.4c35,1.3,55,24.6,55,49.9
	s-3.5,111.8-3.5,111.8S393.2,436,359.1,436S221,436,192,436s-45.4-32.8-45.4-49.9s0-107.1,0-107.1L161.2,257.4z"/>
<path class="st0" d="M234.6,242l86.4,1c0,0,11.6-67-43.2-65S234.6,242,234.6,242z"/>
<path class="st2" d="M261.9,387.7l6.3-38c0,0-28.9-44,9.7-45.4s14.1,44.5,9.7,45.4c3.5,6.9,5.3,34.1,5.3,34.1L261.9,387.7z"/>
<g id="レイヤー_2_1_">
	<g>
		<g>
			<path class="st3" d="M394.4,257.4c-9-9-21.6-14.6-35.3-14.6H354v-21.2c0-21-8.6-40.2-22.3-53.9c-13.7-13.8-32.9-22.3-53.9-22.3
				s-40.2,8.6-53.9,22.3c-13.8,13.7-22.3,32.9-22.3,53.9v21.2h-5.1c-13.7,0-26.3,5.6-35.3,14.6s-14.6,21.6-14.6,35.3v93.5
				c0,13.7,5.6,26.3,14.6,35.3c9,9,21.6,14.6,35.3,14.6h162.6c13.7,0,26.3-5.6,35.3-14.6s14.6-21.6,14.6-35.3v-93.5
				C409,278.9,403.4,266.3,394.4,257.4z M234.6,221.5c0-12,4.8-22.7,12.7-30.6c7.9-7.8,18.6-12.7,30.6-12.7s22.7,4.8,30.6,12.7
				c7.9,7.9,12.7,18.6,12.7,30.6v21.2h-86.4v-21.2H234.6z"/>
			<path class="st3" d="M277.8,304.3c-13.1,0-23.8,10.6-23.8,23.8c0,9.7,5.8,18,14.1,21.7l-5.3,34.1h14.9h14.9l-5.3-34.1
				c8.3-3.7,14.1-12,14.1-21.7C301.6,314.9,290.9,304.3,277.8,304.3z"/>
		</g>
		<g>
			<path class="st4" d="M394.4,257.4c-9-9-21.6-14.6-35.3-14.6H354v-21.2c0-21-8.6-40.2-22.3-53.9c-13.7-13.8-32.9-22.3-53.9-22.3
				s-40.2,8.6-53.9,22.3c-13.8,13.7-22.3,32.9-22.3,53.9v21.2h-5.1c-13.7,0-26.3,5.6-35.3,14.6s-14.6,21.6-14.6,35.3v93.5
				c0,13.7,5.6,26.3,14.6,35.3c9,9,21.6,14.6,35.3,14.6h162.6c13.7,0,26.3-5.6,35.3-14.6s14.6-21.6,14.6-35.3v-93.5
				C409,278.9,403.4,266.3,394.4,257.4z M234.6,221.5c0-12,4.8-22.7,12.7-30.6c7.9-7.8,18.6-12.7,30.6-12.7s22.7,4.8,30.6,12.7
				c7.9,7.9,12.7,18.6,12.7,30.6v21.2h-86.4v-21.2H234.6z"/>
			<path class="st4" d="M277.8,304.3c-13.1,0-23.8,10.6-23.8,23.8c0,9.7,5.8,18,14.1,21.7l-5.3,34.1h14.9h14.9l-5.3-34.1
				c8.3-3.7,14.1-12,14.1-21.7C301.6,314.9,290.9,304.3,277.8,304.3z"/>
		</g>
	</g>
</g>
<g id="レイヤー_4">
	<path class="st4" d="M423.7,71.4L277.8,10.3l-146,61.1H11.2c0,0,0,171.6,0,283.6c0,17.7,3.7,34.9,9.8,51.2
		c10.8,28.5,28.9,54.4,50.3,77.7c32.1,35,71.9,64.5,108.9,85.9c18.5,10.7,36.3,19.3,52.5,25.5c8.1,3.1,15.8,5.6,23.2,7.4
		c7.4,1.8,14.5,2.9,21.9,2.9c11.2-0.1,21.9-2.6,33.8-6.3c20.6-6.6,44.2-17.8,69.1-32.6c37.2-22.2,76.7-52.3,108.1-87.8
		c15.7-17.8,29.3-37,39.3-57.7c10-20.6,16.3-42.9,16.3-66.2c0-56,0-122.6,0-175.3c0-26.3,0-49.2,0-65.4s0-42.9,0-42.9L423.7,71.4
		L423.7,71.4z"/>
</g>
</svg>
