<?xml version="1.0" encoding="utf-8"?>
<!-- Generator: Adobe Illustrator 25.2.1, SVG Export Plug-In . SVG Version: 6.00 Build 0)  -->
<svg version="1.1" id="レイヤー_1" xmlns="http://www.w3.org/2000/svg" xmlns:xlink="http://www.w3.org/1999/xlink" x="0px"
	 y="0px" viewBox="0 0 628.6 492.2" style="enable-background:new 0 0 628.6 492.2;" xml:space="preserve">
<style type="text/css">
	.st0{fill:#F5E532;}
	.st1{fill:#021F59;}
	.st2{fill:none;stroke:#021F59;stroke-width:17.0079;stroke-linecap:round;stroke-linejoin:round;stroke-miterlimit:10;}
</style>
<rect x="96.5" y="71.2" class="st0" width="487.3" height="341.7"/>
<g id="レイヤー_2_1_">
</g>
<g id="レイヤー_3_2_">
	<path class="st1" d="M487.9,381.3c0.3-0.4,0.5-0.7,0.5-0.7s-1.3,1.3-3.8,3.9c-2.5,2.5-6.1,6.3-10.9,10.9c-2.5,2.1-5.3,4.4-8.3,6.9
		c-3,2.5-6.1,5.3-10,7.7c-3.7,2.5-7.6,5.3-11.8,8.1c-4.4,2.5-8.9,5.1-13.7,7.8c-4.8,2.6-10.1,4.7-15.4,7.2c-2.6,1.3-5.4,2.3-8.3,3.2
		c-2.8,1-5.7,2-8.6,3c-2.9,1.1-5.9,1.9-9,2.6c-3,0.8-6.1,1.5-9.2,2.3c-6.2,1.5-12.7,2.1-19.2,3.3c-6.5,0.6-13.2,1-19.8,1.3
		c-3.3-0.1-6.7-0.2-10.1-0.3c-3.3-0.1-6.7-0.1-10-0.6c-6.7-0.9-13.4-1.2-20-2.9l-9.8-2L281,440c-12.8-3.7-24.7-10.3-35.9-16.4
		c-5.6-3.1-10.7-6.9-16-10.1l-0.5-0.3l-0.1-0.1l-0.1-0.1c0.1,0.1,0.2,0.1,0.4,0.2l-0.6-0.5l-0.1-0.1l0.1,0.1l-0.4-0.3l-2.2-1.6
		l-4.4-3.2c-1.6-1.1-2.5-2-3.5-2.9l-3-2.7c-2-1.8-4-3.6-5.9-5.5c-0.2-0.2-0.5-0.5-0.7-0.7c-3.8-3.7-7.4-7.6-10.7-11.5
		c-0.3-0.4-0.6-0.7-0.9-1.1c-1.6-1.9-3.2-3.9-4.6-5.8c-6.4-8.4-11.7-16.8-15.9-24.9c-2.5-5-4.7-10.5-6.5-15.1l-0.1-0.4h38.3
		l22.2,0.1l-0.1-0.1h0.2L144,215.8L115.9,176l0,0.1l-0.1-0.2l-73,101.8L0,337h0.1L0,337.2h63.3c1.3,2.9,2.8,6.5,4.5,10.2
		c1.9,3.6,3.9,7.6,6.1,12c2.5,4.2,5,8.9,8,13.6c5.9,9.6,13.4,19.8,22.1,30.3c8.8,10.5,19.3,20.9,31.2,30.8
		c11.9,9.9,25.1,19.9,39.9,28l5.9,3.1c1.9,1,4.1,2.2,5.6,2.8c3.6,1.6,7.3,3.2,10.9,4.9c7.9,2.9,15.7,6.3,23.9,8.6
		c16.4,4.8,33.2,8.5,50.2,9.7c4.2,0.3,8.4,0.7,12.7,0.9l12.6-0.1c8.4,0.2,16.6-1,24.8-1.8c4.1-0.3,8.1-1.2,12-1.9
		c3.9-0.8,7.9-1.5,11.8-2.3c7.7-2,15.2-4.2,22.5-6.5c7.1-2.9,14.2-5.2,20.8-8.4c3.3-1.6,6.5-3.2,9.7-4.8c3.2-1.5,6.3-3.1,9.2-5
		c2.9-1.8,5.8-3.6,8.7-5.3c2.8-1.7,5.6-3.4,8.1-5.4c5.1-3.9,10.2-7.3,14.7-11.2c4.4-3.9,8.6-7.7,12.6-11.2c3.6-3.9,7.1-7.6,10.3-11
		c3.3-3.3,6-6.9,8.5-10.2c2.5-3.2,4.8-6.2,6.8-8.8c3.7-5.5,6.4-10,8.3-13c0.6-0.9,1-1.7,1.5-2.3l1.6-2.2L487.9,381.3z M228.5,413
		L228.5,413L228.5,413l-0.2-0.1C228.5,413.1,227.9,412.7,228.5,413z"/>
	<path class="st1" d="M628.4,152.4l0.1-0.2h-63.3c-1.3-2.9-2.8-5.5-4.5-9.2c-1.8-3.6-3.9-7.6-6.1-12c-2.5-4.2-5-8.9-8-13.6
		c-5.9-9.6-13.4-19.8-22.1-30.3c-8.8-10.5-19.3-20.9-31.2-30.8c-12-9.9-25.1-19-39.9-27.2l-5.9-3.1c-1.9-1-4.1-2.2-5.6-2.8
		c-3.6-1.6-7.3-3.2-10.9-4.9c-7.9-2.9-15.7-6.3-23.9-8.7c-16.4-4.8-33.2-8.5-50.2-9.7c-4.2-0.3-8.5-0.7-12.7-0.9l-12.6,0.1
		C323.3-1,315,0.2,306.9,1c-4.1,0.3-8.1,1.2-12,1.9c-3.9,0.8-7.9,1.5-11.8,2.3c-7.7,2-15.2,4.2-22.5,6.5c-7.1,2.9-14.2,5.2-20.8,8.4
		c-3.3,1.6-6.5,3.2-9.7,4.8c-3.2,1.5-6.3,3.1-9.2,5c-2.9,1.8-5.8,3.6-8.7,5.3c-2.8,1.7-5.6,3.4-8.1,5.4c-5.1,3.9-10.2,7.3-14.7,11.2
		c-4.4,3.9-8.6,7.7-12.6,11.2c-3.6,3.9,3.8,12.9,7.9,10c4.4-2.5,8.9-5.1,13.7-7.8c4.8-2.6,10.1-4.7,15.4-7.2
		c2.6-1.3,5.4-2.3,8.3-3.2c2.8-1,5.7-2,8.6-3c2.9-1.1,5.9-1.9,9-2.6c3-0.8,6.1-1.5,9.2-2.3c6.2-1.5,12.7-2.1,19.2-3.3
		c6.5-0.6,13.2-1,19.8-1.3c3.3,0.1,6.7,0.2,10.1,0.3c3.4,0.1,6.7,0.1,10.1,0.6c6.7,0.9,13.4,1.2,20,2.9l9.8,2l9.6,2.9
		c12.8,3.7,24.7,9.4,35.9,15.5c5.6,3,10.7,6.9,16,10.1l0.5,0.3l0.1,0.1l0.1,0.1c-0.1-0.1-0.2-0.1-0.4-0.2l0.6,0.5l0.1,0.1l-0.1-0.1
		l0.4,0.3l2.2,1.6l4.4,3.2c1.6,1.1,2.5,2,3.5,2.9l3,2.7c8.6,7.6,16.5,16.2,22.9,24.5c6.4,8.4,11.7,16.8,15.9,24.9
		c2.2,4.4,4.1,8.4,5.8,12.4c0.2,0.6,0.6,1.3,0.8,2h-38.5l-21.9-0.1l0.1,0.1h-0.2l114.2,162.3l73.4-103l42.3-59.1L628.4,152.4
		L628.4,152.4z M400.1,77.4L400.1,77.4L400.1,77.4l0.2,0.1C400,77.4,400.7,77.7,400.1,77.4z"/>
</g>
<g id="レイヤー_1_3_">
	<g id="レイヤー_1_2_">
		<g>
			<line class="st2" x1="579.8" y1="350.2" x2="100.6" y2="350.2"/>
			<rect x="311.2" y="417.6" class="st2" width="57.9" height="54.8"/>
			<path class="st1" d="M431,487.2H249.4c-7.2,0-13,1-13-10c0-11,5.8-19.9,13-19.9H431c7.2,0,13,8.9,13,19.9
				C443.9,488.2,438.1,487.2,431,487.2z"/>
		</g>
	</g>
	<g id="レイヤー_1_1_">
		<g>
			<line class="st2" x1="579.8" y1="350.2" x2="100.6" y2="350.2"/>
			<rect x="311.2" y="417.6" class="st2" width="57.9" height="54.8"/>
			<path class="st1" d="M431,487.2H249.4c-7.2,0-13,1-13-10c0-11,5.8-19.9,13-19.9H431c7.2,0,13,8.9,13,19.9
				C443.9,488.2,438.1,487.2,431,487.2z"/>
			<polyline class="st2" points="408,415.6 96.5,415.6 96.5,71.2 352.3,71.2 			"/>
			<polyline class="st2" points="583.8,241.6 583.8,415.6 492,415.6 			"/>
			<polyline class="st2" points="535.5,71.2 583.8,71.2 583.8,133.3 			"/>
		</g>
	</g>
</g>
</svg>
