<?xml version="1.0" encoding="utf-8"?>
<!-- Generator: Adobe Illustrator 25.2.1, SVG Export Plug-In . SVG Version: 6.00 Build 0)  -->
<svg version="1.1" id="レイヤー_1" xmlns="http://www.w3.org/2000/svg" xmlns:xlink="http://www.w3.org/1999/xlink" x="0px"
	 y="0px" viewBox="0 0 607 695" style="enable-background:new 0 0 607 695;" xml:space="preserve">
<style type="text/css">
	.st0{fill:#F5E532;}
	.st1{fill:#FFFFFF;}
	.st2{fill:none;stroke:#021F59;stroke-width:17.0079;stroke-linecap:round;stroke-linejoin:round;stroke-miterlimit:10;}
</style>
<path class="st0" d="M14.1,679.2l88.4-181.4H223c0,0-115.3-163.8-115.3-309.8S268,10,303.9,10s196.2,36.4,196.2,196.2
	S383.8,497.8,383.8,497.8H507l89.3,187.9L14.1,679.2z"/>
<circle class="st1" cx="304.6" cy="208" r="73.7"/>
<g id="レイヤー_1_1_">
</g>
<path class="st2" d="M303.9,10c-108.2,0-196.2,88-196.2,196.2c0,155.1,196.2,399.1,196.2,399.1s196.2-229,196.2-399.1
	C500.1,98,412.1,10,303.9,10z"/>
<path class="st2" d="M303.9,131.7c-41.1,0-74.4,33.3-74.4,74.4s33.3,74.4,74.4,74.4s74.4-33.3,74.4-74.4
	C378.3,165.1,345,131.7,303.9,131.7z"/>
<polyline class="st2" points="448.3,497.8 511.2,497.8 596.3,685.7 11.2,685.7 96.2,497.8 162.2,497.8 "/>
</svg>
