<?xml version="1.0" encoding="utf-8"?>
<!-- Generator: Adobe Illustrator 25.2.1, SVG Export Plug-In . SVG Version: 6.00 Build 0)  -->
<svg version="1.1" id="レイヤー_1" xmlns="http://www.w3.org/2000/svg" xmlns:xlink="http://www.w3.org/1999/xlink" x="0px"
	 y="0px" viewBox="0 0 65 64.5" style="enable-background:new 0 0 65 64.5;" xml:space="preserve">
<style type="text/css">
	.st0{fill:#FFFFFF;}
	.st1{fill:#021F59;}
</style>
<path class="st0" d="M64.1,63.1l0.1-62.5L47.3,16.5c0,0-16.3-0.3-21.7-0.3s-4.2,7.1,1.3,7.1s14.5,0,14.5,0l-4.7,4.7h-14
	c0,0-6.2-2.4-6.5-8.9c0,0,1.7-8.9,8.4-9.1s15.9-0.1,15.9-0.1l3.6-6.2l-23-0.2l-3,1.2l-2.9,1.7l1.7-3.1l-6.7-0.1L1.1,18.9l6.6,0.3
	l2.7-4v29.4l6.8-9.8L30,34.5L15,49.3l-5.5-0.1l-3,4.9h3.3l-8.3,9H64.1L64.1,63.1z"/>
<g id="service-4" transform="translate(-0.3 -1.341)">
	<path id="Trazado_230" class="st1" d="M64.8,1.4c-0.3-0.1-0.6,0-0.9,0.2L0.8,64.2c-0.2,0.2-0.3,0.6-0.2,0.9
		c0.1,0.3,0.4,0.5,0.7,0.5l21,0.1c0.1,0,0.2,0,0.2,0c0.1,0,0.2,0,0.2,0l5.9,0c0.1,0,0.1,0,0.2,0h0.2l35.2,0.1l0,0
		c0.2,0,0.4-0.1,0.5-0.2c0.1-0.1,0.2-0.3,0.2-0.5l0.3-62.9C65.3,1.8,65.1,1.5,64.8,1.4z M54.4,64.2v-5.5c0-0.4-0.4-0.8-0.8-0.8
		s-0.8,0.4-0.8,0.8v5.5l-5.3,0v-2.2c0-0.4-0.4-0.8-0.8-0.8c-0.4,0-0.8,0.4-0.8,0.8v2.2l-4.8,0v-2.2c0-0.4-0.4-0.8-0.8-0.8
		s-0.8,0.4-0.8,0.8v2.2l-4.3,0v-5.4c0-0.4-0.4-0.8-0.8-0.8c-0.4,0-0.8,0.4-0.8,0.8V64l-4.2,0v-2.1c0-0.4-0.4-0.8-0.8-0.8
		c-0.4,0-0.8,0.4-0.8,0.8V64l-4.7,0v-2.1c0-0.4-0.4-0.8-0.8-0.8c-0.4,0-0.8,0.4-0.8,0.8l0,0V64l-4.3,0v-5.3c0-0.4-0.4-0.8-0.8-0.8
		c-0.4,0-0.8,0.4-0.8,0.8V64L3.1,63.9L63.8,4l-0.1,12.5h-5.6c-0.4,0-0.8,0.4-0.8,0.8c0,0.4,0.4,0.8,0.8,0.8h5.6l0,5.3h-2.4
		c-0.4,0-0.8,0.4-0.8,0.8c0,0.4,0.4,0.8,0.8,0.8l0,0h2.4l0,4.8h-2.3c-0.4,0-0.8,0.4-0.8,0.8c0,0.4,0.4,0.8,0.8,0.8l0,0h2.3l0,4.3H58
		c-0.4,0-0.8,0.4-0.8,0.8s0.4,0.8,0.8,0.8h5.6l0,4.2h-2.3c-0.4,0-0.8,0.4-0.8,0.8c0,0.4,0.4,0.8,0.8,0.8h2.3l0,4.8h-2.3
		c-0.4,0-0.8,0.4-0.8,0.8s0.4,0.8,0.8,0.8h2.3l0,4.3H58c-0.4,0-0.8,0.3-0.8,0.8c0,0.4,0.3,0.8,0.8,0.8c0,0,0,0,0,0h5.4l0,9.3
		L54.4,64.2z"/>
	<path id="Trazado_231" class="st1" d="M43.6,33.2c-4.4,0-7.9,3.6-7.9,7.9s3.6,7.9,7.9,7.9c4.4,0,7.9-3.6,7.9-7.9
		C51.5,36.8,48,33.2,43.6,33.2z M43.6,47.5c-3.5,0-6.4-2.9-6.4-6.4s2.9-6.4,6.4-6.4s6.4,2.9,6.4,6.4C49.9,44.7,47.1,47.5,43.6,47.5z
		"/>
	<path id="Trazado_232" class="st1" d="M7.6,21.4c0.3,0,0.5-0.1,0.6-0.4l1.7-2.6v28.3c0,0.4,0.2,0.7,0.6,0.7c0.1,0,0.1,0,0.2,0
		c0.3,0,0.5-0.1,0.6-0.4l6.5-10.4h8.4c0.4,0,0.8-0.3,0.8-0.8c0-0.4-0.3-0.8-0.8-0.8c0,0,0,0,0,0h-8.8c-0.3,0-0.5,0.1-0.6,0.4
		L11.5,44V15.8c0-0.3-0.2-0.6-0.5-0.7c-0.3-0.1-0.7,0-0.9,0.3l-2.9,4.4H2.4l8.4-14.4H16l-2,3.1c-0.2,0.3-0.2,0.8,0.2,1.1
		c0.3,0.2,0.7,0.2,1-0.1c1-1,4.2-3.7,6.1-3.8c2.2-0.1,17.4,0,22,0l-2.8,4.9H25.4c-1.8,0.3-3.6,1-5.1,2c-2.6,1.6-4.1,4.4-4.2,7.4
		c-0.1,2.8,0.8,5.6,2.6,7.7c1.1,1.3,2.5,2.2,4.2,2.6c0.4,0,7.7,0,9.9,0c0.4,0,0.8-0.4,0.8-0.8s-0.4-0.8-0.8-0.8l0,0
		c-3.7,0-9.3,0-9.8,0c-1.3-0.3-2.4-1-3.2-2c-1.6-1.9-2.3-4.3-2.2-6.7c0-2.5,1.4-4.9,3.6-6.2c1.3-0.9,2.7-1.5,4.2-1.7h15.5
		c0.3,0,0.5-0.1,0.7-0.4l3.7-6.4c0.1-0.2,0.1-0.5,0-0.8c-0.1-0.2-0.4-0.4-0.7-0.4c-0.9,0-20.8-0.2-23.4,0c-1.2,0.2-2.3,0.6-3.3,1.3
		l0.2-0.4c0.2-0.2,0.2-0.5,0-0.8C18,4,17.7,3.9,17.5,3.9h-7.1c-0.3,0-0.5,0.1-0.7,0.4l-9.3,16c-0.1,0.2-0.1,0.5,0,0.8
		c0.1,0.2,0.4,0.4,0.7,0.4L7.6,21.4L7.6,21.4z"/>
	<path id="Trazado_233" class="st1" d="M26,19.1h16.7c0.4,0,0.8,0,1.2,0.1c0.4,0.1,0.8-0.2,0.9-0.6s-0.2-0.8-0.6-0.9
		c-0.5-0.1-1-0.2-1.5-0.1H26c-1.1,0-2.1,0.5-2.8,1.2c-0.6,0.6-0.9,1.4-0.8,2.2c0.1,2.5,1.3,3.6,4.1,3.7h11.9c0.4,0,0.8-0.3,0.8-0.8
		c0-0.4-0.3-0.8-0.8-0.8c0,0,0,0,0,0H26.4c-2.1-0.1-2.5-0.7-2.6-2.2c0-0.4,0.1-0.8,0.4-1C24.7,19.3,25.3,19.1,26,19.1z"/>
	<path id="Trazado_234" class="st1" d="M9.8,49.9c-0.3,0-0.5,0.1-0.7,0.4l-2.9,4.8c-0.2,0.4-0.1,0.8,0.2,1.1
		c0.1,0.1,0.3,0.1,0.4,0.1c0.3,0,0.5-0.2,0.7-0.4l2.6-4.4h1.4c0.4,0,0.8-0.3,0.8-0.8s-0.3-0.8-0.8-0.8c0,0,0,0,0,0L9.8,49.9
		L9.8,49.9z"/>
	<path id="Trazado_235" class="st1" d="M47.2,37.6c-0.4-0.2-0.8,0-1,0.3c0,0,0,0,0,0c-0.5,1.1-1.4,2-2.4,2.6
		c-1.3,0.7-2.8,1.2-4.3,1.3c-0.4,0-0.7,0.4-0.7,0.9c0,0.4,0.4,0.7,0.8,0.7h0.1c1.7-0.1,3.4-0.7,5-1.5c1.3-0.8,2.4-1.9,3-3.3
		C47.7,38.3,47.6,37.8,47.2,37.6z"/>
</g>
</svg>
