<?xml version="1.0" encoding="utf-8"?>
<!-- Generator: Adobe Illustrator 25.2.1, SVG Export Plug-In . SVG Version: 6.00 Build 0)  -->
<svg version="1.1" id="レイヤー_1" xmlns="http://www.w3.org/2000/svg" xmlns:xlink="http://www.w3.org/1999/xlink" x="0px"
	 y="0px" viewBox="0 0 65 54.6" style="enable-background:new 0 0 65 54.6;" xml:space="preserve">
<style type="text/css">
	.st0{fill:#FFFFFF;}
	.st1{fill:#C1C1C1;}
	.st2{fill:#021F59;}
</style>
<polygon class="st0" points="13,34.1 0.8,15.7 3.8,13.7 3.3,11.8 6.5,10.4 6.3,8.8 36.7,1 43.5,25 47,22.7 52,31.7 56.6,22.8 
	61.6,26.1 54.7,31.7 63.6,31.7 63.6,37.7 62.4,37.7 62.4,49.4 42.1,49.4 42.2,47.8 18.5,53.7 "/>
<path class="st0" d="M49.2,19.1l0.5-3c0,0-4.5-4-4.9-7.9C44.5,4.4,50.4,1,54.7,1c4.4,0,10.1,3.4,9.4,7.9c-0.7,4.4-3.5,7.7-10.7,7.6
	C51,18.4,49.2,19.1,49.2,19.1z"/>
<rect x="13.8" y="14.4" transform="matrix(0.9648 -0.263 0.263 0.9648 -4.6006 7.6122)" class="st1" width="24.6" height="13.3"/>
<rect x="19.8" y="39.3" transform="matrix(0.9648 -0.263 0.263 0.9648 -10.5437 8.4916)" class="st1" width="13.3" height="8.7"/>
<rect x="37.1" y="35.8" transform="matrix(0.9648 -0.263 0.263 0.9648 -9.229 11.746)" class="st1" width="4.3" height="9.1"/>
<path id="Trazado_217" class="st2" d="M39.8,47.5L19.1,53L7.3,9.3c5.8-1.6,25.2-6.7,29-7.7l5.8,21.6c0.1,0.4,0.5,0.6,0.8,0.5
	s0.6-0.5,0.5-0.8l-6-22.2C37.4,0.2,37-0.1,36.6,0C36.4,0.1,11.5,6.7,6.3,8.1C5.9,8.2,5.7,8.6,5.8,8.9c0,0,0,0,0,0l0.2,1
	c-1.1,0.5-2.1,0.8-2.7,1.1c-0.4,0.2-0.5,0.6-0.4,0.9l0.5,1.2c0,0-0.1,0-0.1,0C2,14,1,14.7,0.3,15.1c-0.3,0.2-0.4,0.6-0.2,1
	c0,0,0,0,0,0l11.6,18l2.2,5.5l0.1,0.2l3.9,14.3c0.1,0.3,0.4,0.5,0.7,0.5c0.1,0,0.1,0,0.2,0l21.4-5.7c0.4-0.1,0.6-0.5,0.5-0.9
	C40.5,47.6,40.1,47.4,39.8,47.5L39.8,47.5z M6.4,11.3L11,28.5L4.5,12C5,11.8,5.6,11.6,6.4,11.3z M1.7,15.9C2.3,15.5,3,15,3.9,14.4
	l5.1,12.9L1.7,15.9z"/>
<path id="Trazado_218" class="st2" d="M40.4,24.9c0.1-0.2,0.1-0.4,0.1-0.5l-3.6-13.4c-0.1-0.4-0.5-0.6-0.8-0.5c0,0,0,0,0,0
	c-0.2,0-19.9,5.3-24,6.4c-0.4,0.1-0.6,0.5-0.5,0.8L15,31.1c0.1,0.2,0.2,0.3,0.3,0.4c0.1,0.1,0.2,0.1,0.4,0.1c0.1,0,0.1,0,0.2,0
	l24.1-6.4C40.1,25.1,40.3,25,40.4,24.9z M16.2,30.1L13,18c4.7-1.2,19.3-5.2,22.7-6L38.9,24L16.2,30.1z"/>
<path id="Trazado_219" class="st2" d="M13.1,15.2c0.1,0,0.1,0,0.2,0c4.4-1.2,16-4.2,20.7-5.5c0.4-0.1,0.6-0.5,0.5-0.8
	s-0.5-0.6-0.8-0.5c-4.8,1.3-16.4,4.3-20.7,5.5c-0.4,0.1-0.6,0.5-0.5,0.9C12.5,15,12.8,15.2,13.1,15.2z"/>
<path id="Trazado_220" class="st2" d="M39.8,28.4c-0.1-0.4-0.5-0.6-0.8-0.5c0,0,0,0,0,0c-4.8,1.3-16.3,4.3-20.7,5.5
	c-0.4,0.1-0.6,0.5-0.5,0.9c0.1,0.3,0.4,0.5,0.7,0.5c0.1,0,0.1,0,0.2,0c4.4-1.2,16-4.2,20.7-5.5C39.7,29.1,39.9,28.8,39.8,28.4
	C39.8,28.4,39.8,28.4,39.8,28.4z"/>
<path id="Trazado_221" class="st2" d="M39.3,31.7c-0.1-0.4-0.5-0.6-0.8-0.5c0,0,0,0,0,0c-5.5,1.5-15.4,4.1-19.4,5.2
	c-0.4,0.1-0.6,0.5-0.5,0.9c0.1,0.3,0.4,0.5,0.7,0.5c0.1,0,0.1,0,0.2,0c4-1.1,13.9-3.7,19.4-5.2C39.1,32.4,39.3,32,39.3,31.7z"/>
<path id="Trazado_222" class="st2" d="M31.6,36.9c-0.1,0-9.1,2.5-13.3,3.6c-0.4,0.1-0.6,0.5-0.5,0.8c0,0,0,0,0,0l2.5,9.1
	c0.1,0.2,0.2,0.3,0.3,0.4c0.1,0.1,0.2,0.1,0.4,0.1c0.1,0,0.1,0,0.2,0l13.3-3.6c0.2-0.1,0.3-0.2,0.4-0.3c0.1-0.2,0.1-0.4,0.1-0.5
	l-2.5-9.1C32.4,37,32,36.8,31.6,36.9C31.6,36.9,31.6,36.9,31.6,36.9z M21.5,49.4l-2.1-7.8c3.6-1,9.9-2.7,11.9-3.3l2.2,7.8L21.5,49.4
	z"/>
<path id="Trazado_223" class="st2" d="M39.8,44.5l-1.1,0.3L36.6,37c0.2,0,0.3-0.1,0.5-0.1c0.6-0.1,1.2-0.3,1.6-0.4
	c0.4-0.1,0.6-0.5,0.5-0.8s-0.5-0.6-0.8-0.5c-0.4,0.1-1,0.3-1.6,0.4c-0.5,0.1-0.9,0.2-1.1,0.3c-0.4,0.1-0.6,0.5-0.5,0.8c0,0,0,0,0,0
	l2.5,9.1c0.1,0.2,0.2,0.3,0.3,0.4c0.1,0.1,0.2,0.1,0.4,0.1c0.1,0,0.1,0,0.2,0l1.8-0.5c0.4-0.1,0.6-0.5,0.5-0.8
	C40.6,44.6,40.2,44.3,39.8,44.5z"/>
<path id="Trazado_224" class="st2" d="M56,22.2L56,22.2C56,22.3,56,22.3,56,22.2L56,22.2l-4.1,8.7l-4-8.7c-0.1-0.2-0.3-0.3-0.5-0.4
	c-0.2,0-0.4,0-0.6,0.1l-5,3.7c-0.2,0.1-0.3,0.3-0.3,0.6c0,0.2,0.1,0.4,0.3,0.6l5.4,4.2h-6.8c-0.4,0-0.7,0.3-0.7,0.7v6.2
	c0,0.4,0.3,0.7,0.7,0.7h9.9c0.4,0,0.7-0.3,0.7-0.7v-5.4h1.8v5.4c0,0.4,0.3,0.7,0.7,0.7h9.9c0.4,0,0.7-0.3,0.7-0.7v-6.2
	c0-0.4-0.3-0.7-0.7-0.7h-6.8l5.4-4.2c0.3-0.2,0.4-0.7,0.1-1c0-0.1-0.1-0.1-0.1-0.1L57,22c-0.1-0.1-0.3-0.1-0.4-0.1h-0.2c0,0,0,0,0,0
	v0h0c0,0,0,0,0,0v0h0l0,0l0,0l0,0l0,0L56,22.2 M54.4,31.1h-0.9l3.4-7.4l3.6,2.6L54.4,31.1z M43.5,26.3l3.6-2.6l3.4,7.4h-0.9
	L43.5,26.3z M41.2,37.3v-4.8h8.5v4.8H41.2z M62.8,37.3h-8.5v-4.8h8.4L62.8,37.3L62.8,37.3z"/>
<path id="Trazado_225" class="st2" d="M62.3,39.9h-8.7c-0.4,0-0.7,0.3-0.7,0.7v8.1h-1.8v-8.1c0-0.4-0.3-0.7-0.7-0.7h-8.2
	c-0.4,0-0.7,0.3-0.7,0.7v8.8c0,0.4,0.3,0.7,0.7,0.7h20.1c0.4,0,0.7-0.3,0.7-0.7v-8.8C63,40.3,62.7,39.9,62.3,39.9z M49.7,48.8H43
	v-7.5h6.8V48.8z M61.6,48.8h-7.4v-7.5h7.4V48.8z"/>
<path id="Trazado_226" class="st2" d="M48.2,15.3c0.3,0.2,0.7,0.1,1-0.2s0.1-0.7-0.2-1l0,0c-1.9-1.2-3.1-3.3-3.1-5.5
	c0-2,1-3.9,2.6-5.1c3.7-2.8,8.8-2.8,12.5,0c1.6,1.2,2.6,3.1,2.6,5.1c0,2-1,3.9-2.6,5.1c-1.8,1.4-4,2.1-6.3,2.1c-0.6,0-1.2,0-1.8-0.1
	c-0.3-0.1-0.7,0-0.9,0.3c-0.5,0.8-1.1,1.5-1.8,2.1l0.2-1.6c0.1-0.4-0.2-0.7-0.6-0.8c-0.4-0.1-0.7,0.2-0.8,0.6c0,0,0,0,0,0l-0.4,3.1
	c0,0.3,0.1,0.5,0.3,0.7c0.1,0.1,0.2,0.1,0.4,0.1c0.1,0,0.2,0,0.3-0.1c1.3-0.7,2.5-1.8,3.3-3c0.6,0.1,1.2,0.1,1.8,0.1
	c5.7,0,10.3-3.9,10.3-8.6c0-2.4-1.2-4.7-3.1-6.2c-2-1.6-4.6-2.5-7.1-2.4c-5.7,0-10.2,3.9-10.2,8.6C44.5,11.4,45.9,13.9,48.2,15.3z"
	/>
<path id="Trazado_227" class="st2" d="M50.3,10.5c0,0.9,0.8,1.7,1.7,1.7c0.9,0,1.7-0.8,1.7-1.7c0-0.9-0.8-1.7-1.7-1.7l0,0
	C51.1,8.8,50.3,9.6,50.3,10.5z"/>
<path id="Trazado_228" class="st2" d="M52.1,6.4c-0.1,0.4,0.1,0.7,0.5,0.8c0,0,0,0,0,0c1.7,0.5,2.8,2.2,2.5,4
	c-0.1,0.4,0.2,0.7,0.5,0.8c0,0,0,0,0.1,0h0.1c0.4,0,0.6-0.3,0.7-0.6C57,9,55.4,6.6,53.1,5.9C52.7,5.8,52.3,6.1,52.1,6.4z"/>
<path id="Trazado_229" class="st2" d="M58.4,12.7c0.1,0,0.1,0,0.2,0c0.3,0,0.6-0.2,0.7-0.5c0.1-0.6,0.2-1.1,0.2-1.7
	c0-3.5-2.5-6.6-6-7.2c-0.4-0.1-0.7,0.2-0.8,0.6c-0.1,0.4,0.2,0.7,0.6,0.8c0,0,0,0,0,0c2.8,0.5,4.9,3,4.8,5.8c0,0.5-0.1,0.9-0.2,1.4
	C57.8,12.2,58,12.6,58.4,12.7z"/>
</svg>
