<?xml version="1.0" encoding="utf-8"?>
<!-- Generator: Adobe Illustrator 25.2.1, SVG Export Plug-In . SVG Version: 6.00 Build 0)  -->
<svg version="1.1" id="レイヤー_2_1_" xmlns="http://www.w3.org/2000/svg" xmlns:xlink="http://www.w3.org/1999/xlink" x="0px"
	 y="0px" viewBox="0 0 629 745" style="enable-background:new 0 0 629 745;" xml:space="preserve">
<style type="text/css">
	.st0{fill:#F5E532;stroke:#000000;stroke-miterlimit:10;}
	.st1{fill:#EBDD3D;}
	.st2{fill:none;stroke:#021F58;stroke-width:17.0079;stroke-linecap:round;stroke-linejoin:round;stroke-miterlimit:10;}
</style>
<path class="st0" d="M112,577l40.4-16.6c0,0,80.5,24.1,112-16c-21.2-2.2-44.6-9.6-48-18c25.4,1.1,119.4-18.6,122-28
	c-51.5,5-99.6-1.6-100-16c66.6-3.4,143.4-23.6,214-142c-36.4-1.4-54-16-54-16s101.4-18.6,118-70c-46.4,6.6-44-8-44-8s76-9.9,108-72
	S633,94.9,598,9.9c-38,19.1-125.8,74.7-172.8,120s-170.8,175-188.8,193.8c-18,18.8-59.3,62.1-78.1,106.5S122.2,516,122.2,516
	s-15.4-23.2-17.8-29.6S110,568.7,112,577z"/>
<polygon class="st1" points="96,654.4 154.8,555.4 120,551 46.4,664.4 22.9,711.4 67.3,681.2 "/>
<path class="st2" d="M144.4,530.4c120-218,394-430,394-430c-50,44-73.6,72.3-110,108c-212,208-276,352-276,352c58,20,136-20,112-16
	s-48-18-48-18c38,10,122-28,122-28c-62,20-100-16-100-16c128,10,226-148,214-142s-54-16-54-16c82-2,136-80,118-70s-44-8-44-8
	c94-12,124.1-102.1,140-134c18-36-4-118-20-100s-24,16-98,62s-206,196-276,268s-92,176-92,176c-12-4-22-32-22-32l8,82l-66,96l-36,72
	l68-66"/>
<line class="st2" x1="236.4" y1="596.4" x2="580.4" y2="596.4"/>
<line class="st2" x1="168.4" y1="654.4" x2="580.4" y2="654.4"/>
<line class="st2" x1="86.4" y1="724.4" x2="580.4" y2="724.4"/>
</svg>
