<?xml version="1.0" encoding="utf-8"?>
<!-- Generator: Adobe Illustrator 25.2.1, SVG Export Plug-In . SVG Version: 6.00 Build 0)  -->
<svg version="1.1" id="レイヤー_1" xmlns="http://www.w3.org/2000/svg" xmlns:xlink="http://www.w3.org/1999/xlink" x="0px"
	 y="0px" viewBox="0 0 65 48.1" style="enable-background:new 0 0 65 48.1;" xml:space="preserve">
<style type="text/css">
	.st0{fill:#FFFFFF;}
	.st1{fill:#F5E532;}
	.st2{fill:#021F59;}
</style>
<path class="st0" d="M1.5,29.5c0,0,2.8-1.2,3.1-1.4S6.3,25,6.3,25s-2.7-2.7-2-3.1s2.5-1.7,2.5-1.7l1.7,1.7l2.9-1l1.7-3.4h3l0.4,2.8
	l3,1.4l2.9-1.2l2.8,1.4l-0.6,1.7l-1,1.9l0.6,2.7l3.8,0.7v2.9l-2.7,1.4l-1.7,2.4l1.5,3.6l-2.1,2.2l-3-1.7l-2.6,0.8l-1.3,3.8h-3.4
	l-0.2-3.8l-2.9-0.9L6,41.3l-2.3-2.2l2.5-2.7l-1.2-3l-3.4-0.7V29.5z"/>
<path class="st0" d="M17.7,10c0,0,1.6-0.9,1.8-1.1c0.2-0.2,0.8-2,0.8-2s-1.9-1.4-1.5-1.8s1.4-1.3,1.4-1.3l1.2,0.9L23,3.8l0.8-2.2
	l1.8-0.2l0.5,1.7l2,0.6l1.6-1l1.8,0.6l-0.2,1.1l-0.4,1.2l0.6,1.6l2.4,0.1l0.2,1.8l-1.5,1.1l-0.9,1.6l1.2,2.1l-1.1,1.5l-2-0.8
	l-1.5,0.7l-0.5,2.4L25.8,18l-0.5-2.3l-1.8-0.3l-2.1,1.4l-1.6-1.2l1.3-1.9l-1-1.7L17.9,12L17.7,10z"/>
<polygon class="st0" points="34.9,20 38.2,23.5 41.6,22.7 42.5,18.9 39.4,15.3 43.2,14.3 50.4,20.8 49.8,25.9 62.9,39.1 63.8,42.1 
	62.5,44.2 60.5,44.6 58.3,43.7 44.8,30.8 40.3,31.4 33.1,24 "/>
<polygon class="st0" points="34.9,20 38.2,23.5 41.6,22.7 42.5,18.9 39.4,15.3 43.2,14.3 50.4,20.8 49.8,25.9 62.9,39.1 63.8,42.1 
	62.5,44.2 60.5,44.6 58.3,43.7 44.8,30.8 40.3,31.4 33.1,24 "/>
<circle class="st1" cx="15" cy="30.8" r="5.5"/>
<circle class="st1" cx="25.8" cy="9.8" r="2.8"/>
<g id="service-2" transform="translate(0 -18.572)">
	<path id="Trazado_210" class="st2" d="M14.7,42.4c-3.8,0-6.9,3.1-7,6.9c0,3.8,3.1,6.9,6.9,7c3.8,0,6.9-3.1,7-6.9c0,0,0,0,0,0
		C21.6,45.5,18.5,42.4,14.7,42.4z M14.7,54.1c-2.7,0-4.8-2.2-4.8-4.8c0-2.7,2.2-4.8,4.8-4.8s4.8,2.2,4.8,4.8
		C19.5,52,17.4,54.1,14.7,54.1z"/>
	<path id="Trazado_211" class="st2" d="M24.5,54.5c0,0,0-0.1,0-0.1c0.3-0.6,0.6-1.2,0.7-1.8c0,0,0-0.1,0.1-0.1l3.2-0.4
		c0.5-0.1,0.9-0.5,0.9-1.1v-2.7c0.4-0.5,0.3-1.2-0.2-1.5c0,0-0.1-0.1-0.1-0.1l-0.3-0.1h-0.1c0,0-0.1,0-0.1,0l-3.2-0.4
		c0,0-0.1,0-0.1-0.1c-0.2-0.6-0.4-1.2-0.7-1.8c0,0,0-0.1,0-0.1l1.9-2.6c0.3-0.4,0.3-1-0.1-1.4l-2.4-2.4c-0.4-0.4-1-0.4-1.4-0.1
		l-2.6,1.9c0,0-0.1,0-0.1,0c0,0,0,0,0,0c-0.6-0.3-1.2-0.6-1.8-0.7c0,0-0.1,0-0.1-0.1l-0.4-3.2c-0.1-0.5-0.5-0.9-1.1-0.9H13
		c-0.5,0-1,0.4-1.1,0.9l-0.4,3.2c0,0,0,0.1-0.1,0.1c-0.6,0.2-1.2,0.4-1.8,0.7c0,0-0.1,0-0.1,0L7,37.6c-0.4-0.3-1-0.3-1.4,0.1
		l-2.4,2.4c-0.4,0.4-0.4,1-0.1,1.4L5,44.1c0,0,0,0.1,0,0.1c0,0,0,0,0,0c-0.3,0.6-0.6,1.2-0.7,1.8c0,0,0,0.1-0.1,0.1L1,46.5
		c-0.6,0.1-1,0.5-1,1.1v3.4c0,0.5,0.4,1,0.9,1.1l3.2,0.4c0,0,0.1,0,0.1,0.1c0.2,0.6,0.4,1.2,0.7,1.8c0,0,0,0.1,0,0.1L3,57.1
		c-0.3,0.4-0.3,1,0.1,1.4L5.5,61c0.4,0.4,1,0.4,1.4,0.1l2.6-1.9c0,0,0.1,0,0.1,0c0.6,0.3,1.2,0.6,1.8,0.7c0,0,0.1,0,0.1,0.1l0.4,3.2
		c0.1,0.5,0.5,0.9,1.1,0.9h3.4c0.5,0,1-0.4,1.1-0.9l0.4-3.2c0,0,0-0.1,0.1-0.1c0.6-0.2,1.2-0.4,1.8-0.7c0,0,0.1,0,0.1,0l2.6,1.9
		c0.4,0.3,1,0.3,1.4-0.1l2.4-2.4c0.4-0.4,0.4-1,0.1-1.4L24.5,54.5z M23.1,58.8l-1.8-1.4c-0.7-0.5-1.6-0.6-2.4-0.2
		c-0.5,0.3-0.9,0.5-1.4,0.6c-0.8,0.3-1.4,1-1.6,1.8l-0.3,2.3H14l-0.3-2.3c-0.1-0.9-0.7-1.6-1.6-1.8c-0.5-0.1-1-0.3-1.4-0.6
		c-0.8-0.4-1.7-0.3-2.4,0.2l-1.8,1.4l-1.1-1.1l1.4-1.8c0.5-0.7,0.6-1.6,0.2-2.4C6.7,53,6.5,52.5,6.3,52c-0.3-0.8-1-1.4-1.8-1.6
		l-2.3-0.3v-1.6l2.3-0.3c0.9-0.1,1.6-0.7,1.8-1.6c0.1-0.5,0.3-1,0.6-1.4c0.4-0.8,0.3-1.7-0.2-2.4L5.3,41l1.1-1.1l1.8,1.4
		c0.7,0.5,1.6,0.6,2.4,0.2c0.5-0.3,0.9-0.5,1.4-0.6c0.8-0.3,1.4-1,1.6-1.8l0.3-2.3h1.6l0.3,2.3c0.1,0.9,0.7,1.6,1.6,1.8
		c0.5,0.1,1,0.3,1.4,0.6c0.8,0.4,1.7,0.3,2.4-0.2l1.8-1.4l1.1,1.1l-1.4,1.8c-0.5,0.7-0.6,1.6-0.2,2.4c0.3,0.5,0.5,0.9,0.6,1.4
		c0.3,0.8,1,1.4,1.8,1.6l2.3,0.3v1.6L25,50.4c-0.9,0.1-1.6,0.7-1.8,1.6c-0.1,0.5-0.3,1-0.6,1.4c-0.4,0.8-0.3,1.7,0.2,2.4l1.4,1.8
		L23.1,58.8z"/>
	<path id="Trazado_212" class="st2" d="M23.3,31.5c0.7,0.6,1.6,0.9,2.5,0.9c0.2,0,0.3,0,0.5,0l0,0c1.1-0.1,2.1-0.7,2.7-1.5
		c0.7-0.8,1-1.9,0.8-3c-0.1-1.1-0.7-2.1-1.5-2.7c-0.8-0.7-1.9-1-3-0.8c-1.1,0.1-2.1,0.7-2.7,1.5C21.3,27.6,21.6,30.1,23.3,31.5
		L23.3,31.5z M24.1,26.9c0.4-0.5,0.9-0.8,1.5-0.8h0.2c0.5,0,1,0.2,1.4,0.5c0.5,0.4,0.8,0.9,0.8,1.5c0,0.6-0.1,1.1-0.5,1.6
		c-0.4,0.5-0.9,0.8-1.5,0.8c-0.6,0.1-1.2-0.1-1.6-0.5c-0.5-0.4-0.8-0.9-0.8-1.5C23.6,28,23.8,27.4,24.1,26.9z"/>
	<path id="Trazado_213" class="st2" d="M16.4,30.5c0.1,0.5,0.5,0.8,0.9,0.8l1.9,0c0.1,0.3,0.3,0.6,0.5,0.9l-1,1.7
		c-0.2,0.4-0.1,0.9,0.2,1.2l1.7,1.3c0.4,0.3,0.9,0.3,1.2-0.1l1.4-1.3c0.3,0.1,0.7,0.2,1,0.3l0.5,1.9c0.1,0.4,0.5,0.7,0.9,0.7h0.1
		l2.2-0.2c0.5-0.1,0.8-0.5,0.8-0.9l0-1.9c0.3-0.1,0.6-0.3,0.9-0.5l1.7,1c0.4,0.2,0.9,0.1,1.2-0.2l1.3-1.7c0.3-0.4,0.3-0.9-0.1-1.2
		l-1.3-1.4c0.1-0.3,0.2-0.7,0.3-1l1.9-0.5c0.5-0.1,0.8-0.6,0.7-1l-0.2-1.7c0.1-0.1,0.1-0.3,0.1-0.4c0-0.5-0.4-1-0.9-1c0,0,0,0,0,0
		h-0.1l-1.9,0c-0.1-0.3-0.3-0.6-0.5-0.9l1-1.7c0.2-0.4,0.1-0.9-0.2-1.2L31,20.1c-0.4-0.3-0.9-0.3-1.2,0.1l-1.4,1.3
		c-0.3-0.1-0.7-0.2-1-0.3l-0.5-1.9c-0.1-0.5-0.6-0.8-1-0.7l-2.2,0.2c-0.5,0.1-0.8,0.5-0.8,0.9l0,1.9c-0.3,0.1-0.6,0.3-0.9,0.5
		l-1.7-1c-0.4-0.2-0.9-0.1-1.2,0.2l-1.3,1.7c-0.3,0.4-0.3,0.9,0.1,1.3l1.3,1.4c-0.1,0.3-0.2,0.7-0.3,1l-1.9,0.5
		c-0.5,0.1-0.8,0.6-0.7,1L16.4,30.5z M19.3,28.6c0.6-0.2,1.1-0.7,1.2-1.3c0.1-0.3,0.1-0.6,0.2-0.9c0.2-0.6,0.1-1.3-0.4-1.8l-0.8-0.9
		l0.3-0.4l1.1,0.6c0.6,0.3,1.3,0.3,1.8-0.1c0.3-0.2,0.6-0.3,0.8-0.5c0.6-0.3,1-0.9,1-1.5l0-1.2l0.5-0.1l0.3,1.2
		c0.2,0.6,0.7,1.1,1.3,1.2c0.3,0.1,0.6,0.1,0.9,0.2c0.6,0.2,1.3,0.1,1.8-0.4l0.9-0.8l0.4,0.3l-0.6,1.1C30,24,30,24.7,30.4,25.2
		c0.2,0.3,0.3,0.6,0.5,0.8c0.3,0.6,0.9,1,1.5,1l1.2,0l0.1,0.5L32.5,28c-0.6,0.2-1.1,0.7-1.2,1.3c-0.1,0.3-0.1,0.6-0.2,0.9
		c-0.2,0.6-0.1,1.3,0.4,1.8l0.8,0.9l-0.3,0.4l-1.1-0.6c-0.6-0.3-1.3-0.3-1.8,0.1c-0.3,0.2-0.6,0.3-0.8,0.5c-0.6,0.3-1,0.9-1,1.5
		l0,1.2l-0.6,0l-0.3-1.2c-0.2-0.6-0.7-1.1-1.3-1.2c-0.3-0.1-0.6-0.1-0.9-0.2c-0.2-0.1-0.4-0.1-0.6-0.1c-0.4,0-0.8,0.2-1.2,0.5
		l-0.9,0.8l-0.4-0.3l0.6-1.1c0.3-0.6,0.3-1.3-0.1-1.8c-0.2-0.3-0.3-0.6-0.5-0.8c-0.3-0.6-0.9-1-1.5-1l-1.2,0l-0.1-0.5L19.3,28.6z"/>
	<path id="Trazado_214" class="st2" d="M63.9,57.2C63.9,57.2,63.9,57.2,63.9,57.2L63.9,57.2l-1-1L50.8,44l0.9-3
		c0.2-0.8,0-1.7-0.6-2.3l-6.3-6.3c-0.6-0.6-1.5-0.8-2.3-0.6L38.9,33c-0.4,0.1-0.6,0.4-0.7,0.8c-0.1,0.4,0,0.8,0.3,1l3.4,3.4L41,40.5
		l-2.3,0.8l-3.4-3.4c-0.3-0.3-0.7-0.4-1-0.3c-0.4,0.1-0.7,0.4-0.8,0.7l-1.1,3.6c-0.2,0.8,0,1.7,0.6,2.3l6.3,6.3
		c0.6,0.6,1.5,0.8,2.3,0.6l3-0.9l12.3,12.3l0,0l0.7,0.6c0.8,0.8,1.9,1.3,3,1.3c2.4,0,4.3-1.9,4.3-4.3c0,0,0,0,0,0
		C65,59.1,64.6,58,63.9,57.2z M60.7,62.3c-0.6-0.1-1.1-0.3-1.6-0.7l0,0l-0.7-0.6L45.7,48.2c-0.3-0.3-0.7-0.4-1.1-0.3L41,49
		c-0.1,0-0.1,0-0.2,0l-6.3-6.3c0-0.1-0.1-0.1,0-0.2l0.6-1.9l2.6,2.6c0.3,0.3,0.7,0.4,1.1,0.2l3.4-1.2c0.3-0.1,0.6-0.4,0.7-0.7
		l1.2-3.4c0.1-0.4,0-0.8-0.2-1.1l-2.6-2.6l1.9-0.6c0,0,0.1,0,0.2,0l6.3,6.3c0,0.1,0.1,0.1,0,0.2L48.5,44c-0.1,0.4,0,0.8,0.3,1.1
		l12.7,12.7l0.9,0.9c0.3,0.4,0.5,0.9,0.5,1.4C62.9,61.3,61.9,62.3,60.7,62.3L60.7,62.3z"/>
	<path id="Trazado_215" class="st2" d="M60.7,59.4c0,0-0.1,0-0.1,0c-0.6-0.4-1.2-0.9-1.8-1.5l0,0L48.6,47.7c-0.4-0.4-1.1-0.4-1.5,0
		c-0.4,0.4-0.4,1.1,0,1.5l10.2,10.2c0.7,0.7,1.5,1.4,2.3,1.9c0.4,0.2,0.7,0.3,1.1,0.2c0.3,0,0.7-0.1,1-0.3c0.5-0.4,0.6-1,0.2-1.5
		c0,0,0,0,0,0C61.6,59.4,61.2,59.3,60.7,59.4z"/>
	<path id="Trazado_216" class="st2" d="M42.6,58.5c0.5-0.3,0.7-0.9,0.5-1.4l-0.6-1.6c-0.2-0.5-0.8-0.8-1.3-0.7l-1.2,0.2
		c-0.1-0.1-0.2-0.2-0.2-0.2l0.4-1.2c0.2-0.5-0.1-1.1-0.6-1.4l-1.5-0.7c-0.5-0.2-1.1-0.1-1.4,0.4L36,53h-0.3l-0.6-1.1
		c-0.3-0.5-0.9-0.7-1.4-0.5l-1.6,0.6c-0.5,0.2-0.8,0.8-0.7,1.3l0.2,1.2c-0.1,0.1-0.2,0.2-0.2,0.2l-1.2-0.4c-0.5-0.2-1.1,0.1-1.4,0.6
		l-0.7,1.5c-0.2,0.5-0.1,1.1,0.4,1.4l1,0.7v0.3l-1.1,0.6c-0.5,0.3-0.7,0.9-0.5,1.4l0.6,1.6c0.2,0.5,0.8,0.8,1.3,0.7l1.2-0.2
		c0.1,0.1,0.2,0.2,0.2,0.2L31,64.3c-0.2,0.5,0.1,1.1,0.6,1.4l1.5,0.7c0.5,0.2,1.1,0.1,1.4-0.4l0.7-1h0.3l0.6,1.1
		c0.2,0.4,0.6,0.6,1,0.6c0.1,0,0.3,0,0.4-0.1L39,66c0.5-0.2,0.8-0.8,0.7-1.3l-0.2-1.2c0.1-0.1,0.2-0.2,0.2-0.2l1.2,0.4
		c0.5,0.2,1.1-0.1,1.4-0.6l0.7-1.5c0.2-0.5,0.1-1.1-0.4-1.4l-1-0.7v-0.3L42.6,58.5z M35.6,60.3c-0.7,0-1.3-0.6-1.3-1.3
		s0.6-1.3,1.3-1.3s1.3,0.6,1.3,1.3l0,0C36.9,59.7,36.3,60.3,35.6,60.3C35.6,60.3,35.6,60.3,35.6,60.3L35.6,60.3z"/>
</g>
</svg>
