<?xml version="1.0" encoding="utf-8"?>
<!-- Generator: Adobe Illustrator 25.2.1, SVG Export Plug-In . SVG Version: 6.00 Build 0)  -->
<svg version="1.1" id="レイヤー_1" xmlns="http://www.w3.org/2000/svg" xmlns:xlink="http://www.w3.org/1999/xlink" x="0px"
	 y="0px" viewBox="0 0 24 24" style="enable-background:new 0 0 24 24;" xml:space="preserve">
<style type="text/css">
	.st0{fill:#484848;}
</style>
<path class="st0" d="M17.5,2C17.8,2,18,2.2,18,2.5v19c0,0.3-0.2,0.5-0.5,0.5h-11C6.2,22,6,21.8,6,21.5v-19C6,2.2,6.2,2,6.5,2H17.5z
	 M20,2c0-1.1-0.9-2-2-2H6C4.9,0,4,0.9,4,2v20c0,1.1,0.9,2,2,2h12c1.1,0,2-0.9,2-2V2z M10.5,3h3C13.8,3,14,3.2,14,3.5
	C14,3.8,13.8,4,13.5,4h-3C10.2,4,10,3.8,10,3.5C10,3.2,10.2,3,10.5,3z M12,21c-0.6,0-1-0.4-1-1s0.4-1,1-1c0.6,0,1,0.4,1,1
	S12.6,21,12,21z M17,18H7V5h10V18z"/>
</svg>
