<?xml version="1.0" encoding="utf-8"?>
<!-- Generator: Adobe Illustrator 25.2.1, SVG Export Plug-In . SVG Version: 6.00 Build 0)  -->
<svg version="1.1" id="レイヤー_1" xmlns="http://www.w3.org/2000/svg" xmlns:xlink="http://www.w3.org/1999/xlink" x="0px"
	 y="0px" viewBox="0 0 65 48.7" style="enable-background:new 0 0 65 48.7;" xml:space="preserve">
<style type="text/css">
	.st0{fill:#FFFFFF;}
	.st1{fill:#F5E532;}
	.st2{fill:#021F59;}
</style>
<rect x="0.8" y="10.1" class="st0" width="53.9" height="37.7"/>
<rect x="5.7" y="19" class="st1" width="22.1" height="15.9"/>
<rect x="34.6" y="19.4" class="st1" width="15.8" height="10.8"/>
<rect x="34.6" y="44" class="st1" width="16.5" height="3.4"/>
<path class="st0" d="M42.6,9.4l0.8-1.7l-0.8-1l1.9-2.3l2.8,1.3l2.4-1.3V1.3l2.5-0.8l1.5,3L55.9,4l2.5-2.1l2,1.6l-1.1,3.2l1.5,2
	l2.9-0.1l0.7,2.7l-3.1,1.5L61,14.9l2.1,2.5l-1.3,2l-3.2-1.2l-3.7,2.2l0.1-4.1l1.9-1.2c0,0,1.6-2.5,0.8-4.7c-0.8-2.3-4-4.6-7.2-2.6
	c-1.5,1.5-1.7,2.2-1.7,2.2L42.6,9.4h-0.4H42.6"/>
<g id="service-1" transform="translate(0.2 -14.456)">
	<path id="Trazado_193" class="st2" d="M64.8,25.8L64.3,23c0-0.3-0.3-0.5-0.6-0.5L61,22.6c-0.2,0-0.3-0.1-0.4-0.2
		c-0.2-0.5-0.5-0.9-0.8-1.3c-0.1-0.1-0.1-0.3,0-0.5l1.2-2.4v0c0.1-0.2,0-0.5-0.2-0.7l-2.4-1.7c-0.2-0.1-0.5-0.1-0.7,0.1l-1.8,2
		c-0.1,0.1-0.3,0.2-0.4,0.1c-0.5-0.2-1-0.3-1.6-0.3c-0.2,0-0.3-0.1-0.4-0.3l-0.8-2.6c-0.1-0.3-0.4-0.4-0.6-0.4L49.2,15
		c-0.3,0-0.5,0.3-0.5,0.6l0.1,2.7c0,0.2-0.1,0.3-0.2,0.4c-0.5,0.2-0.9,0.5-1.3,0.8c-0.1,0.1-0.3,0.1-0.5,0l-2.4-1.2
		c-0.2-0.1-0.5,0-0.7,0.2l-1.7,2.4c-0.1,0.2-0.1,0.5,0.1,0.7l0.9,0.8c0.2,0.2,0.6,0.2,0.8,0l0,0C44,22.3,44,22.1,44,22
		c0-0.1-0.1-0.3-0.2-0.4l-0.5-0.5l1.1-1.5l2,1c0.5,0.3,1.2,0.2,1.7-0.2c0.4-0.3,0.7-0.5,1.1-0.7c0.5-0.3,0.9-0.8,0.8-1.4L49.9,16
		l1.8-0.4l0.7,2.1c0.2,0.6,0.7,1,1.3,1.1c0.5,0.1,0.9,0.2,1.3,0.3c0.6,0.2,1.2,0,1.6-0.5l1.5-1.6l1.5,1.1l-1,2
		c-0.3,0.5-0.2,1.2,0.2,1.7c0.3,0.4,0.5,0.7,0.7,1.1c0.3,0.5,0.8,0.9,1.4,0.8l2.2-0.1l0.4,1.8l-2.1,0.7c-0.6,0.2-1,0.7-1.1,1.3
		c-0.1,0.5-0.2,0.9-0.3,1.3c-0.2,0.6,0,1.2,0.5,1.6l1.6,1.5l-1.1,1.5l-2-1c-0.5-0.3-1.2-0.2-1.7,0.2c-0.3,0.3-0.7,0.5-1,0.7
		c-0.1,0.1-0.2,0.2-0.2,0.3c0,0.1,0,0.3,0,0.4l0,0c0.2,0.3,0.5,0.3,0.7,0.2c0.4-0.2,0.8-0.5,1.2-0.8c0.1-0.1,0.3-0.1,0.5,0l2.4,1.2
		c0.1,0,0.2,0.1,0.2,0.1c0.2,0,0.4-0.1,0.5-0.2l1.7-2.4c0.1-0.2,0.1-0.5-0.1-0.7l-2-1.8c-0.1-0.1-0.2-0.3-0.1-0.4
		c0.2-0.5,0.3-1,0.3-1.6c0-0.2,0.1-0.3,0.3-0.4l2.6-0.8C64.7,26.3,64.9,26.1,64.8,25.8z"/>
	<path id="Trazado_194" class="st2" d="M54.5,23.8H0.6c-0.4,0-0.7,0.3-0.7,0.7l-0.1,38c0,0.2,0.1,0.4,0.2,0.5
		c0.1,0.1,0.3,0.2,0.5,0.2h54c0.4,0,0.7-0.3,0.7-0.7v-38C55.2,24.1,54.9,23.8,54.5,23.8z M35.4,61.8v-1.7l2.6,1.7H35.4z M44.2,61.7
		L44.2,61.7l-3.6,0c0,0-0.1-0.1-0.1-0.1l-3.9-2.5h11.6L44.2,61.7z M49.5,61.8h-2.7l2.7-1.8L49.5,61.8z M53.8,61.8h-2.9v-3.3
		c0-0.4-0.3-0.7-0.7-0.7H34.7c-0.4,0-0.7,0.3-0.7,0.7v3.3H1.2l0.1-30.7h48.8c0.4,0,0.7-0.3,0.7-0.7c0-0.4-0.3-0.7-0.7-0.7H1.2l0-4.5
		h52.5L53.8,61.8L53.8,61.8z"/>
	<path id="Trazado_195" class="st2" d="M3.7,27.9h12.6c0.4,0,0.7-0.3,0.7-0.7c0-0.4-0.3-0.7-0.7-0.7H3.7c-0.4,0-0.7,0.3-0.7,0.7
		C3,27.6,3.3,27.9,3.7,27.9z"/>
	<path id="Trazado_196" class="st2" d="M27.5,52.4H5.4c-0.4,0-0.7,0.3-0.7,0.7s0.3,0.7,0.7,0.7l0,0h22.1c0.4,0,0.7-0.3,0.7-0.7
		C28.1,52.8,27.9,52.4,27.5,52.4C27.5,52.4,27.5,52.4,27.5,52.4z"/>
	<path id="Trazado_197" class="st2" d="M27.5,55.7H5.4c-0.4,0-0.7,0.3-0.7,0.7s0.3,0.7,0.7,0.7l0,0h22.1c0.4,0,0.7-0.3,0.7-0.7
		C28.1,56,27.9,55.7,27.5,55.7C27.5,55.7,27.5,55.7,27.5,55.7z"/>
	<path id="Trazado_198" class="st2" d="M15.8,59H5.4c-0.4,0-0.7,0.3-0.7,0.7s0.3,0.7,0.7,0.7l0,0h10.4c0.4,0,0.7-0.3,0.7-0.7
		S16.2,59,15.8,59L15.8,59z"/>
	<path id="Trazado_199" class="st2" d="M50.1,47.6H34.6c-0.4,0-0.7,0.3-0.7,0.7s0.3,0.7,0.7,0.7h15.4c0.4,0,0.7-0.3,0.7-0.7
		C50.8,47.9,50.5,47.6,50.1,47.6C50.1,47.6,50.1,47.6,50.1,47.6z"/>
	<path id="Trazado_200" class="st2" d="M34.6,52.2h10.6c0.4,0,0.7-0.3,0.7-0.7s-0.3-0.7-0.7-0.7H34.6c-0.4,0-0.7,0.3-0.7,0.7
		S34.3,52.2,34.6,52.2z"/>
	<path id="Trazado_201" class="st2" d="M37.4,54.1h-2.7c-0.4,0-0.7,0.3-0.7,0.7s0.3,0.7,0.7,0.7h2.7c0.4,0,0.7-0.3,0.7-0.7
		S37.8,54.1,37.4,54.1L37.4,54.1L37.4,54.1z"/>
	<path id="Trazado_202" class="st2" d="M42.5,54.1h-2.7c-0.4,0-0.7,0.3-0.7,0.7s0.3,0.7,0.7,0.7h2.7c0.4,0,0.7-0.3,0.7-0.7
		C43.3,54.5,43,54.1,42.5,54.1C42.6,54.1,42.6,54.1,42.5,54.1z"/>
	<path id="Trazado_203" class="st2" d="M47.8,54.1H45c-0.4,0-0.7,0.3-0.7,0.7s0.3,0.7,0.7,0.7h2.7c0.4,0,0.7-0.3,0.7-0.7
		S48.1,54.1,47.8,54.1L47.8,54.1z"/>
	<path id="Trazado_204" class="st2" d="M25,27.9h6c0.4,0,0.7-0.3,0.7-0.7c0-0.4-0.3-0.7-0.7-0.7h-6c-0.4,0-0.7,0.3-0.7,0.7
		C24.3,27.6,24.6,27.9,25,27.9z"/>
	<path id="Trazado_205" class="st2" d="M34.5,27.9h6c0.4,0,0.7-0.3,0.7-0.7c0-0.4-0.3-0.7-0.7-0.7h-6c-0.4,0-0.7,0.3-0.7,0.7
		C33.9,27.6,34.2,27.9,34.5,27.9z"/>
	<path id="Trazado_206" class="st2" d="M44.1,27.9h6c0.4,0,0.7-0.3,0.7-0.7c0-0.4-0.3-0.7-0.7-0.7h-6c-0.4,0-0.7,0.3-0.7,0.7
		C43.4,27.6,43.7,27.9,44.1,27.9z"/>
	<path id="Trazado_207" class="st2" d="M27.5,33.4H5.4c-0.4,0-0.7,0.3-0.7,0.7v15.5c0,0.4,0.3,0.7,0.7,0.7h22.1
		c0.4,0,0.7-0.3,0.7-0.7V34.1C28.2,33.7,27.9,33.4,27.5,33.4C27.5,33.4,27.5,33.4,27.5,33.4z M7.5,48.8l7.2-4.9
		c0.3-0.2,0.4-0.7,0.2-1c-0.2-0.3-0.7-0.4-1-0.2c0,0,0,0,0,0l-7.9,5.3V35.6l19.2,13.2H7.5z M26.8,48.1L7.4,34.8h18.2l-7.5,5.1
		c-0.3,0.2-0.4,0.7-0.2,1c0.1,0.2,0.3,0.3,0.6,0.3c0.1,0,0.3,0,0.4-0.1l7.9-5.3L26.8,48.1z"/>
	<path id="Trazado_208" class="st2" d="M50.2,33.5H34.6c-0.4,0-0.7,0.3-0.7,0.7v10.5c0,0.4,0.3,0.7,0.7,0.7h15.5
		c0.4,0,0.7-0.3,0.7-0.7V34.2C50.9,33.8,50.6,33.5,50.2,33.5z M36.9,44l3.9-2.5c0.3-0.2,0.4-0.7,0.2-1c-0.2-0.3-0.7-0.4-1-0.2
		l-4.6,3v-7.4L48,44L36.9,44L36.9,44z M49.5,43.2l-12.9-8.3h11.6l-4.2,2.7c-0.3,0.2-0.4,0.7-0.2,1c0.1,0.2,0.4,0.3,0.6,0.3
		c0.1,0,0.3,0,0.4-0.1l4.8-3.1L49.5,43.2L49.5,43.2z"/>
	<path id="Trazado_209" class="st2" d="M56.6,30.3c0.2,0,0.3-0.1,0.4-0.2c1.1-1.3,1.5-2.9,1.2-4.5c-0.3-1.4-1.1-2.7-2.3-3.5
		c-1.2-0.8-2.7-1.2-4.1-0.9c-0.7,0.1-1.4,0.4-2,0.8c-0.3,0.2-0.4,0.5-0.2,0.8c0,0,0,0,0,0l0,0c0.1,0.1,0.2,0.2,0.4,0.2
		c0.2,0,0.3,0,0.5-0.1c0.5-0.3,1-0.5,1.6-0.6c1.1-0.2,2.3,0,3.2,0.7c0.9,0.6,1.6,1.6,1.8,2.7c0.2,1.3-0.1,2.5-0.9,3.5
		c-0.2,0.2-0.2,0.6,0.1,0.8c0,0,0,0,0,0l0,0C56.3,30.2,56.4,30.3,56.6,30.3L56.6,30.3z"/>
</g>
</svg>
