<?xml version="1.0" encoding="utf-8"?>
<!-- Generator: Adobe Illustrator 25.2.1, SVG Export Plug-In . SVG Version: 6.00 Build 0)  -->
<svg version="1.1" id="レイヤー_1" xmlns="http://www.w3.org/2000/svg" xmlns:xlink="http://www.w3.org/1999/xlink" x="0px"
	 y="0px" viewBox="0 0 565.3 544" style="enable-background:new 0 0 565.3 544;" xml:space="preserve">
<style type="text/css">
	.st0{fill:#EBDD3D;}
	.st1{fill:#FFFFFF;}
	.st2{fill:#021F58;}
</style>
<polygon class="st0" points="56.8,220 56.8,9.1 504.8,9.1 506.7,223 556.8,180.1 556.8,504.9 542.8,529.7 522.8,534.1 38.8,534.1 
	9.8,521.1 9.8,178.1 "/>
<rect x="112.2" y="86.8" class="st1" width="37" height="32.4"/>
<rect x="190.1" y="86.8" class="st1" width="243.1" height="32.4"/>
<rect x="112.2" y="176.6" class="st1" width="37" height="32.4"/>
<rect x="190.1" y="176.6" class="st1" width="243.1" height="32.4"/>
<polygon class="st1" points="149.1,300.7 140.7,300.5 112.2,268.3 149.1,268.3 "/>
<polygon class="st1" points="420.6,300.7 190.1,300.7 190.1,268.3 433.2,268.3 "/>
<g id="レイヤー_3">
</g>
<g id="レイヤー_2_1_">
	<g>
		<path class="st2" d="M553.9,529.7c-2,0-4-0.7-5.6-2.1L358,361.6l-19.5,15.2c-15.5,13.5-35.4,20.9-55.9,20.9c0,0-0.1,0-0.2,0
			c-20.5,0-40.4-7.4-55.9-20.9l-19.2-15.2L17,527.6c-2.2,1.9-5.2,2.6-7.9,1.8c-2.8-0.8-5-2.9-5.8-5.7C1.1,516.6,0,509.3,0,501.9
			V177.8c0-3.3,1.9-6.4,5-7.7c3-1.4,6.6-0.9,9.1,1.3l193.6,168.8l29.5,23.4c0.1,0.1,0.2,0.2,0.3,0.3c12.5,10.9,28.4,16.8,44.9,16.8
			c0,0,0.1,0,0.1,0c16.5,0,32.4-6,44.9-16.8c0.1-0.1,0.2-0.2,0.4-0.3l27.9-21.7l195.5-170.5c2.5-2.2,6.1-2.7,9.1-1.3
			c3,1.4,5,4.4,5,7.7v324.1c0,7.4-1.1,14.7-3.2,21.8c-0.8,2.8-3,4.9-5.8,5.7C555.5,529.6,554.7,529.7,553.9,529.7z M371.4,350.8
			l176.9,154.2c0.1-1,0.1-2,0.1-3V196.5L371.4,350.8z M17,196.5v305.4c0,1,0,2,0.1,3l176.9-154.2L17,196.5z"/>
		<path class="st2" d="M206.9,359.2c-2,0-4-0.7-5.6-2.1l-4.6-4c-3.5-3.1-3.9-8.5-0.8-12c3.1-3.5,8.5-3.9,12-0.8l4.6,4
			c3.5,3.1,3.9,8.5,0.8,12C211.6,358.3,209.3,359.2,206.9,359.2z"/>
		<path class="st2" d="M514.2,544h-463c-16,0-31.3-5.1-44.3-14.6c-3.8-2.8-4.6-8.1-1.8-11.9c2.8-3.8,8.1-4.6,11.9-1.8
			c10,7.4,21.8,11.3,34.2,11.3h463c12.3,0,24.2-3.9,34.2-11.3c3.8-2.8,9.1-2,11.9,1.8c2.8,3.8,2,9.1-1.8,11.9
			C545.5,538.9,530.2,544,514.2,544z"/>
	</g>
</g>
<g id="レイヤー_4">
	<path class="st2" d="M58.7,225c-4.7,0-8.5-3.8-8.5-8.5V8.5C50.2,3.8,54,0,58.7,0h448c4.7,0,8.5,3.8,8.5,8.5v206
		c0,4.7-3.8,8.5-8.5,8.5s-8.5-3.8-8.5-8.5V17h-431v199.5C67.2,221.2,63.4,225,58.7,225z"/>
	<path class="st2" d="M149.2,131h-38c-4.7,0-8.5-3.8-8.5-8.5v-38c0-4.7,3.8-8.5,8.5-8.5h38c4.7,0,8.5,3.8,8.5,8.5v38
		C157.7,127.2,153.9,131,149.2,131z M119.7,114h21V93h-21V114z"/>
	<path class="st2" d="M149.2,223h-38c-4.7,0-8.5-3.8-8.5-8.5v-38c0-4.7,3.8-8.5,8.5-8.5h38c4.7,0,8.5,3.8,8.5,8.5v38
		C157.7,219.2,153.9,223,149.2,223z M119.7,206h21v-21h-21V206z"/>
	<path class="st2" d="M149.2,309c-4.7,0-8.5-3.8-8.5-8.5V277h-25.5c-4.7,0-8.5-3.8-8.5-8.5s3.8-8.5,8.5-8.5h34
		c4.7,0,8.5,3.8,8.5,8.5v32C157.7,305.2,153.9,309,149.2,309z"/>
	<path class="st2" d="M437.2,131h-250c-4.7,0-8.5-3.8-8.5-8.5v-38c0-4.7,3.8-8.5,8.5-8.5h250c4.7,0,8.5,3.8,8.5,8.5v38
		C445.7,127.2,441.9,131,437.2,131z M195.7,114h233V93h-233V114z"/>
	<path class="st2" d="M437.2,223h-250c-4.7,0-8.5-3.8-8.5-8.5v-38c0-4.7,3.8-8.5,8.5-8.5h250c4.7,0,8.5,3.8,8.5,8.5v38
		C445.7,219.2,441.9,223,437.2,223z M195.7,206h233v-21h-233V206z"/>
	<path class="st2" d="M403.2,315h-216c-4.7,0-8.5-3.8-8.5-8.5v-38c0-4.7,3.8-8.5,8.5-8.5h250c4.7,0,8.5,3.8,8.5,8.5v8
		c0,4.7-3.8,8.5-8.5,8.5c-4.5,0-8.2-3.5-8.5-8h-233v21h207.5c4.7,0,8.5,3.8,8.5,8.5S407.9,315,403.2,315z"/>
</g>
</svg>
