<?xml version="1.0" encoding="utf-8"?>
<!-- Generator: Adobe Illustrator 25.2.1, SVG Export Plug-In . SVG Version: 6.00 Build 0)  -->
<svg version="1.1" id="レイヤー_3" xmlns="http://www.w3.org/2000/svg" xmlns:xlink="http://www.w3.org/1999/xlink" x="0px"
	 y="0px" viewBox="0 0 538.6 492.2" style="enable-background:new 0 0 538.6 492.2;" xml:space="preserve">
<style type="text/css">
	.st0{fill:#F5E532;}
	.st1{fill:#FFFFFF;}
	.st2{fill:#021F59;}
</style>
<rect x="113" y="9.2" class="st0" width="361" height="250.9"/>
<rect x="18.8" y="318.8" class="st0" width="229.2" height="148.3"/>
<rect x="386.8" y="318.8" class="st0" width="110.1" height="159.2"/>
<rect x="463.9" y="363.9" class="st0" width="68.4" height="97.5"/>
<path class="st1" d="M78,381.3l43,49.9c0,0,22.1-11,26.6-13.5s35.4-67.5,38.4-70.5s33-40.3,33-40.3l-12-12L176,312l-23,19.2l-32,28
	l-30-15l-13,15V381.3z"/>
<path class="st1" d="M234.8,118.9l43,49.9c0,0,22.1-11,26.6-13.5s35.4-67.5,38.4-70.5s33-40.3,33-40.3l-12-12l-31,17.1l-23,19.2
	l-32,28l-30-15l-13,15V118.9z"/>
<path class="st2" d="M379.7,42.4c-0.4-2.2-1.8-4.2-3.9-5.1l-11.7-5.5c-2-1-4.4-0.9-6.4,0.2c-12.5,6.9-25.3,17.3-37,28.1
	c-9.5-5.6-20.5-8.9-32.3-8.9c-35,0-63.3,28.3-63.3,63.3s28.3,63.3,63.3,63.3s63.3-28.3,63.3-63.3c0-10-2.3-19.5-6.5-27.9
	c17.5-23.2,32.2-37.8,32.5-38.1C379.3,47,380,44.7,379.7,42.4z M293,163.1l-11.5,0.2l-48.3-54.6l16.6-15.8l32.7,19.1
	c0,0,0.2-0.3,0.6-0.7c3.1-4.2,6.7-8.5,10.9-13.1c14.9-17.2,42-46.1,67.1-60.1l11.7,5.5C372.8,43.6,319.3,96.3,293,163.1z"/>
<path class="st2" d="M472.4,0H112.5c-4.7,0-8.5,3.8-8.5,8.5v254.4c0,4.7,3.8,8.5,8.5,8.5h150.1v23.4h-20.7c0.3,0.9,0.5,1.8,0.6,2.7
	c0.8,5,0.1,10-2,14.4h29.3c0.4,0.1,0.8,0.1,1.2,0.1h42.7c0.4,0,0.8,0,1.2-0.1h44.5c5.3,0,9.6,0.5,9.6-4.8s-4.3-12.3-9.6-12.3h-37.2
	v-23.4h150.1c4.7,0,8.5-3.8,8.5-8.5V8.5C480.9,3.8,477.1,0,472.4,0z M305.3,294.9h-25.7V273h25.7V294.9z M463.9,254.4H121v-31.3
	h342.9V254.4z M463.9,206.1H121v-189h342.9V206.1z"/>
<path class="st2" d="M242.7,335.9v126H24.6v-126h31.5c2.9-6.1,6.4-11.8,10.5-17H16.1c-4.7,0-8.5,3.8-8.5,8.5v143
	c0,2.5,1.1,4.8,2.8,6.3c-3.5,2.1-5.9,6.8-5.9,10.7c0,5.3,4.3,4.8,9.6,4.8h237.1c5.3,0,9.6,0.5,9.6-4.8c0-3.6-1.9-7.7-4.8-10
	c2.3-1.5,3.8-4.1,3.8-7.1v-143c0-4.7-3.8-8.5-8.5-8.5h-15.6c-0.9,0.9-6.9,7-15.4,17L242.7,335.9L242.7,335.9z"/>
<path class="st2" d="M227.2,300.2c-0.5-2.7-2.2-5.1-4.8-6.3l-11.7-5.5c-2.5-1.2-5.4-1.1-7.8,0.3c-11.5,6.4-23.4,15.7-34.3,25.6
	c-10-5.9-21.7-9.3-34.3-9.3c-37.4,0-67.6,30.3-67.6,67.6c0,37.4,30.3,67.6,67.6,67.6c37.4,0,67.6-30.3,67.6-67.6
	c0-10.9-2.6-21.1-7.1-30.2c16.3-21.2,29.6-34.4,29.8-34.7C226.7,305.7,227.6,302.9,227.2,300.2z M208.5,308.4c0,0-0.4,0.3-1,0.7
	c-30.6,22.3-71.8,104.6-72.6,106.2c-0.3,0.7-0.9,1.3-1.6,1.8c-0.7,0.4-1.5,0.6-2.2,0.6c-1.2,0-2.3-0.5-3.1-1.4l-42.1-46
	c-0.8-0.8-1.2-1.9-1.1-3.1c0.1-1.1,0.6-2.2,1.4-3l6.6-5.9c1.3-1.2,3.3-1.4,4.8-0.6l28.8,15.3c9.3-13.6,24.6-29.4,45.7-47.1
	c14.4-12.1,27-21.2,30.6-23.8c0.3-0.2,0.7-0.5,1-0.7c1.9-1.3,4.6-0.9,5.9,1.1C210.9,304.4,210.4,307.1,208.5,308.4z"/>
<path class="st2" d="M538.5,397.6c-0.1-0.9-0.7-1.6-1.5-2l-3.6-1.7c-0.8-0.4-1.7-0.3-2.4,0.1c-9.2,5.1-18.3,17.1-22.2,22.6l-8.3-9.4
	c-0.5-0.5-1.1-0.9-1.9-0.9c-0.7,0-1.4,0.2-1.9,0.7l-6.3,6c-1,0.9-1.1,2.5-0.2,3.6l15.2,18.9c0.5,0.6,1.3,1,2.1,1h0.1l5.5-0.2
	c1.1,0,2.1-0.8,2.4-1.8c6.8-20.4,22-34.4,22.1-34.5C538.4,399.3,538.7,398.5,538.5,397.6z"/>
<path class="st2" d="M454.3,381.3c-11.5,6.4-23.2,24.6-23.2,24.6l-10.5-12l-6.3,6l15.2,18.9l5.5-0.2c7.1-21.3,22.8-35.6,22.8-35.6
	L454.3,381.3z"/>
<path class="st2" d="M528.2,388.8c1.3-0.7,2.7-1.1,4.1-1.1v-21.3c0-4.7-3.8-8.5-8.5-8.5h-16.3v-42.5c0-4.7-3.8-8.5-8.5-8.5H384.3
	c-4.7,0-8.5,3.8-8.5,8.5v165.9c0,4.7,3.8,8.5,8.5,8.5H499c4.7,0,8.5-3.8,8.5-8.5v-11.1h16.3c4.7,0,8.5-3.8,8.5-8.5v-46.5
	c-4,5.5-8.3,12.7-11.1,21.1c-0.9,2.8-3.2,4.8-5.9,5.5v11.4h-7.8h-17h-15.6V375h15.6h17h7.8v24.4
	C519.1,395.3,523.6,391.4,528.2,388.8z M490.5,358h-24.1c-4.7,0-8.5,3.8-8.5,8.5v7.1l0,0l3.6,1.7c2.6,1.2,4.4,3.6,4.8,6.4
	c0.4,2.8-0.6,5.6-2.7,7.6c-0.1,0-2.5,2.3-5.8,6.3v66.1c0,4.7,3.8,8.5,8.5,8.5h24.1v2.7h-97.7V324h97.7v34H490.5z"/>
</svg>
