<?xml version="1.0" encoding="utf-8"?>
<!-- Generator: Adobe Illustrator 25.2.1, SVG Export Plug-In . SVG Version: 6.00 Build 0)  -->
<svg version="1.1" id="レイヤー_1" xmlns="http://www.w3.org/2000/svg" xmlns:xlink="http://www.w3.org/1999/xlink" x="0px"
	 y="0px" viewBox="0 0 65 53.3" style="enable-background:new 0 0 65 53.3;" xml:space="preserve">
<style type="text/css">
	.st0{fill:#FFFFFF;}
	.st1{fill:#BFBFBF;}
	.st2{fill:#FF2980;}
	.st3{fill:#021F59;}
</style>
<polygon class="st0" points="7.3,52 7.3,18 3,16.2 9,12.9 12.7,6.9 15.6,12.7 22.6,12.5 23,12.5 23,7.2 20.7,4.9 23.5,2.3 24.8,3.1 
	46.1,3 48.9,11.6 45.1,11.6 43.5,8.5 28.6,8.7 27.7,11.6 63.8,12.2 63.8,52 "/>
<circle class="st1" cx="35.9" cy="32.4" r="11.9"/>
<circle class="st2" cx="56" cy="43.9" r="2.1"/>
<g id="service-6" transform="translate(-2.1 -16.3)">
	<path id="Trazado_239" class="st3" d="M37.8,61.9C45.1,61.9,51,56,51,48.7c0-7.3-5.9-13.2-13.2-13.2c-7.3,0-13.2,5.9-13.2,13.2
		C24.7,56,30.6,61.9,37.8,61.9z M37.8,37.3c6.3,0,11.4,5.1,11.4,11.4c0,6.3-5.1,11.4-11.4,11.4S26.4,55,26.4,48.7
		C26.5,42.4,31.6,37.3,37.8,37.3z"/>
	<path id="Trazado_240" class="st3" d="M21.7,48.7c0,8.9,7.2,16.1,16.1,16.1c8.9,0,16.1-7.2,16.1-16.1s-7.2-16.1-16.1-16.1
		C28.9,32.6,21.7,39.8,21.7,48.7L21.7,48.7z M37.8,34.3c7.9,0,14.4,6.4,14.4,14.4s-6.4,14.4-14.4,14.4s-14.4-6.4-14.4-14.4
		C23.5,40.8,29.9,34.4,37.8,34.3z"/>
	<path id="Trazado_241" class="st3" d="M60.9,60.1c0-1.6-1.3-2.8-2.8-2.8s-2.8,1.3-2.8,2.8s1.3,2.8,2.8,2.8l0,0
		C59.6,62.9,60.9,61.7,60.9,60.1z M58.1,59c0.6,0,1.1,0.5,1.1,1.1c0,0.6-0.5,1.1-1.1,1.1c-0.6,0-1.1-0.5-1.1-1.1
		C57,59.5,57.5,59,58.1,59z"/>
	<path id="Trazado_242" class="st3" d="M13.9,43.6v0.6c0,0.5,0.4,0.9,0.9,0.9h0c0.5,0,0.9-0.4,0.9-0.9v-0.6
		c0.3-5.5,4.6-9.9,10.1-10.3c0.3,0,0.5,0,0.8,0c0.5,0,0.9-0.4,0.9-0.9v0c0-0.5-0.4-0.9-0.9-0.9c-0.3,0-0.5,0-0.8,0
		c-5.5-0.4-9.8-4.8-10.1-10.3v-0.6c0-0.5-0.4-0.9-0.9-0.9h0c-0.5,0-0.9,0.4-0.9,0.9v0.6c-0.3,5.5-4.6,9.9-10,10.3
		c-0.3,0-0.5,0-0.8,0c-0.5,0-0.9,0.4-0.9,0.9v0c0,0.5,0.4,0.9,0.9,0.9c0.3,0,0.5,0,0.8,0C9.2,33.7,13.6,38.1,13.9,43.6z M7.7,32.5
		c3.2-1.3,5.8-3.8,7-7c1.3,3.2,3.8,5.8,7,7c-3.2,1.3-5.8,3.8-7,7C13.5,36.3,10.9,33.8,7.7,32.5z"/>
	<path id="Trazado_243" class="st3" d="M21.5,22.1h0.3c1.7,0.1,2.9,1.5,2.9,3.2v0.1c0,0.2,0.1,0.4,0.2,0.6c0.2,0.2,0.4,0.3,0.6,0.3
		h0c0.4,0,0.8-0.3,0.9-0.8c0-0.1,0-0.2,0-0.3c0-1.8,1.5-3.2,3.3-3.2c0.5,0,0.9-0.4,0.9-0.9c0-0.5-0.4-0.9-0.9-0.9l0,0
		c-1.8,0-3.2-1.3-3.3-3.1c0,0,0-0.1,0-0.1c0-0.5-0.4-0.9-0.9-0.9h0c-0.5,0-0.9,0.4-0.9,0.9c0,1.7-1.3,3.1-2.9,3.2h-0.3
		c-0.5,0-0.9,0.4-0.9,0.9v0C20.6,21.8,21,22.1,21.5,22.1C21.4,22.1,21.5,22.1,21.5,22.1z M25.6,22.5c-0.2-0.3-0.4-0.5-0.6-0.7
		c-0.2-0.2-0.4-0.4-0.7-0.5c0.5-0.4,0.9-0.8,1.3-1.3c0.2,0.3,0.4,0.5,0.6,0.7c0.2,0.2,0.4,0.4,0.7,0.5C26.4,21.5,26,22,25.6,22.5
		L25.6,22.5z"/>
	<path id="Trazado_244" class="st3" d="M66.2,27.9H51.9l-2.5-8.6c-0.1-0.4-0.5-0.6-0.8-0.6l-18.1-0.1c-0.5,0-0.9,0.4-0.9,0.9
		c0,0.5,0.4,0.9,0.9,0.9c0,0,0,0,0,0l17.5,0.1l2.2,7.5H48l-1.1-3.6c-0.1-0.4-0.5-0.6-0.8-0.6l-15.3-0.1c-0.4,0-0.7,0.2-0.8,0.6
		L28.6,28h-2.5c0-0.3-0.3-0.6-0.6-0.8c-0.5-0.2-1,0.1-1.1,0.5L24.3,28h-3c-0.5,0-0.9,0.4-0.9,0.9c0,0.5,0.4,0.9,0.9,0.9h44v38.1h-55
		l0.1-30.2c0-0.5-0.4-0.9-0.9-0.9c0,0,0,0,0,0c-0.5,0-0.9,0.4-0.9,0.9L8.6,68.7c0,0.2,0.1,0.5,0.3,0.6c0.2,0.2,0.4,0.3,0.6,0.3h56.8
		c0.5,0,0.9-0.4,0.9-0.9v-40C67.1,28.3,66.8,27.9,66.2,27.9C66.3,27.9,66.2,27.9,66.2,27.9z M30.5,27.9l0.9-2.5l14,0.1l0.7,2.5
		L30.5,27.9z"/>
</g>
</svg>
