<?xml version="1.0" encoding="utf-8"?>
<!-- Generator: Adobe Illustrator 25.2.1, SVG Export Plug-In . SVG Version: 6.00 Build 0)  -->
<svg version="1.1" xmlns="http://www.w3.org/2000/svg" xmlns:xlink="http://www.w3.org/1999/xlink" x="0px" y="0px"
	 viewBox="0 0 740 500" style="enable-background:new 0 0 740 500;" xml:space="preserve">
<style type="text/css">
	.st0{fill:#FFFFFF;}
	.st1{fill:#979797;}
	.st2{fill:#F5E432;}
	.st3{fill:#00234C;}
</style>
<g id="色">
	<g id="ベクターレイヤー_5_">
		<path class="st0" d="M352.2,411.2c-0.9,0-1.8-0.1-2.7-0.2c-0.2,0-0.5-0.1-0.7-0.1c0,0-0.1,0-0.1,0c0,0,0,0,0,0
			c-1.5-0.1-3-0.4-4.4-1.1c-1.4-0.7-2.5-1.7-3.5-2.9c-0.3-0.4-0.6-0.8-0.9-1.2c-0.3-0.4-0.5-0.8-0.8-1.2c-1.7,0-3.5,0-5.2,0.2
			c0.2,0,0.3,0,0.5,0c-0.9,0.1-1.7,0.1-2.6-0.1c-0.9-0.1-1.7-0.5-2.6-0.9c-1-0.4-1.9-0.8-2.9-1.3c-1-0.4-1.9-1-2.9-1.5
			c-1.3-0.7-2.5-1.5-3.5-2.6c-1.8-1.9-2.6-4.3-3.1-6.8c-0.4-2.3-0.1-4.7,0.1-7c0.1-0.5,0.1-1.1,0.2-1.6c-2.5,0.7-4.9,1.5-7.5,1.8
			c-1.4,0.2-2.8,0.1-4.1-0.7c-0.9-0.5-1.6-1.4-2.2-2.2c-0.9-1.1-1.8-2.2-2.8-3.2c-0.7-0.7-1.3-1.4-2-2.1c-0.7-0.1-1.4-0.2-2.1-0.4
			c-1.7-0.5-3.2-1.4-4.5-2.6c-1.2-1.1-2.1-2.7-2.7-4.3c-0.6-1.6-0.9-3.2-1-4.9c0-0.6,0-1.1,0-1.7c-0.6,0.1-1.3,0.2-1.9,0.3
			c-0.3,0.1-0.6,0.1-0.9,0.2c-1,0.4-1.9,0.9-2.8,1.2c-1.4,0.5-2.9,0.7-4.4,0.5c-1.6-0.2-2.9-0.7-4.2-1.6c-2.2-1.5-3.8-3.5-5.6-5.5
			c-1.1-1.2-2.1-2.3-3-3.6c-1.7-2.6-2-6-1.5-9c0.2-1.8,0.8-3.5,1.4-5.1c-0.7-0.4-1.2-1.1-1.5-1.9c-0.4,0.1-0.8,0.1-1.1,0.2
			c-1.1,0.4-2.3,0.7-3.5,0.8c-1.1,0.1-2.1,0.2-3.2,0c-1.1-0.1-2.1-0.6-3.1-1.1c-0.5-0.3-1-0.6-1.4-1c-0.1,0-0.2-0.1-0.3-0.1
			c-1.1-0.3-1.9-1-2.8-1.7c-1.1-0.9-2-1.9-2.8-3c-1.3-0.5-2.3-1.8-2.3-3.3c0-0.7,0.1-1.5,0.2-2.2c-0.1-0.6-0.2-1.2-0.2-1.8
			c-0.2-1.8,0-3.4,0.6-5.1c0.3-0.9,0.9-1.8,1.5-2.5c0.5-0.7,1.1-1.4,1.8-2.1c0.9-0.8,1.9-1.5,2.9-2.1c1.2-0.6,2.4-1.2,3.8-1
			c1.1,0.2,2,0.9,2.6,1.8c0.1,0,0.2-0.1,0.3-0.1c0.1,0,0.1,0,0.2-0.1c0,0,0,0,0.1,0c0,0,0.1-0.1,0.1-0.1c0.1-0.1,0.2-0.2,0.3-0.4
			c1-1.6,1.9-3.3,2.7-4.9c0,0,0,0.1-0.1,0.1c0,0,0-0.1,0.1-0.1c0,0,0-0.1,0-0.1c0,0,0,0,0,0c0,0,0-0.1,0.1-0.1c0,0,0,0,0,0
			c0,0,0,0,0,0c1.5-3,3.1-6.1,4.7-9c1.6-3,3.2-6,4.8-9c0.9-1.9,1.9-3.8,2.7-5.7c0.9-2,1.6-4,2.4-6c0.8-2.1,1.6-4.2,2.5-6.2
			c0.9-2.1,1.8-4.1,2.6-6.3c0.7-2.2,1.3-4.4,2-6.6c0.6-2.1,1.3-4.3,1.8-6.5c0.5-2.4,1-4.8,1.5-7.2c0.5-2.6,0.9-5.2,1.1-7.8
			c0.2-2.6,0.3-5.2,0.6-7.8c0.3-2.5,0.7-4.9,0.9-7.4c0.1-1.3,0.1-2.6,0.2-3.9c0.1-1.5,0.1-2.9,0.4-4.4c0.2-1.4,0.6-2.8,1-4.1
			c0.2-0.6,0.4-1.2,0.6-1.8c0.3-0.6,0.6-1.2,0.9-1.8c0.2-0.4,0.4-0.8,0.5-1.2c0.1-0.2,0.1-0.5,0.2-0.7c0.1-0.3,0.1-0.5,0.2-0.8
			c0.2-0.8,0.8-1.7,1.5-2.2c1.1-0.8,2.3-1.3,3.6-1.8c1.5-0.6,3-1.1,4.5-1.5c3-0.9,6.1-1.3,9.2-1.7c3.1-0.4,6.2-0.7,9.3-1
			c3.2-0.4,6.4-0.3,9.6-0.5c3.6-0.3,7.1-0.7,10.7-0.9c1.7-0.1,3.3-0.2,5-0.1c2,0.1,3.9,0.4,5.8,0.9c1.7,0.5,3.3,1.5,4.8,2.4
			c1.5,1,2.8,2.2,4,3.4c0.1,0.1,0.2,0.2,0.3,0.3c0.1,0.1,0.1,0.1,0.2,0.2c0,0,0.1,0.1,0.1,0.1c0.8,0.9,1.5,1.8,2,2.8
			c0.6,1,1.1,2.1,1.7,3.1c0.7,1.3,1.3,2.7,1.9,4.1c0.3-0.2,0.6-0.5,0.9-0.8c1.2-1.1,2.3-2.3,3.4-3.5c1.3-1.3,2.7-2.6,4.1-3.8
			c2.5-2.1,5.1-4.1,7.5-6.2c1.1-0.9,2-1.9,3-3c1-1.1,2-2.1,3.1-3c-0.3-0.7-0.3-1.4-0.1-2.2c0.2-0.9,0.8-1.7,1.6-2.1
			c1.6-0.9,3.2-1.5,4.9-2.1c0.9-0.3,1.9-0.6,2.8-0.8c1.8-0.4,3.6-0.7,5.4-0.7c1.8,0,3.6,0.3,5.3,0.8c2.1,0.6,4,1.3,5.9,2.3
			c1.3,0.7,2.5,1.6,3.3,2.8c0,0,0,0.1,0.1,0.1c0.7,0.1,1.4,0.5,2,1c0.3,0.3,0.5,0.6,0.8,1c0.3,0.4,0.6,0.9,0.9,1.3c0,0,0,0,0,0
			c0.1,0.1,0.1,0.2,0.2,0.2c0,0,0,0.1,0.1,0.1c0.6,1,1.3,2,1.9,2.9c2,2.2,4.1,4.1,6.1,6.3c1.1,1.2,2.1,2.4,3.1,3.7
			c0.9,1.3,1.9,2.5,2.9,3.7c0.8,0.9,1.6,1.7,2.4,2.5c1.3,1.1,2.6,2.1,3.7,3.4c1.2,1.3,2.4,2.7,3.5,4.1c1.1,1.4,2.3,2.8,3.4,4.2
			c1,1.2,2,2.4,2.9,3.6c0,0,0,0,0,0c1.6,0,2.9,0.7,4.2,1.7c1.7,1.3,3,3,4,4.8c1.3,2.2,2,4.9,2.4,7.4c0.5,3.2,0.9,6.4,1.4,9.5
			c0.3,1.3,0.6,2.5,0.9,3.7c0.4,1.4,0.9,2.8,1.4,4.1c0,0,0,0.1,0,0.1c0.3,0,0.6,0,0.9,0.1c0.7,0.1,1.2,0.4,1.8,0.7
			c0.7,0.4,1.2,1,1.8,1.5c0.6,0.5,1.2,1.1,1.7,1.7c0.7,0.8,1.5,1.7,2.1,2.6c1,1.4,1.8,3,2.3,4.7c0.5,1.6,0.8,3.3,1.1,4.9
			c0.2,0.8,0.4,1.7,0.4,2.5c0.1,0.3,0.2,0.5,0.2,0.8c0.5,1.7,1.1,3.4,1.6,5.1c0.1,0.5,0.3,0.9,0.4,1.4c0.3,0.1,0.6,0.2,0.8,0.3
			c0.6,0.3,1.2,0.8,1.5,1.4c0.4,0.7,0.5,1.5,0.6,2.3c0-0.1,0-0.1,0-0.2c0.5,3.7,1,7.3,1.6,11c0.3,2,0.3,4,0.4,6c0,0.8,0,1.7-0.1,2.5
			c-0.1,1.6-0.2,3.3-0.7,4.9c-0.4,1.4-1.8,2.5-3.2,2.6c-0.9,3.5-2,6.9-3,10.4c-0.1,0.5-0.3,0.9-0.4,1.4c0.4,0.6,0.6,1.2,0.6,1.9
			c0,0.6,0,1.2-0.1,1.8c-0.1,0.6-0.2,1.1-0.3,1.7c-0.1,0.7-0.4,1.4-0.6,2.1c-0.3,1.1-0.7,2.2-1,3.4c-0.5,1.8-1.1,3.6-1.7,5.4
			c-1.2,3.7-2.6,7.3-4,10.9c-0.6,1.7-1.4,3.3-2.2,4.9c-0.8,1.8-1.7,3.5-2.8,5.1c-0.6,0.9-1.3,1.8-2,2.7c-0.8,1-1.6,1.9-2.6,2.7
			c-0.2,0.1-0.4,0.3-0.6,0.4c-0.5,0.7-1,1.4-1.5,2.1c-0.5,0.6-0.9,1.2-1.5,1.8c-0.7,0.8-1.5,1.4-2.6,1.6c-0.9,0.2-1.9,0.1-2.7-0.4
			c-0.1-0.1-0.2-0.1-0.3-0.2c-0.1,0.1-0.2,0.3-0.3,0.4c-0.5,0.7-1.1,1.4-1.6,2.1c-0.8,1.1-1.7,2.2-2.7,3.2c-1.1,1.2-2.3,2.5-3.5,3.6
			c-0.5,0.4-0.9,0.9-1.4,1.3c-0.7,0.7-1.4,1.4-2.2,1.8c-0.6,0.3-1.3,0.5-2,0.5c0.1,1.1-0.4,2.3-1.3,3c-0.6,0.4-1.2,0.8-1.9,1.1
			c-0.7,0.4-1.4,0.8-2.1,1.2c0,0,0,0,0.1,0c-0.8,0.5-1.8,1-2.8,0.8c-0.7,0.2-1.4,0.5-2.1,0.7c-1.1,0.3-2.1,0.6-3.1,0.9
			c-1.8,0.5-3.7,1-5.5,1.4c-1,0.2-2,0.4-3,0.6c-1.3,0.3-2.7,0.5-4.1,0.5c-0.7,0-1.4-0.2-2-0.6c-0.5,1-1.2,1.9-1.9,2.7
			c-0.8,0.9-1.6,1.7-2.5,2.5c-0.9,0.8-2,1.3-3.1,1.7c-0.1,0.1-0.3,0.2-0.4,0.3c-1,0.8-2.2,1.2-3.4,1.6c-1.4,0.4-2.8,0.5-4.2,0.5
			c-1.2,0-2.4-0.2-3.5-0.8c-0.9,0-1.8,0-2.7,0c-1.2,0-2.3-0.7-3-1.7c-0.7-0.2-1.4-0.4-2.1-0.6c-0.2-0.1-0.4-0.1-0.6-0.2
			c-1.2-0.3-2.4-0.6-3.5-1.2c-0.3-0.2-0.6-0.3-0.9-0.6c-0.2,0-0.4-0.1-0.5-0.1c-0.1,0-0.1,0-0.2,0c-0.1,0-0.2,0-0.3,0
			c-0.1,0-0.2,0.1-0.4,0.1c-0.1,0.1-0.3,0.1-0.4,0.2c-0.2,0.1-0.4,0.2-0.5,0.3c-0.5,0.4-1,0.7-1.4,1.1c-1.6,1.5-3.3,3.1-5.3,4
			c-1.5,0.7-3,1.1-4.6,1.6c-2.5,0.7-5.1,1.1-7.7,1.2c-0.5,0-0.9,0-1.4,0c-0.1,0-0.2,0-0.4,0c-0.8,0.1-1.6,0.1-2.3,0.1
			C352.4,411.2,352.3,411.2,352.2,411.2z M250.9,327.6C250.9,327.6,250.9,327.6,250.9,327.6c0.2-0.5,0.4-1,0.6-1.5
			C251.3,326.6,251.1,327.1,250.9,327.6z"/>
	</g>
	<g id="ベクターレイヤー_4_">
		<path class="st1" d="M218,354.2c-0.5-0.1-0.9-0.2-1.4-0.4c-2.1-0.6-4.1-1.3-6.2-2c-2.1-0.7-4-1.5-6-2.5c-1.8-0.9-3.6-2-5.4-3
			c-2.9-1.5-5.9-2.8-8.9-4c-6.7-2.4-13.4-4.7-20.1-7.1c-3.5-1.3-6.9-2.6-10.3-4c-3.3-1.4-6.7-2.6-10-3.9c-3.7-1.5-7.3-3.2-10.7-5.3
			c-3.4-2.1-6.9-4.1-10.5-6c0,0,0,0,0,0c-2.6-1.3-5.2-2.7-7.9-3.9c-2.6-1.2-5.2-2.4-7.7-3.6c-2.6-1.2-5.3-2.4-8-3.4
			c-2.6-1-5.2-2-7.8-2.9c0,0,0,0,0,0c-7-2.5-14-4.8-21-7.4c-3.5-1.3-6.9-2.5-10.4-3.8c-3.3-1.2-6.5-2.6-9.6-4.1
			c-3.3-1.6-6.6-3.3-9.6-5.4c-1.5-1-3-2.1-4.2-3.5c-0.1-0.1-0.2-0.2-0.3-0.4c-0.7,0.9-1.8,1.5-2.9,1.5c-0.1,0-0.1,0-0.1,0
			c-2-0.1-3.3-1.7-3.3-3.7c0-11.1-0.1-22.3-0.1-33.4c-0.1-15.6-0.1-31.1-0.2-46.7c-0.1-15.4-0.1-30.8-0.2-46.2
			c-0.1-15-0.1-29.9-0.2-44.9c0-12.6-0.1-25.1-0.1-37.7c0-1.9,1.8-3.4,3.7-3.3c2,0.1,3.3,1.7,3.3,3.7c0,1.4,0,2.9,0,4.3
			c0,0,0.1,0,0.1,0c1.3,0.8,2.6,1.7,3.8,2.6c0.6,0.4,1.2,0.8,1.7,1.2c2.2,0.7,4.4,1.2,6.6,2c1.4,0.5,2.5,1.7,2.6,3.1
			c0.4,0.2,0.8,0.4,1.1,0.7c1.5,0.9,2.9,1.7,4.4,2.5c0.2-0.1,0.5-0.2,0.7-0.3c0.9-0.2,1.9-0.1,2.9,0c0.8,0.1,1.6,0.3,2.3,0.4
			c1,0.2,2,0.4,2.9,0.7c1.8,0.5,3.6,1.1,5.4,1.7c1,0.4,2.1,0.9,3,1.4c1,0.5,2,1,3.1,1.6c2.1,1,4.2,1.8,6.4,2.5
			c2.1,0.8,4.3,1.6,6.3,2.6c2.1,1,4.2,2.1,6.2,3.5c0.9,0.6,1.8,1.3,2.7,2c0.9,0.7,1.7,1.4,2.5,2.2c0.8,0.6,1.6,1.2,2.4,1.8
			c2.4,1.6,5,3,7.6,4.3c2.2,1.1,4.4,2.1,6.5,3.2c2.1,1,4.2,2,6.3,3.1c1.1,0.6,2.2,1.2,3.4,1.8c1.1,0.6,2.2,1.1,3.3,1.7
			c2.2,1.2,4.3,2.7,6.5,4.1c2,1.3,4.1,2.3,6.2,3.4c2,1,4,1.8,5.9,2.7c2.2,1,4.3,2.2,6.5,3.3c1.6,0.8,3.3,1.5,5,2.3
			c1.8,0.8,3.6,1.4,5.4,2.1c1.9,0.8,3.7,1.7,5.5,2.7c1.8,1,3.5,2.3,5.2,3.5c3.1,2,6.4,3.6,9.6,5.2c3.2,1.7,6.1,4,9,6.1
			c1.2,0.7,2.4,1.4,3.6,2c1,0.5,2,0.9,3.1,1.3c2.2,0.7,4.5,1.4,6.7,2.1c2.2,0.8,4.5,1.8,6.5,3.1c1.9,1.2,3.8,2.5,5.7,3.7
			s3.9,2.3,5.9,3.4c1,0.5,2,1,3.1,1.5c1.3,0.6,2.6,1.1,3.8,1.8c2.3,1.2,4.2,2.8,6.3,4.3c1,0.7,2,1.2,3.1,1.8
			c2.8,1.3,5.8,2.4,8.6,3.8c1.5,0.7,2.9,1.5,4.3,2.4c1.3,0.8,2.6,1.7,3.8,2.6c1.2,0.8,2.4,1.5,3.7,2.2c1.2,0.7,2.4,1.3,3.6,1.9
			c2.6,1.4,5.1,3,7.5,4.6c1.6,1,3.2,1.9,4.7,3.1c0.9,0.7,1.7,1.5,2.5,2.4c0.6,0.7,1,1.5,1,2.5c0,0.2,0,0.5-0.1,0.7
			c0.1,0.4,0.1,0.9,0.1,1.3c0.1,1.9,0.1,3.8,0.2,5.7c0.1,1.7,0.2,3.3,0.2,5c0,2,0,4-0.3,6c-0.2,1.8-0.6,3.6-1,5.3
			c-0.4,1.8-0.8,3.5-1.3,5.2c-0.5,1.8-0.9,3.6-1.3,5.4c-0.4,1.7-0.8,3.4-1.3,5c-0.9,2.7-2,5.3-3,7.9c-0.9,2.5-1.9,4.9-2.8,7.4
			c-0.6,1.6-1.1,3.3-1.6,5c-0.5,1.7-0.9,3.4-1.4,5.1c-0.5,1.8-1.1,3.6-1.8,5.4c-0.6,1.6-1.4,3.2-2.1,4.8c-0.7,1.6-1.3,3.2-1.9,4.9
			c-0.7,1.8-1.5,3.5-2.3,5.1c-1.6,3.1-3.3,6.1-5,9.1c-1.3,2.2-2.4,4.5-3.7,6.8c-0.8,1.4-1.7,2.7-2.7,3.9c-0.6,0.7-1.3,1.3-2.1,1.9
			c-0.6,0.4-1.3,0.8-2.1,1.1c-0.4,0.2-0.9,0.5-1.3,0.7c-0.2,0.2-0.5,0.4-0.7,0.6c-0.3,0.3-0.5,0.5-0.8,0.8c-0.2,0.3-0.4,0.6-0.6,0.8
			c-0.9,1.3-1.7,2.6-2.5,3.9c-1,1.5-2,3-2.9,4.6c-0.2,0.5-0.4,0.9-0.6,1.4c-0.6,1.8-1.1,3.6-1.5,5.4c1.2,0.7,1.9,2.1,1.7,3.5
			c-0.1,0.5-0.2,1-0.4,1.5c-0.1,0.4-0.3,0.9-0.5,1.3c-0.2,0.3-0.4,0.5-0.6,0.7c-0.2,0.2-0.3,0.4-0.5,0.6c-0.1,0.1-0.2,0.3-0.2,0.4
			c-0.8,1.5-1.8,2.8-2.9,4c-1.4,1.5-3,3-4.4,4.6c-1.7,2-3.2,4.3-5.1,6.2c-1,0.9-2,1.8-3.2,2.6c-0.9,0.6-2,1.1-3,1.2
			c-0.1,0-0.3,0-0.4,0C219.9,356.2,218.6,355.4,218,354.2z"/>
		<path class="st2" d="M483,364.3c-1.8-0.1-3.6-0.5-5.4-1c-0.9-0.3-1.9-0.5-2.8-0.8c-1.7-0.6-3.5-1.5-4-3.3c-0.4-1.4,0-2.8,0.8-4
			c0.4-0.6,0.9-1.2,1.3-1.8c0.3-0.4,0.6-0.9,0.8-1.3c-0.1-1.3-0.2-2.6-0.2-3.9c-0.1-1.2-0.1-2.4-0.1-3.7c0-2.2,0-4.7,1.5-6.5
			c0.7-0.9,1.7-1.3,2.8-1.5c0.2,0,0.4,0,0.6,0c0.3-1,0.7-2,1.1-2.9c0.4-1.1,1.4-1.8,2.6-2.1c0.2-0.4,0.4-0.7,0.5-1.1
			c0.1-0.2,0.3-0.4,0.4-0.6c-0.1-0.3-0.3-0.6-0.4-0.9c-0.1-0.5-0.2-1.1-0.3-1.7c-0.1-1.2-0.1-2.4-0.1-3.6c0-0.6,0-1.3,0-2
			c0-2-0.1-4-0.1-6c0-1.8,0-3.5,0-5.2c-0.3-3.4-0.6-6.8-1-10.2c-0.4-3.1-0.7-6.1-1-9.2c-0.2-2.2-0.4-4.3-0.6-6.5
			c-0.1-0.9-0.1-1.8-0.1-2.6c0-0.9,0-1.7,0.1-2.6c0.1-0.8,0.3-1.6,0.6-2.4c0.2-0.6,0.7-1.1,1.1-1.5c-1-1.8-1.9-3.6-2.9-5.4
			c-0.8-1.5-1.6-2.9-2.4-4.4c-1.2-0.9-2.3-1.8-3.5-2.7c-0.7-0.5-1.3-0.9-2-1.3c-0.6-0.3-1-0.6-1.5-1.1c-0.3-0.4-0.6-0.8-0.8-1.2
			c-0.4-0.8-0.8-1.6-1.2-2.4c-0.7-1.6-1.3-3.2-2-4.8c-0.4-1.1-0.9-2.2-1.3-3.3c-0.2-0.3-0.5-0.6-0.6-1c-0.3-0.7-0.5-1.5-0.8-2.2
			c-0.3-1.2-0.6-2.5-0.9-3.7c-0.2-1.1-0.3-2.2-0.3-3.3c0-1.3,0.1-2.5,0.4-3.7c0.2-1.2,1-2.4,2-3.3c0.5-0.7,1-1.4,1.7-1.9
			c0.2-0.1,0.3-0.3,0.5-0.4c0.4-0.4,0.8-0.8,1.4-1c1-0.4,2.1-0.5,3-0.1c0.7,0.3,1.2,0.8,1.6,1.4c0.2,0.1,0.5,0.1,0.7,0.2
			c0,0,0,0,0,0c0-0.1,0-0.2,0.1-0.3c0.4-1.3,1.5-2.4,2.9-2.5c0.4,0,0.9-0.1,1.3-0.1c0-0.1,0.1-0.1,0.1-0.2c0.7-0.9,1.7-1.3,2.8-1.4
			c1.5-0.1,2.9,0,4.4,0c1.8,0,3.5,0.1,5.3,0.2c0.5,0,1,0,1.6,0.1c0.6,0.1,1.1,0.3,1.6,0.6c0.1,0.1,0.2,0.1,0.4,0.2
			c0.5-0.2,1.1-0.2,1.7-0.1c0.2-1,0.8-1.9,1.7-2.4c1.1-0.7,2.2-1,3.4-1.3c0.8-0.2,1.5-0.4,2.3-0.7c1.2-0.3,2.3-0.7,3.5-1
			c1-0.3,2.1-0.6,3.1-0.8c1.5-0.8,3-1.6,4.5-2.4c2.4-1.3,4.8-2.4,7.2-3.6c1.6-0.8,3.1-1.5,4.7-2.3c1.6-0.8,3.2-1.5,4.9-2.1
			c1.5-0.6,3.1-1,4.7-1.4c1.7-0.5,3.2,0.4,4,1.7c1.3-0.5,2.6-0.9,3.9-1.4c0,0,0,0,0,0c0.9-0.3,1.8-0.6,2.7-0.9
			c1.7-1.2,3.4-2.4,5.2-3.6c0.6-0.4,1.2-0.9,1.8-1.3c0-0.7,0.3-1.4,0.6-2c0.4-0.8,1.4-1.4,2.1-2c0.9-0.8,1.9-1.5,2.9-2.3
			c0.8-0.6,1.5-1.1,2.3-1.7c1.2-0.9,2.5-1.8,3.8-2.6c1.9-1.1,4-2.2,6.2-2.5c0.5-0.1,1.1-0.1,1.6-0.1c2.9-0.7,5.8-1.2,8.7-1.9
			c3-0.7,6-1.4,9-2.1c0.3-0.4,0.8-0.7,1.2-0.9c0,0,0.1,0,0.1-0.1c0.2-0.2,0.4-0.4,0.6-0.6c0.4-0.3,0.8-0.6,1.3-0.9
			c0.8-0.4,1.6-0.7,2.4-1c1-0.4,2-0.8,3-1.2c2.1-0.7,4.2-1.5,6.3-2.1c1.1-0.3,2.3-0.7,3.4-1c0.9-0.3,1.9-0.5,2.8-0.7
			c1.4-0.3,2.7-0.6,4.1-0.9c1.4-0.3,2.8-0.5,4.3-0.7c1.1-0.1,2.1-0.2,3.1-0.1c0.3-0.7,0.8-1.2,1.3-1.8c0.9-1.7,2.2-3.1,3.7-4.3
			c0.8-0.6,1.7-1.3,2.7-1.7c0.9-0.4,2-0.8,3.1-0.8c0.5-0.3,1-0.6,1.5-0.8c1-0.5,2.2-0.7,3.3-0.9c0.3-0.1,0.7-0.1,1-0.1
			c0.6-0.4,1.3-0.8,1.9-1.1c0.9-0.4,1.9-0.6,2.9-0.9c1.1-0.2,2.2-0.4,3.3-0.5c1.1,0,2.3,0,3.4,0.3c1.5-0.9,3-1.8,4.5-2.7
			c2.6-1.5,5.1-3,7.7-4.5c3.2-1.9,6.4-3.8,9.8-5.3c1.2-0.5,2.4-0.3,3.4,0.4c0.1-0.1,0.2-0.1,0.3-0.2c1.1-0.6,2.2-1.1,3.3-1.7
			c0.3-0.1,0.5-0.3,0.8-0.4c0.8-0.6,1.7-1.1,2.7-1.5c-0.1,0-0.1,0.1-0.2,0.1c0.1,0,0.1-0.1,0.2-0.1c0.1,0,0.1-0.1,0.2-0.1
			c-0.1,0-0.1,0.1-0.2,0.1c1.2-0.6,2.3-1.2,3.5-1.8c1-0.5,1.9-1,2.9-1.4c0.2-0.1,0.4-0.2,0.6-0.2c0.1,0,0.1-0.1,0.2-0.1
			c0.7-0.5,1.5-1,2.3-1.4c0.2-0.1,0.4-0.2,0.6-0.3c0,0,0-0.1,0-0.1c0.2-1.7,1.8-3,3.5-3c1.4,0,2.7,0.9,3.2,2.2
			c0.3-0.1,0.6-0.1,0.9-0.1c1.9,0,3.5,1.6,3.5,3.5c0,0.2,0,0.4,0,0.5c0.1,3,0.2,6,0.2,9.1c0.2,7.4,0.4,14.9,0.6,22.3
			c0.4,15.3,0.8,30.7,1.2,46.1c0.4,15.4,0.8,30.8,1.3,46.2c0.2,7.7,0.4,15.4,0.6,23.1c0,1.9-1.6,3.5-3.5,3.5c0,0,0,0,0,0
			c-1.3,0-2.4-0.7-3-1.7c-0.1,0.1-0.3,0.1-0.4,0.1c-1.6,0.4-3.2,0.8-4.8,1.3c-0.7,0.3-1.4,0.6-2.1,0.9c-1.5,0.8-3,1.7-4.5,2.6
			c-1.6,1-3.3,1.9-5,2.8c-1.9,1-3.8,2-5.7,2.8c-1.9,0.8-3.8,1.3-5.7,1.9c-0.7,0.3-1.4,0.6-2.1,0.9c-3.8,1.9-7.3,4.3-11.1,6.2
			c-2.1,1.1-4.2,2-6.3,2.9c-2.1,0.8-4.2,1.5-6.3,2.2c-1.6,0.6-3.2,1.2-4.8,2c-1.3,0.7-2.6,1.4-3.9,2.2c-1.4,0.9-2.9,1.8-4.3,2.8
			c-2.6,1.6-5.4,3-8.2,4.2c-1.5,0.7-3.1,1.4-4.7,1.8c-1.6,0.5-3.2,0.9-4.8,1.3c-3.3,0.8-6.6,1.5-9.9,2.5c-3.2,1.2-6.4,2.3-9.7,3.4
			c-1.7,0.5-3.4,1.1-5.2,1.6c-1.6,0.4-3.2,0.7-4.8,1.1c-2.7,0.6-5.4,1.2-8,2c-1,1.1-2.3,2-3.7,2.6c-0.7,0.3-1.4,0.4-2,0.6
			c-0.9,0.3-2,0.4-2.9,0.4c-1.1,0.1-2.1,0.2-3.2,0.4c-0.1,0-0.3,0.1-0.4,0.1c-2.4,0.8-4.8,1.7-7.3,2.4c-0.3,0.1-0.6,0.3-0.9,0.4
			c-1.6,0.7-3.2,1.3-4.8,2.1c-1.5,0.8-3,1.6-4.5,2.3c-1.5,0.7-3.1,1.1-4.8,1.5c-3.6,0.8-7.1,1.1-10.8,1.4c-0.8,0.1-1.6,0.1-2.3,0.1
			c-1.4,0-2.9,0-4.2-0.5c-1-0.3-1.7-0.8-2.4-1.5c-0.4-0.4-0.6-0.8-0.8-1.2c-1.2,0.3-2.5,0.5-3.8,0.7c-1.6,0.2-3.2,0.4-4.7,0.7
			c-0.8,0.2-1.5,0.4-2.3,0.6c-3.3,1.2-6.4,2.8-9.6,4.2c-1.7,0.8-3.5,1.3-5.3,1.8c-1.5,0.5-3,0.9-4.6,1.4c-1.7,0.5-3.5,0.9-5.3,1.2
			c-1.5,0.2-3,0.4-4.5,0.4C483.7,364.3,483.3,364.3,483,364.3z"/>
	</g>
</g>
<g id="輪郭線">
	<g>
		<path class="st3" d="M398.1,236.6C398.1,236.6,398,236.6,398.1,236.6C398,236.6,398,236.6,398.1,236.6
			C398,236.6,398,236.6,398.1,236.6z"/>
		<path class="st3" d="M374.8,369.1C374.8,369.1,374.8,369.1,374.8,369.1C374.8,369.1,374.8,369.1,374.8,369.1
			C374.8,369.1,374.8,369.1,374.8,369.1z"/>
		<path class="st3" d="M614.9,335.9c0,0-0.1,0-0.1,0c-0.1,0-0.1,0-0.2,0.1C614.7,335.9,614.8,335.9,614.9,335.9z"/>
		<path class="st3" d="M707,290.9c-0.5-1.2-2-1.9-3.3-1.3c-1.7,0.7-3.2,1.6-4.9,2.4c-2,1-4,1.9-6,2.9c-2.1,1-4.2,1.9-6.3,2.9
			c-2.1,1.1-4.1,2.2-6.2,3.3c-2,1-3.9,2.1-5.9,3.1c-4.8,2.3-9.8,4.5-14.6,6.9c-2.3,1.1-4.6,2.2-6.9,3.2c-2.6,1.1-5.2,2.2-7.8,3.4
			c-2.3,1-4.7,2-7.1,2.9c-1.4,0.5-2.8,1.1-4.1,1.6c-1.2,0.5-2.3,0.9-3.5,1.5c-2.4,1.2-4.9,2.4-7.3,3.5c-2.4,1.1-4.8,2.1-7.3,3
			c0.1,0,0.2-0.1,0.2-0.1c-1.1,0.4-2.1,0.7-3.2,1.1c0.1,0,0.2-0.1,0.3-0.1c-2.7,0.9-5.5,1.8-8.2,2.7c-2.6,0.8-5.3,1.4-8,2
			c-2.6,0.6-5.1,1.4-7.7,2.2c-1.2,0.4-2.4,0.8-3.6,1.2c-1.3,0.4-2.7,0.8-3.9,1.3c-1.3,0.5-2.5,0.9-3.8,1.5c-1.3,0.6-2.5,1.2-3.8,1.8
			c-2.7,1.2-5.3,2.4-8.1,3.4c-2.3,0.7-4.6,1.1-6.9,1.6c-1.7,0.4-3.3,0.9-5,1.5c0,0,0,0,0.1,0c-1.3,0.4-2.6,0.9-3.9,1.2
			c-1.4,0.3-2.7,0.5-4.1,0.9c-1.3,0.4-2.5,0.8-3.7,1.1c-1.2,0.3-2.4,0.6-3.6,0.9c-0.9,0.2-1.9,0.3-2.8,0.4c-0.6,0-1.1,0-1.7,0
			c-0.4,0-0.7-0.1-1.1-0.1c-0.8-0.2-1.6-0.5-2.5-0.7c-1.3-0.3-2.6-0.5-4-0.3c-1.3,0.2-2.6,0.4-3.9,0.6c-1.3,0.2-2.7,0.3-4,0.5
			c-1.3,0.2-2.7,0.3-4,0.5c-1.2,0.2-2.4,0.5-3.7,0.6c-1.3,0.2-2.5,0.3-3.8,0.6c-2.7,0.5-5.3,1-7.9,1.7c-2.5,0.6-4.9,1.5-7.4,2.2
			c-1.3,0.4-2.6,0.8-3.9,1.2c-1.2,0.4-2.3,0.8-3.5,1.2c0,0,0,0,0,0c-0.7,0.2-1.4,0.4-2.1,0.6c-0.4,0.1-0.8,0.1-1.1,0.2
			c-0.3,0-0.5,0-0.8,0c-0.2,0-0.3,0-0.5-0.1c-0.3-0.1-0.7-0.2-1-0.3c0.1,0,0.2,0.1,0.3,0.1c-0.9-0.3-1.9-0.6-2.8-1
			c-0.8-0.3-1.5-0.6-2.2-0.9c-0.4-0.2-0.7-0.4-1.1-0.6c-0.4-0.3-0.9-0.5-1.4-0.6c-0.1,0-0.2,0-0.3,0c0.4-0.7,0.7-1.4,1-2.1
			c1.1-2.5,2-5.1,2.8-7.7c0.8-2.4,1.5-4.9,2.3-7.3c0.6-1.6,1.1-3.1,1.7-4.7c0.3-0.7,0.5-1.4,0.8-2.2c0.2-0.7,0.4-1.5,0.5-2.2
			c0.3-1.6,0.6-3.2,0.6-4.8c1-0.1,1.9-0.8,2.1-1.8c0.6-2,0.9-4,1.2-6.1c0.3-1.9,0.6-3.9,0.7-5.8c0.4-5.3,0-10.5-0.2-15.7
			c-0.1-2.7-0.2-5.4-0.4-8.2c-0.2-2.6-0.4-5.1-0.9-7.7c-0.4-2.6-1-5.2-1.6-7.8c-0.7-2.6-1.3-5.2-2.4-7.6c-1.1-2.4-3-4.5-4.8-6.5
			c-0.9-1-1.8-1.9-2.9-2.7c-1.1-0.8-2.3-1.7-3.7-1.8c-0.1-0.5-0.3-1.1-0.4-1.6c-0.7-2.4-1.3-4.8-1.9-7.3c-0.3-1.3-0.6-2.7-1-3.9
			c-0.4-1.2-0.9-2.4-1.4-3.5c-1-2.2-1.9-4.4-2.9-6.6c0.1,0,0.1,0,0.2,0c0.1,0,0.2,0,0.4,0c0.9-0.2,1.8-0.7,2.2-1.6
			c0.1-0.3,0.2-0.7,0.2-1c0.8-0.9,1.7-1.7,2.6-2.6c0.2-0.2,0.4-0.3,0.6-0.4c0.1,0,0.1-0.1,0.2-0.1c0,0,0.1,0,0.1-0.1
			c0.2-0.1,0.5-0.1,0.7-0.2c0.4-0.1,0.8-0.1,1.2-0.1c0.5,0,0.9,0,1.4,0c1.7,0.2,3.5,0.4,5.2,0.6c0.5,0.1,1,0.1,1.5,0.1
			c0.4,0,0.8,0.1,1.3,0.1c1.1,0,2-0.4,2.9-0.9c0.4-0.3,0.8-0.6,1.2-0.9c0.1,0,0.1-0.1,0.2-0.1c0.2-0.1,0.5-0.2,0.7-0.3
			c0.3-0.1,0.6-0.2,0.8-0.2c0.6-0.1,1.2-0.1,1.9-0.2c1.8-0.1,3.5,0,5.3-0.2c2.1-0.3,4.1-0.7,6.1-1.2c2-0.5,3.8-1.3,5.6-2.2
			c1.7-0.9,3.4-1.9,5-2.8c1.3-0.6,2.7-1.2,4-1.7c0.9-0.2,1.7-0.4,2.6-0.6c2-0.4,4.1-0.8,6.1-1.3c1.9-0.5,3.9-1.1,5.8-1.7
			c1.9-0.7,3.9-1.3,5.8-2.1c1.9-0.8,3.8-1.6,5.6-2.5c2.3-1.1,4.7-2.1,7-3.1c2.4-1,4.9-1.9,7.2-3.1c2.4-1.2,4.8-2.6,7.1-3.9
			c0.7-0.4,1.4-0.8,2.1-1.3c0.6-0.5,1.2-1.1,1.8-1.6c0.8-0.9,1.7-1.7,2.6-2.5c0.5-0.4,0.9-0.8,1.4-1.1c1.3-0.8,2.6-1.5,4-2.2
			c0.4-0.2,0.9-0.4,1.3-0.6c1.9-0.7,3.9-1.3,5.9-1.9c2.2-0.6,4.4-1.2,6.6-1.7c2.7-0.6,5.4-1.3,8-2c2.6-0.7,5.3-1.2,8-1.8
			c1.3-0.3,2.6-0.6,3.8-0.9c1.2-0.3,2.5-0.6,3.8-1c2.5-0.8,4.9-1.9,7.4-2.8c1.7-0.5,3.3-0.9,5-1.3c0.8-0.2,1.7-0.4,2.5-0.6
			c1.4-0.4,2.3-1.6,3.2-2.7c0.5-0.6,1-1.1,1.5-1.6c2.2-1.8,4.5-3.5,6.9-5.1c0.3-0.2,0.6-0.3,0.9-0.5c0.3-0.1,0.5-0.2,0.8-0.3
			c0.6-0.2,1.2-0.4,1.8-0.5c2-0.3,4-0.6,5.9-0.9c1.1-0.2,2.3-0.4,3.3-0.9c1-0.4,1.8-1,2.7-1.5c1.8-1.1,3.6-2.1,5.4-3.1
			c1.6-0.9,3.3-1.8,4.9-2.7c2-1,4.1-2,6.1-2.9c2.1-1,4.2-2.2,6.3-3.3c0.8-0.4,1.6-0.8,2.3-1.1c0.7-0.3,1.5-0.6,2.2-0.9
			c2.9-0.9,5.8-1.8,8.5-2.9c1.8-0.8,3.7-1.6,5.3-2.7c1.3-0.9,2.4-2,3.7-2.9c0.2-0.1,0.4-0.2,0.6-0.3c0.5-0.3,1.1-0.5,1.6-0.7
			c1.3-0.5,1.9-2,1.3-3.3c-0.5-1.3-2-1.9-3.3-1.3c-0.6,0.3-1.2,0.6-1.9,0.9c-0.9,0.4-1.7,1-2.5,1.6c-1,0.7-1.8,1.5-2.8,2.2
			c-0.3,0.2-0.7,0.4-1.1,0.6c-1.7,0.8-3.5,1.6-5.3,2.2c-3,1-6,1.9-8.9,3.1c-1.4,0.6-2.8,1.4-4.1,2.1c-1.3,0.7-2.6,1.4-4,2.1
			c-1.6,0.8-3.2,1.5-4.7,2.2c-1.7,0.8-3.4,1.7-5,2.6c-1.6,0.9-3.3,1.8-4.9,2.8c-1.4,0.8-2.7,1.7-4.2,2.4c-0.2,0.1-0.4,0.2-0.6,0.3
			c-0.3,0.1-0.7,0.2-1,0.3c-0.8,0.2-1.7,0.3-2.5,0.4c-0.9,0.1-1.8,0.2-2.7,0.4c-1.8,0.3-3.6,0.7-5.3,1.5c-1.2,0.6-2.2,1.3-3.2,2.1
			c-0.7,0.5-1.5,1.1-2.2,1.6c-0.8,0.6-1.6,1.1-2.3,1.7c-0.8,0.7-1.6,1.4-2.3,2.1c-0.7,0.7-1.3,1.5-2,2.2c-2.2,0.6-4.5,0.9-6.7,1.6
			c-2.4,0.8-4.8,1.8-7.1,2.7c-6,1.8-12.1,2.8-18.2,4.4c-2.7,0.7-5.4,1.4-8.2,2c-1.3,0.3-2.6,0.6-3.8,1c-1.2,0.4-2.5,0.8-3.7,1.2
			c-1.3,0.4-2.7,0.8-4.1,1.4c-1.5,0.6-2.9,1.4-4.3,2.2c-1.7,0.9-3.1,2.1-4.5,3.4c-0.9,0.9-1.8,1.7-2.7,2.6c-0.3,0.2-0.5,0.4-0.8,0.6
			c-2.2,1.4-4.5,2.6-6.7,3.9c-4.1,2-8.4,3.6-12.5,5.4c-2.1,0.9-4.1,1.9-6.2,2.8c-2.1,0.9-4.3,1.7-6.5,2.5c-3,1-6,1.9-9.1,2.6
			c-1.5,0.3-2.9,0.6-4.4,0.9c-1.4,0.3-2.7,0.8-4.1,1.3c-1.3,0.5-2.6,1.1-3.9,1.9c-1.2,0.7-2.4,1.4-3.6,2.1c-1.1,0.5-2.2,1-3.4,1.5
			c-1.4,0.4-2.8,0.8-4.2,1.1c-1.2,0.2-2.4,0.4-3.7,0.5c-1.6,0.1-3.3,0.1-4.9,0.2c-0.8,0.1-1.6,0.2-2.4,0.4c-0.8,0.2-1.7,0.5-2.4,0.9
			c-0.4,0.3-0.8,0.6-1.2,0.9c-0.2,0.1-0.3,0.2-0.5,0.3c0,0,0,0,0,0c-0.3,0-0.6,0-0.9,0c-1.7-0.1-3.4-0.4-5.1-0.6
			c-1.6-0.2-3.2-0.3-4.8,0c-1,0.2-2,0.4-2.9,0.9c-0.7,0.4-1.4,1-2,1.5c-0.7,0.6-1.3,1.3-2,1.9c-0.7,0.8-1.5,1.6-1.9,2.6
			c-0.6-1.1-1.2-2.1-1.9-3.1c-0.7-1.1-1.5-2.1-2.3-3.1c-0.9-1-1.7-2.1-2.7-3.1c-1.8-1.9-3.6-3.7-5.5-5.5c-1.8-1.8-3.6-3.5-5.3-5.3
			c-1.8-2-3.6-4-5.5-5.9c-3.6-3.6-7.3-7.2-10.7-11.1c-0.9-1.1-1.9-2.2-2.8-3.2c-1.1-1.2-2.1-2.5-3.3-3.7c-1.1-1.1-2.4-1.9-3.6-2.9
			c-0.5-0.4-1-0.8-1.5-1c-0.2-0.1-0.5-0.2-0.7-0.3c-0.2-0.2-0.5-0.3-0.9-0.4c-1.4-0.3-2.9-0.6-4.3-0.9c-1.4-0.2-2.8-0.5-4.2-0.6
			c-1.3-0.1-2.7,0-4,0.2c-1.3,0.2-2.5,0.4-3.8,0.7c-1.4,0.3-2.8,0.7-4.1,1.1c-1.3,0.5-2.5,1-3.7,1.6c-2.4,1.2-4.7,2.6-6.6,4.4
			c-0.9,0.8-1.8,1.7-2.7,2.6c-1,1-1.8,2-2.7,3.1c-0.8,1-1.7,2.1-2.5,3.1c-0.8,0.9-1.5,1.9-2.3,2.8c-1.5,1.7-3,3.3-4.5,4.9
			c-0.4-0.7-0.8-1.4-1.3-2c-0.6-0.9-1.4-1.8-2.1-2.7c-0.8-1-1.6-2-2.4-3c-0.9-1-1.8-2-2.8-2.8c-0.8-0.6-1.6-1.3-2.6-1.7
			c-1-0.5-2.1-0.7-3.2-0.9c-1.3-0.2-2.6-0.4-4-0.3c-1.3,0-2.6,0.1-3.9,0.2c-2.5,0.2-5,0.4-7.5,0.6c-1.5,0.1-3,0.2-4.5,0.3
			c-1.5,0.1-2.9,0.1-4.4,0.1c-3.1,0.1-6.3,0.2-9.4,0.3c-2.7,0.1-5.4,0.2-8.1,0.4c-2.6,0.2-5.2,0.3-7.8,0.7c-2.5,0.4-4.9,1-7.3,1.8
			c-1.3,0.4-2.5,0.8-3.8,1.2c-0.5,0.2-1.1,0.3-1.7,0.6c-0.1-0.3-0.1-0.5-0.3-0.7c-0.5-1.1-1.6-1.7-2.8-1.5c-0.1-0.1-0.2-0.2-0.4-0.3
			c-0.9-0.6-1.7-1.2-2.6-1.8c-0.9-0.6-1.8-1.2-2.7-1.7c-0.9-0.5-1.8-1-2.7-1.5c-1.8-1-3.6-2.1-5.4-3.1c-1.8-1.1-3.7-2-5.6-3
			c-1.7-0.9-3.4-1.7-5.1-2.7c-1.7-1-3.3-2-5-2.9c-1.8-0.9-3.7-1.6-5.6-2.4c-1.7-0.7-3.4-1.5-5-2.4c-3-1.5-5.9-3.2-8.7-4.9
			c-2.9-1.8-5.8-3.7-8.9-5.4c-2.3-1.2-4.6-2.4-6.9-3.7c-2.2-1.2-4.3-2.5-6.5-3.7c-2.2-1.3-4.5-2.6-6.9-3.6c-2.2-1-4.5-1.8-6.7-2.9
			c-1.8-1-3.6-2-5.4-3.1c-1.9-1.3-3.8-2.8-5.8-4.1c-2-1.3-4-2.4-6.1-3.5c-2.2-1.1-4.4-2.2-6.6-3.2c-2-1-4-2-6-2.9c0,0,0,0,0,0
			c0,0,0,0,0,0c-0.1,0-0.1-0.1-0.2-0.1c0,0,0.1,0,0.1,0.1c-1.2-0.6-2.5-1.3-3.7-1.9c-4.5-2.4-9-4.7-13.5-7c-2.3-1.2-4.6-2.4-7-3.5
			c-2.2-1-4.4-2-6.5-3c-1.4-0.7-2.8-1.5-4.2-2.2c-1.5-0.8-3-1.5-4.4-2.3c0.1,0,0.2,0.1,0.3,0.1c-1.8-0.9-3.6-2-5.4-3
			c-1.7-1-3.5-1.8-5.3-2.7c0,0,0,0,0,0c0,0-0.1,0-0.1-0.1c0,0-0.1,0-0.1-0.1c0,0,0,0,0,0c0,0,0,0,0,0c0,0,0,0,0,0c0,0,0,0,0,0
			c-1.9-0.9-3.7-1.9-5.5-3c0,0,0,0,0.1,0c-1.7-1.2-3.5-2.3-5.2-3.4c-1.7-1.1-3.4-2.3-5.2-3.4c-2.1-1.3-4.4-2.4-6.7-3.4
			c-2.4-1-4.7-2-7-3.1c-2.2-1-4.5-1.9-6.8-2.9c-1.1-0.5-2.3-1-3.4-1.4c-1.1-0.4-2.3-0.7-3.4-1.1c-1.3-0.5-2.5-1.1-3.8-1.6
			c-1.4-0.5-2.8-1-4.1-1.6c-1.5-0.7-2.9-1.4-4.4-2c-1.4-0.5-2.8-1-4.1-1.6c-0.1-0.1-0.3-0.2-0.4-0.2c-0.8-0.4-1.5-0.9-2.3-1.4
			c-1.5-1-3-2-4.7-2.6c-1.3-0.5-2.7-0.8-4-1.2c-0.5-0.2-1-0.4-1.5-0.6c-1-0.5-1.9-1.1-2.8-1.7c-1-0.7-2-1.5-2.9-2.3
			c-0.6-0.5-1.2-1-1.8-1.5c-0.1-0.1-0.3-0.3-0.4-0.4c-0.2-0.2-0.4-0.5-0.6-0.7c-0.3-0.3-0.6-0.6-1-0.8s-0.7-0.5-1.1-0.7
			c-1.1-0.7-2.8-0.2-3.4,0.9c-0.7,1.2-0.2,2.7,0.9,3.4c0.3,0.2,0.6,0.4,0.9,0.6c0,0,0.1,0,0.1,0.1c0,0,0,0,0,0
			c0.3,0.4,0.6,0.8,1,1.1c0.4,0.4,0.8,0.7,1.3,1c1.1,0.9,2.2,1.9,3.3,2.7c1.6,1.2,3.3,2.2,5.1,3c1.6,0.7,3.3,1,4.9,1.5
			c0.4,0.1,0.7,0.3,1.1,0.4C56,79.7,57,80.3,58,81c0.6,0.4,1.1,0.8,1.7,1.1c0.4,0.3,0.9,0.6,1.4,0.8c0.1,0.1,0.3,0.1,0.5,0.2
			c2.2,1,4.5,1.6,6.6,2.7c1.1,0.5,2.1,1,3.2,1.5c1.1,0.4,2.2,0.8,3.3,1.3c1,0.4,2.1,0.9,3.1,1.3c1.1,0.4,2.3,0.7,3.4,1.1
			c1.7,0.6,3.4,1.4,5.1,2.1c1.8,0.8,3.7,1.5,5.5,2.4c1.8,0.8,3.5,1.6,5.3,2.3c1.7,0.7,3.4,1.5,5.1,2.3c2,1.1,3.8,2.3,5.7,3.6
			c1.9,1.2,3.8,2.4,5.6,3.6c0.9,0.6,1.8,1.2,2.7,1.8c0.8,0.5,1.6,0.9,2.4,1.3c1.8,0.9,3.6,1.8,5.5,2.7c1.5,0.8,2.9,1.6,4.3,2.4
			c1.7,1,3.5,1.8,5.2,2.7c2.7,1.4,5.3,2.9,8.1,4.2c2.7,1.3,5.5,2.5,8.2,3.8c1.7,0.9,3.4,1.8,5.2,2.7c2.2,1.2,4.5,2.3,6.7,3.4
			c2.3,1.2,4.5,2.4,6.8,3.6c4.3,2.3,8.8,4.3,13.1,6.4c0,0,0,0,0,0c0,0,0,0,0,0c0,0,0,0,0.1,0c2.4,1.2,4.8,2.5,7,4
			c1.5,1.1,3,2.2,4.6,3.2c1.5,1.1,3.1,2.1,4.7,3c1.7,0.9,3.4,1.8,5.1,2.5c1.8,0.7,3.5,1.4,5.3,2.2c3.1,1.6,6.2,3.4,9.3,5.2
			c1.7,1,3.4,1.9,5.1,2.8c1.6,0.9,3.3,1.7,4.9,2.6c4.6,2.6,8.9,5.6,13.5,8.2c2.3,1.2,4.6,2.4,7,3.5c2.3,1.1,4.7,1.9,7,3
			c2,1.1,4,2.4,6,3.5c2.1,1.1,4.2,2.2,6.3,3.2c1.3,0.7,2.6,1.4,3.9,2.2c1.2,0.7,2.3,1.4,3.5,2.1c1.2,0.7,2.5,1.3,3.8,2.1
			c1.1,0.7,2.3,1.4,3.4,2.2c0.6,0.4,1.2,0.8,1.8,1.3c0.2,0.9,1,1.7,2,1.9c0.1,0.8,0.2,1.5,0.3,2.3c0.1,1.1,0.1,2.1,0,3.2
			c-0.2,2.5-0.5,5-0.9,7.4c-0.4,2.5-0.8,5.1-1.2,7.6c-0.4,1.7-0.8,3.4-1.2,5.2c-0.4,1.7-0.7,3.4-1,5.2c-0.6,3.5-1.2,7-1.9,10.5
			c-1,4.8-2,9.6-3,14.5c0-0.1,0-0.2,0.1-0.3c-0.7,3.2-1.6,6.4-2.6,9.6c-1,3.2-1.8,6.4-2.8,9.5c-0.5,1.3-1,2.6-1.6,3.9
			c-0.6,1.3-1.2,2.5-1.8,3.8c-0.9,1.7-1.8,3.4-2.6,5.2c-0.8,1.8-1.6,3.7-2.5,5.5c-1.4,2.7-2.9,5.4-4.6,7.9c-0.7,1.1-1.5,2.1-2.3,3.2
			c-0.7,0.9-1.3,1.8-2,2.7c-0.2,0.2-0.3,0.4-0.4,0.7c-1.4,0.1-2.7,0.6-3.9,1.2c-0.9,0.4-1.8,0.8-2.6,1.4c-0.5,0.4-0.9,0.8-1.3,1.2
			c-0.2,0.3-0.5,0.6-0.7,0.8c-0.8,1-1.5,1.9-2.3,2.9c-0.8,1-1.6,2.1-2.2,3.4c-0.6,1.2-1,2.4-1.2,3.7c-0.6,2.8-0.4,5.6,0.2,8.3
			c0.2,1,0.6,2,1.1,2.9c-0.2,0.2-0.4,0.3-0.6,0.5c-0.8,0.7-1.6,1.4-2.4,2.1c-1.3,1.3-2.6,2.6-3.8,4c-1.2,1.5-2.4,3-3.6,4.5
			c-1.1,1.5-2.1,3-3.3,4.4c-1.3,1.4-2.6,2.8-4.1,4.1c-0.3,0.2-0.5,0.4-0.8,0.7c-0.1,0.1-0.2,0.1-0.3,0.2c-0.1,0.1-0.2,0.1-0.3,0.1
			c-0.2,0.1-0.3,0.1-0.5,0.1c-0.2-0.1-0.4-0.2-0.6-0.2c0,0,0,0-0.1,0c-2-0.8-3.9-1.7-5.8-2.7c-1.8-0.9-3.6-1.9-5.4-2.9
			c-1.7-1-3.4-2.1-5.1-3c-2.4-1.3-4.8-2.6-7.3-3.6c-2.5-1.1-5.1-1.9-7.7-2.7c-5-1.5-10-3.1-15-4.8c0,0,0.1,0,0.1,0
			c-2.2-0.8-4.3-1.5-6.5-2.2c-2.2-0.7-4.4-1.4-6.6-2.1c-1.1-0.4-2.2-0.8-3.3-1.3c-1.1-0.5-2.2-1-3.3-1.5c-4-2.1-8-4.2-11.9-6.4
			c-2.4-1.3-4.9-2.4-7.3-3.6c-2.4-1.1-4.9-2.2-7.3-3.4c-2.4-1.1-4.8-2.3-7.2-3.4c-2.5-1.1-5.1-2.3-7.6-3.5c-4.9-2.3-9.9-4.4-15-6.3
			c-5-1.9-10-4.1-15-6.2c-2.4-1-4.7-2.1-7-3.2c-1.2-0.6-2.5-1.2-3.7-1.8c-1.1-0.5-2.3-0.9-3.4-1.3c-2-0.8-4-1.5-5.9-2.4
			c-0.9-0.5-1.8-0.9-2.8-1.3c-1.1-0.5-2.2-0.9-3.3-1.5c-1.4-0.7-2.7-1.5-4-2.3c-1.3-0.8-2.5-1.6-3.7-2.3c-1.3-0.7-2.7-1.3-4.1-1.8
			c-1.3-0.5-2.6-1.2-3.9-1.7c-1.2-0.5-2.8,0.1-3.3,1.3c-0.5,1.3,0.1,2.7,1.3,3.3c0.6,0.3,1.2,0.5,1.9,0.8c0.5,0.3,1.1,0.5,1.6,0.7
			c1.1,0.5,2.3,0.9,3.4,1.4c1.1,0.6,2.1,1.2,3.1,1.9c1.1,0.7,2.2,1.3,3.3,2c1.2,0.7,2.3,1.3,3.6,1.8c1.1,0.5,2.1,0.9,3.2,1.4
			c0.9,0.4,1.8,0.9,2.8,1.3c1,0.4,1.9,0.8,2.9,1.2c2.3,0.9,4.6,1.7,6.9,2.8c2.4,1.2,4.8,2.4,7.2,3.5c2.4,1.1,4.8,2.1,7.3,3.1
			s4.9,2,7.3,3c5.1,2,10.2,3.9,15.1,6.2c2.5,1.2,5,2.4,7.5,3.5c2.5,1.1,4.9,2.2,7.3,3.4c2.3,1.1,4.7,2.2,7,3.3
			c2.5,1.1,4.9,2.2,7.4,3.4c1,0.5,1.9,1,2.9,1.5c2.3,1.2,4.6,2.5,6.9,3.7c2.4,1.3,4.8,2.6,7.3,3.7c0.6,0.3,1.3,0.6,1.9,0.8
			c0.7,0.3,1.5,0.5,2.2,0.8c1.3,0.5,2.6,0.8,3.9,1.2c2.5,0.8,5.1,1.6,7.6,2.5c-0.1,0-0.2-0.1-0.3-0.1c3.7,1.3,7.4,2.5,11.1,3.7
			c3.4,1.1,6.9,2.1,10.4,3.3c2.1,0.8,4.1,1.6,6.1,2.6c1.7,0.9,3.5,1.8,5.1,2.7c1.8,1.1,3.5,2.2,5.4,3.2c1.9,1,3.8,2,5.8,2.9
			c0.9,0.4,1.7,0.8,2.6,1.2c0.5,0.2,1,0.4,1.5,0.6c0.4,0.1,0.7,0.3,1.1,0.3c0.4,0.3,0.8,0.4,1.3,0.4c0.1,0,0.3,0,0.4,0
			c0.6-0.1,1.2-0.2,1.8-0.4c1.1-0.4,2.1-0.9,2.9-1.7c1.7-1.4,3.2-3,4.7-4.7c1.5-1.7,2.7-3.5,4-5.3c1.3-1.7,2.6-3.4,4-5
			c1.4-1.5,2.8-2.9,4.3-4.2c0.2-0.2,0.4-0.4,0.7-0.5c0.1-0.1,0.2-0.1,0.2-0.1c0.1-0.1,0.3-0.1,0.4-0.2c0.8,0.7,1.6,1.3,2.5,1.8
			c1.1,0.7,2.3,1.3,3.5,2c1.1,0.6,2.3,1.1,3.6,1.6c1.3,0.4,2.7,0.8,4.1,0.8c0.1,0,0.2,0,0.3,0c0.6,0,1.1-0.1,1.7-0.1
			c-0.1,0.5-0.2,0.9-0.3,1.4c-0.2,1.2-0.4,2.5-0.4,3.7c0,1.9,0.4,3.7,1.1,5.4c0.5,1.3,1.1,2.5,1.8,3.7c1,1.7,2.1,3.3,3.6,4.7
			c1.8,1.6,3.7,3.2,5.9,4.3c1,0.5,2.2,0.9,3.3,1c0.7,0.1,1.5,0.2,2.2,0.3c0.7,0.1,1.4,0.2,2.1,0.2c0.1,0,0.1,0,0.2,0
			c1,0,2,0,2.9-0.2c1.1-0.2,2.2-0.3,3.2-0.6c0.1,0.5,0.2,0.9,0.3,1.4c0.3,1,0.7,1.9,1.1,2.8c0.4,0.9,0.9,1.8,1.5,2.6
			c0.6,0.7,1.2,1.4,1.8,2.1c1.3,1.5,2.6,3,4.2,4.2c0.8,0.6,1.6,1,2.5,1.5c0.8,0.4,1.5,0.9,2.3,1.4c1.1,0.6,2.4,1.2,3.6,1.4
			c1.4,0.3,2.9,0.5,4.4,0.5c0,0,0.1,0,0.1,0c1.2,0,2.4-0.1,3.7-0.2c0.8-0.1,1.6-0.2,2.4-0.3c-0.1,0.5-0.1,1.1-0.2,1.6
			c-0.1,2.5,0.2,4.9,0.8,7.3c0.3,1.3,0.7,2.5,1.1,3.7c0.5,1.3,1.1,2.6,1.9,3.8c0.8,1.1,1.6,2.1,2.7,2.9c0.8,0.6,1.5,1.1,2.4,1.5
			c0.5,0.2,1,0.5,1.6,0.6c1.2,0.5,2.5,0.9,3.8,1.2c1.1,0.3,2.2,0.6,3.3,1c0.7,0.2,1.4,0.5,2.1,0.7c0.6,0.1,1.2,0.2,1.8,0.2
			c0.2,0,0.4,0,0.6,0c0.2,0,0.3,0,0.5-0.1c0.6-0.1,1.2-0.4,1.6-0.8c0.1,0,0.1,0,0.2-0.1c0.1,0,0.3-0.1,0.4-0.2c0,0,0,0,0,0
			c1,2.1,2.9,3.6,4.7,4.9c0.9,0.7,1.9,1.4,3,1.9c1.3,0.6,2.7,1,4.2,1.1c0.2,0,0.4,0,0.5,0c1,0,1.9-0.2,2.9-0.3
			c1-0.1,2.1-0.2,3.1-0.3c1-0.2,1.9-0.4,2.8-0.7c1-0.3,1.9-0.6,2.9-0.9c-0.1,0-0.2,0.1-0.3,0.1c0.7-0.2,1.3-0.4,2-0.5
			c1.5-0.3,3-0.6,4.4-1.1c1.4-0.5,2.6-1.3,3.9-1.9c0.5-0.2,1-0.4,1.5-0.6c1.4-0.5,2.9-0.8,4.1-1.7c0.1-0.1,0.3-0.2,0.4-0.4
			c0.4,0.1,0.8,0.2,1.1,0.4c0.1,0,0.2,0.1,0.3,0.1c0,0,0,0,0,0c0.1,0,0.2,0.1,0.2,0.1c0,0,0,0,0.1,0s0,0,0.1,0
			c1.1,0.4,2.2,0.9,3.4,1.2c1.2,0.4,2.3,0.5,3.5,0.7c1.1,0.1,2.3,0.3,3.4,0.3c1.1,0.1,2.1,0.1,3.2,0.1c0.7,0,1.4,0.1,2.1,0.1
			c0.5,0,1.1,0,1.6-0.1c1.2-0.1,2.4-0.3,3.6-0.6c1.1-0.3,2.2-0.6,3.1-1.2c0.9-0.6,1.7-1.4,2.5-2.2c0.9-0.9,1.7-1.9,2.4-2.9
			c1-1.3,1.9-2.7,2.8-4.1c0.3,0.1,0.6,0.1,0.9,0.2c0,0,0.1,0,0.1,0c0.5,0,1-0.2,1.3-0.5c0.4,0.4,1,0.7,1.7,0.7c0.1,0,0.3,0,0.4,0
			c1.1,0,2.3-0.1,3.4-0.1c2.4-0.1,4.9-0.3,7.3-0.4c1.3,0,2.6-0.1,3.9-0.2c1.2-0.2,2.4-0.4,3.6-0.9c0.6-0.3,1.2-0.5,1.7-0.8
			c1.1-0.6,2.2-1.5,3.2-2.3c0.9-0.8,1.9-1.6,2.8-2.4c1.8-1.7,3.2-3.7,4.6-5.7c0.7-1,1.5-1.9,2.2-2.9c0.8-1.1,1.4-2.2,2-3.3
			c0.1-0.2,0.1-0.3,0.2-0.5c0.2,0,0.3-0.1,0.5-0.2c2.4-1.1,4.8-2.2,7-3.7c2.3-1.5,4.2-3.6,5.9-5.7c0.8-0.9,1.5-1.9,2.2-2.9
			c0.8-1.1,1.6-2.1,2.3-3.3c0.2-0.3,0.4-0.7,0.7-1.1c0.3,0.5,0.7,0.8,1.3,1c0.9,0.6,1.9,1.1,3,1.5c1.1,0.4,2.2,0.8,3.4,1.2
			c0,0-0.1,0-0.1,0c1.1,0.4,2.2,0.7,3.4,0.8c0.2,0,0.4,0,0.7,0c1.3,0,2.6-0.2,3.8-0.6c1.1-0.4,2.3-0.8,3.4-1.2
			c2.8-0.9,5.5-1.8,8.3-2.7c2.6-0.8,5.3-1.5,8-2.1c0,0,0,0-0.1,0c0,0,0.1,0,0.1,0c0,0,0.1,0,0.1,0c0,0-0.1,0-0.1,0
			c1.9-0.4,3.8-0.7,5.8-1c1.9-0.3,3.9-0.7,5.8-1c1.9-0.3,3.8-0.5,5.7-0.8c1.9-0.2,3.8-0.6,5.8-0.8c0.2,0,0.4,0,0.5,0
			c0.3,0,0.5,0.1,0.8,0.1c1.4,0.3,2.7,0.8,4.1,1c1.8,0.2,3.5,0.1,5.3-0.1c2.1-0.3,4.1-0.8,6.1-1.4c1-0.3,2-0.7,3-0.9
			c1-0.2,2-0.5,3-0.7c1.1-0.2,2.2-0.5,3.2-0.8c1-0.3,1.9-0.6,2.8-1c2.1-0.7,4.1-1.1,6.3-1.6c1.7-0.3,3.3-0.7,4.9-1.3
			c1.3-0.5,2.6-1,3.9-1.5c2.1-0.9,4.1-1.8,6.2-2.8c0.9-0.4,1.7-0.8,2.6-1.2c1-0.4,2-0.8,2.9-1.2c0,0,0,0,0.1,0
			c2.5-0.8,5.1-1.6,7.6-2.5c2.6-0.9,5.2-1.6,7.8-2.2c2.7-0.6,5.3-1.2,7.9-2.1c2.6-0.8,5.3-1.7,7.9-2.6c1.3-0.5,2.7-0.9,4-1.4
			c1.5-0.6,2.9-1.1,4.3-1.7c2.4-1,4.7-2.2,7.1-3.4c1.3-0.6,2.6-1.2,4-1.8c1.2-0.5,2.5-1,3.7-1.5c2.4-0.9,4.8-1.8,7.1-2.9
			c5.1-2.2,10.1-4.3,15.1-6.7c2.4-1.2,4.8-2.4,7.2-3.5c2.4-1.1,4.8-2.2,7.1-3.3c2.5-1.2,5-2.5,7.4-3.8c2.3-1.2,4.6-2.5,6.9-3.7
			c2.6-1.3,5.3-2.4,7.9-3.7c1.3-0.6,2.7-1.3,4-1.9c1.1-0.6,2.2-1.2,3.3-1.7c0.5-0.3,1.1-0.5,1.6-0.7
			C706.9,293.7,707.6,292.2,707,290.9z M371.7,207.3c1.8-1.9,3.6-3.8,5.2-5.8c1.6-1.9,3.1-3.9,4.7-5.7c1.1-1.2,2.3-2.4,3.6-3.5
			c0.6-0.5,1.2-1.1,1.9-1.5c1.3-0.9,2.7-1.7,4.1-2.4c0.8-0.4,1.7-0.7,2.6-1.1c1.4-0.5,2.9-0.8,4.4-1.2c1.3-0.2,2.6-0.4,3.9-0.6
			c0.5,0,1.1,0,1.6,0c2,0.2,4,0.5,5.9,0.9c0.3,0.1,0.6,0.1,0.8,0.2c0.4,0.3,0.9,0.5,1.4,0.6c0.4,0.3,0.9,0.7,1.3,1
			c0.6,0.5,1.2,0.9,1.8,1.4c0.9,0.9,1.8,1.8,2.6,2.8c-0.1-0.1-0.1-0.2-0.2-0.2c0.8,0.9,1.7,1.9,2.5,2.8c0.8,0.9,1.6,1.9,2.4,2.8
			c1.8,1.9,3.5,3.8,5.3,5.6c1.9,1.9,3.7,3.7,5.6,5.6c1.8,1.9,3.6,3.8,5.4,5.8c1.7,1.8,3.5,3.6,5.3,5.3c1.8,1.8,3.7,3.6,5.4,5.5
			c1.3,1.5,2.5,2.9,3.6,4.5c1.1,1.7,2.1,3.4,3,5.2c0.9,1.9,1.7,3.8,2.5,5.8c0.8,1.8,1.6,3.6,2.3,5.4c0.4,1.4,0.8,2.9,1.1,4.4
			c0.3,1.4,0.7,2.8,1.1,4.1c0.7,2.6,1.4,5.2,2,7.9c0.2,1.1,0.4,2.3,0.5,3.4c0.1,1.7,0.2,3.4,0.2,5.1c0,1.7,0.2,3.4,0.1,5.1
			c0,1.4,1.2,2.5,2.5,2.5c1.4,0,2.5-1.1,2.5-2.5c0-0.9,0-1.9-0.1-2.8c0-0.9-0.1-1.8-0.1-2.8c0-2.4-0.1-4.7-0.4-7.1
			c0.1,0.1,0.3,0.2,0.4,0.3c0.6,0.6,1.2,1.2,1.8,1.9c0.8,0.9,1.6,1.8,2.3,2.8c0.4,0.6,0.7,1.1,1,1.7c0.3,0.6,0.5,1.2,0.7,1.8
			c1,3.2,1.8,6.6,2.5,9.9c0.4,2.1,0.7,4.1,0.9,6.2c0.2,2,0.4,4.1,0.5,6.1c0.2,3.4,0.3,6.9,0.4,10.3c0.1,3.1,0.2,6.3,0,9.4
			c-0.1,1.6-0.3,3.1-0.5,4.7c-0.1-0.1-0.1-0.3-0.2-0.4c-0.8-2-1.6-4.1-2.8-5.9c-1.4-2.1-3-4-4.6-5.9c-1.6-1.9-3.4-3.7-5.1-5.6
			c-2.7-3.1-5.1-6.5-7.7-9.8c-2.6-3.3-5.5-6.3-8.3-9.5c-1.4-1.6-2.7-3.1-4-4.7c0,0,0,0,0,0c-0.7-0.8-1.3-1.5-2-2.3
			c-0.6-0.8-1.2-1.5-1.8-2.3c-1.3-1.6-2.6-3.2-4-4.7c-1.3-1.5-2.6-2.9-3.9-4.4c-1.4-1.5-2.8-2.9-4.1-4.4c-1.7-1.8-3.5-3.5-5.2-5.3
			c-1.7-1.8-3.4-3.6-5.1-5.4c-0.9-0.9-1.7-1.8-2.6-2.7c-1-0.9-2-1.7-2.9-2.6c-0.9-0.8-1.9-1.6-2.8-2.3c-0.9-0.7-1.9-1.3-2.8-1.9
			c-2.3-1.6-4.5-3.2-6.8-4.8c0,0,0,0,0,0c0,0,0,0,0,0c0,0,0,0,0,0c0,0,0,0,0,0c0,0,0,0,0,0c-0.1-0.1-0.2-0.1-0.2-0.2c0,0,0,0,0.1,0
			c-0.5-0.4-1-0.7-1.6-1.1c-0.4-0.3-0.7-0.5-1.1-0.7c0.2-0.3,0.4-0.6,0.7-0.8c1-1.1,2-2.2,2.8-3.4c0.7-1,1.5-2.2,1.5-3.4
			c0-1.4-1.1-2.5-2.5-2.5c-1.2,0-2.3,0.9-2.5,2.1c-0.1,0.2-0.2,0.4-0.3,0.5c-0.5,0.7-1,1.3-1.6,2c-0.7,0.8-1.5,1.6-2.1,2.4
			c-0.5,0.7-1,1.4-1.5,2.1c0,0,0,0,0,0c0,0,0,0,0,0c0,0.1-0.1,0.1-0.1,0.2c0-0.1,0.1-0.1,0.1-0.2c-0.6,0.9-1.3,1.8-2,2.8
			c-0.7,1-1.5,2-2.3,2.9c-0.5,0.6-1.1,1.2-1.7,1.7c-0.2,0.2-0.4,0.3-0.6,0.4c-2.2,1.5-4.6,2.7-6.9,3.9c0,0,0,0,0.1,0
			c-0.1,0-0.1,0.1-0.2,0.1c0,0-0.1,0-0.1,0c0,0,0,0,0,0c-1.4,0.7-2.8,1.3-4.2,1.9c-3.4,1.2-6.9,2.3-10.4,3.1
			c-1.2,0.2-2.3,0.4-3.5,0.5c-0.1,0-0.3,0-0.4,0c0,0,0,0-0.1,0c-0.3,0-0.6,0-0.9,0c-0.2,0-0.5,0-0.7,0c-1-0.1-2-0.2-2.9-0.4
			c-0.5-0.1-1.1-0.2-1.6-0.4c-0.6-0.2-1.1-0.4-1.6-0.7c-1-0.5-1.9-1-2.8-1.6c-0.3-0.2-0.6-0.4-0.9-0.7c-0.1-0.1-0.2-0.2-0.3-0.3
			c-0.2-0.3-0.4-0.5-0.6-0.8c-0.3-0.5-0.6-1-0.9-1.5c-0.2-0.4-0.4-0.9-0.5-1.3c-0.1-0.4-0.2-0.8-0.3-1.2c-0.1-0.6-0.2-1.2-0.2-1.8
			c0-0.4,0-0.9,0-1.3c0.1-0.6,0.1-1.2,0.2-1.8c0.1-0.4,0.2-0.7,0.3-1.1c0.2-0.4,0.3-0.9,0.5-1.3c0.2-0.4,0.5-0.8,0.7-1.2
			c1-1.4,2.1-2.7,3.3-4c1.4-1.5,2.8-3,4.2-4.5c1.4-1.5,2.7-3.1,4.1-4.6c1.7-1.9,3.3-3.7,5-5.6c0.2-0.2,0.4-0.4,0.6-0.7
			c0.6-0.3,1.1-0.8,1.3-1.4C369.7,209.5,370.7,208.4,371.7,207.3z M259,339.1c-0.2,0-0.4,0-0.6,0c-0.4,0-0.9-0.1-1.3-0.2
			c-0.5-0.1-1-0.2-1.4-0.4c-0.8-0.3-1.6-0.7-2.4-1.1c-1.5-0.8-2.9-1.6-4.3-2.5c-0.5-0.4-1-0.8-1.6-1.2c-0.4-0.4-0.8-0.7-1.1-1.1
			c-0.2-0.2-0.3-0.4-0.5-0.6c-0.1-0.2-0.2-0.4-0.3-0.6c-0.1-0.2-0.1-0.3-0.2-0.5c-0.1-0.5-0.3-1-0.4-1.5c-0.1-0.6-0.2-1.3-0.3-1.9
			c0-0.6,0-1.1,0-1.7c0.1-0.6,0.1-1.3,0.2-1.9c0.1-0.5,0.2-1,0.4-1.5c0.2-0.5,0.4-0.9,0.6-1.3c0.2-0.4,0.4-0.7,0.6-1.1
			c0.6-0.8,1.2-1.6,1.9-2.4c0.7-0.8,1.3-1.7,2-2.5c0,0,0.1-0.1,0.1-0.1c0.2-0.2,0.4-0.3,0.6-0.4c0.2-0.1,0.4-0.2,0.6-0.4
			c0.5-0.2,1.1-0.5,1.6-0.7c0.5-0.1,0.9-0.3,1.4-0.4c0.1,0,0.1,0,0.2,0c0.2,0,0.3,0,0.5,0c0.3,0,0.5,0.1,0.8,0.1
			c0.9,0.2,1.7,0.5,2.5,0.8c0,0,0,0,0,0c0.7,0.2,1.4,0.5,2.1,0.8c0.2,0.1,0.3,0.2,0.5,0.3c0.4,0.3,0.8,0.6,1.2,1
			c0.1,0.1,0.1,0.1,0.2,0.2c0.1,0.1,0.2,0.2,0.3,0.4c0.6,0.9,1.1,1.8,1.6,2.8c0.5,0.8,1,1.7,1.4,2.5c0.4,0.8,0.7,1.6,1,2.4
			c0.1,0.3,0.2,0.6,0.3,0.9c0,0.2,0.1,0.5,0.1,0.7c0,0.2,0,0.4,0,0.7c0,0.4-0.1,0.9-0.2,1.3c-0.1,0.3-0.1,0.5-0.2,0.8
			c-0.3,0.8-0.6,1.6-1,2.4c-0.4,0.9-0.7,1.9-1.2,2.8c-0.5,0.9-1.1,1.8-1.6,2.6c-0.2,0.3-0.4,0.5-0.5,0.8c0,0.1-0.1,0.2-0.1,0.3
			c0,0,0,0,0,0c-0.3,0.2-0.6,0.4-1,0.6c-0.3,0.1-0.6,0.2-0.8,0.4c-0.3,0.1-0.5,0.2-0.8,0.2C259.4,339,259.2,339,259,339.1z
			 M284.8,363c-0.3,0.1-0.5,0.1-0.8,0.2c-0.9,0.2-1.9,0.3-2.8,0.4c-0.6,0-1.3,0.1-1.9,0c-0.6-0.1-1.1-0.2-1.6-0.2
			c-0.7-0.1-1.4-0.2-2-0.3c-0.2,0-0.4-0.1-0.6-0.2c-0.2-0.1-0.4-0.1-0.6-0.2c-0.5-0.3-0.9-0.5-1.4-0.8c-1-0.7-1.9-1.4-2.8-2.2
			c-0.6-0.5-1.1-1-1.7-1.6c-0.3-0.3-0.6-0.7-0.8-1.1c-0.6-1-1.2-2.1-1.7-3.1c-0.3-0.6-0.5-1.2-0.8-1.8c-0.1-0.4-0.2-0.8-0.3-1.3
			c-0.1-0.4-0.1-0.8-0.2-1.3c0-0.4,0-0.7,0-1.1c0.1-1,0.2-2,0.4-3.1c0.2-0.9,0.4-1.8,0.7-2.7c1.1,0.1,2.2-0.5,2.6-1.5
			c0.3-0.7,0.6-1.5,0.9-2.2c0.1-0.2,0.2-0.3,0.3-0.5c0.1-0.2,0.2-0.3,0.4-0.5c0.1-0.1,0.2-0.2,0.2-0.3c0.5-0.6,1.1-1.2,1.7-1.8
			c0.7-0.8,1.3-1.6,2-2.4c0.3-0.3,0.6-0.6,0.9-0.9c0.8-0.6,1.5-1.3,2.2-1.9c0.6-0.5,1.2-0.9,1.8-1.3c0.8-0.6,1.5-1.2,2.3-1.8
			c1.1-0.7,2.1-1.4,3.1-2.1c1-0.7,1.9-1.6,2.8-2.4c-0.1,0.1-0.2,0.1-0.2,0.2c0.2-0.2,0.4-0.4,0.7-0.5c0.8-0.5,1.7-1,2.6-1.4
			c3.2-1.6,6.3-3.1,9.7-4.2c0.3-0.1,0.7-0.2,1-0.3c0.1,0,0.1,0,0.1,0c0,0,0.1,0,0.1,0c0,0,0,0,0,0c0,0,0.1,0,0.1,0
			c0.2,0.1,0.5,0.2,0.7,0.3c1,0.5,1.9,1.2,2.8,1.7c1.2,0.6,2.5,1.1,3.7,1.6c0.8,0.4,1.5,0.9,2.3,1.3c0.9,0.7,1.8,1.4,2.7,2.1
			c0.9,0.8,1.7,1.6,2.5,2.5c0.2,0.2,0.4,0.5,0.6,0.7c0.2,0.3,0.3,0.5,0.5,0.8c0,0.1,0.1,0.1,0.1,0.2c0.1,0.2,0.1,0.5,0.2,0.7
			c0,0.3,0.1,0.6,0.1,0.8c0,0.3,0,0.5,0,0.8c0,0.4-0.1,0.8-0.2,1.3c-0.1,0.4-0.2,0.7-0.3,1.1c-0.1,0.3-0.2,0.5-0.3,0.8
			c-0.2,0.5-0.5,0.9-0.8,1.3c-0.5,0.7-1.1,1.4-1.6,2.1c-0.6,0.8-1.2,1.7-1.9,2.5c-1.7,2-3.5,3.9-5.5,5.7c-0.7,0.6-1.4,1.2-2.2,1.7
			c-0.7,0.4-1.4,0.9-2.1,1.4c-0.6,0.4-1.2,0.9-1.7,1.3c-1.2,1-2.5,2.1-3.7,3.1c-1.3,1.1-2.7,2-4,3.1c-0.6,0.5-1.2,1-1.8,1.6
			c-0.5,0.6-1,1.2-1.5,1.8c-0.2,0.2-0.4,0.4-0.6,0.7c-0.9,0.8-1.8,1.5-2.8,2.2c-0.3,0.2-0.7,0.4-1.1,0.6
			C285.1,362.9,284.9,363,284.8,363z M309,380.8c-0.7,0-1.4,0-2.1,0c-0.7-0.1-1.4-0.2-2.2-0.3c-0.4-0.1-0.8-0.2-1.2-0.3
			c-0.4-0.1-0.7-0.3-1.1-0.5c-0.8-0.5-1.6-1-2.5-1.5c-0.7-0.4-1.5-0.8-2.2-1.3c-0.2-0.2-0.4-0.3-0.6-0.5c-0.6-0.5-1.1-1-1.6-1.6
			c-0.9-1.1-1.9-2.1-2.8-3.3c-0.2-0.3-0.4-0.6-0.5-0.9c-0.4-0.8-0.8-1.6-1.1-2.5c-0.1-0.4-0.2-0.7-0.3-1.1c0-0.2-0.1-0.5-0.1-0.7
			c0,0,0-0.1,0-0.1c0.1-0.3,0.1-0.5,0.1-0.8c0-0.2,0-0.4-0.1-0.6c0,0,0,0,0.1,0c0.5-0.4,1-0.8,1.5-1.3c0.9-0.8,1.5-1.8,2.3-2.7
			c0.2-0.3,0.5-0.5,0.8-0.8c1.7-1.4,3.5-2.7,5.2-4.1c1.6-1.4,3.2-2.8,5-4c1.5-1,3-1.9,4.4-3.1c1.2-1.1,2.4-2.3,3.5-3.5
			c1.1-1.2,2.2-2.4,3.3-3.7c0.5-0.6,0.9-1.3,1.4-1.9c0.4-0.5,0.8-1.1,1.2-1.6c1.1-1.5,1.9-3.2,2.3-5c0.5,0.1,1,0.1,1.5-0.1
			c0.1,0,0.2-0.1,0.3-0.1c0.1,0,0.1,0,0.2,0c0.2,0,0.4-0.1,0.6-0.1c0.2,0,0.5,0,0.7,0c0.6,0.1,1.1,0.1,1.7,0.2
			c0.6,0.1,1.1,0.3,1.7,0.4c0.9,0.3,1.7,0.7,2.5,1.1c0.9,0.5,1.8,1,2.7,1.6c0.8,0.6,1.6,1.1,2.3,1.7c0.3,0.3,0.7,0.6,1,1
			c0.4,0.5,0.8,0.9,1.1,1.4c0.3,0.4,0.5,0.9,0.8,1.3c0.3,0.6,0.5,1.2,0.7,1.8c0.5,1.5,1,3,1.4,4.6c0.1,0.3,0.1,0.6,0.1,0.9
			c0,0.8,0,1.5,0,2.3c0,0.7-0.1,1.3-0.2,2c-0.1,0.3-0.2,0.6-0.3,1c-0.4,1-0.9,2.1-1.4,3.1c-0.7,1.3-1.4,2.6-2.2,3.9
			c-0.3,0.4-0.6,0.8-0.9,1.2c-0.2,0.2-0.4,0.4-0.6,0.6c-1.4,1.2-3,2.2-4.4,3.4c-1.5,1.2-2.9,2.5-4.4,3.7c-1.5,1.2-3,2.5-4.4,3.9
			c-1.4,1.3-2.6,2.8-4,4.1c-0.5,0.4-1,0.8-1.5,1.2c-0.2,0.1-0.4,0.3-0.7,0.4c-0.2,0.1-0.5,0.2-0.7,0.3c-0.4,0.1-0.8,0.2-1.2,0.3
			C312.4,380.5,310.7,380.7,309,380.8z M329.7,403.2c-1.1-0.3-2.2-0.6-3.3-1c-0.6-0.2-1.3-0.5-1.9-0.8c-0.2-0.1-0.4-0.2-0.6-0.3
			c-0.4-0.3-0.8-0.6-1.2-0.9c-0.2-0.2-0.3-0.3-0.5-0.5c-0.3-0.3-0.5-0.6-0.7-1c-0.2-0.3-0.4-0.6-0.5-0.9c-0.3-0.6-0.6-1.3-0.8-2
			c-0.4-1.2-0.8-2.4-1-3.7c-0.2-0.9-0.3-1.9-0.4-2.8c0-0.8-0.1-1.5,0-2.3c0.1-0.6,0.1-1.2,0.2-1.9c0-0.1,0-0.2,0.1-0.3
			c0,0,0,0.1,0,0.1c0,0,0,0,0,0c0.2-0.5,0.2-1,0.1-1.5c1.1-0.7,2.1-1.5,3.1-2.4c0.9-0.9,1.8-1.9,2.7-2.9c0.8-0.9,1.7-1.7,2.6-2.5
			c1.2-1,2.3-1.9,3.5-2.9c1.2-1,2.3-2,3.6-2.9c1-0.7,2-1.4,3-2.2c0.1,0,0.1-0.1,0.1-0.1c0.3,0.3,0.8,0.5,1.2,0.6
			c0.2,0,0.3,0.1,0.5,0.1c0.3,0.1,0.5,0.1,0.8,0.2c0.1,0.1,0.3,0.1,0.4,0.2c0.2,0.1,0.4,0.2,0.6,0.4c0.2,0.1,0.4,0.3,0.6,0.5
			c0.3,0.3,0.5,0.5,0.8,0.8c0.4,0.5,0.8,1,1.2,1.5c0.2,0.3,0.4,0.6,0.5,0.8c0.1,0.3,0.2,0.5,0.3,0.8c0.2,0.5,0.3,1.1,0.4,1.6
			c0.1,0.7,0.2,1.5,0.3,2.2c0.1,1.7,0,3.4-0.1,5.2c-0.1,1.5-0.3,3-0.4,4.4c-0.1,1.5-0.2,2.9-0.5,4.4c-0.1,0.7-0.3,1.4-0.5,2.1
			c-0.7,1.8-1.5,3.4-2.4,5.1c0,0,0,0,0,0c-0.4,0.8-0.9,1.6-1.3,2.4c-0.1,0.1-0.1,0.1-0.2,0.2c-0.5,0.5-1,1-1.6,1.5
			c-0.3,0.3-0.7,0.5-1,0.8c-0.3,0.2-0.6,0.4-0.9,0.6c0,0-0.1,0-0.1,0.1c-0.5,0.2-1,0.4-1.4,0.8c0,0,0,0,0,0c0,0-0.1,0-0.1,0
			c0,0,0.1,0,0.1,0c-0.1,0-0.2,0-0.3,0c-0.4-0.1-0.9-0.2-1.3-0.4C332.2,403.9,331,403.5,329.7,403.2z M467.6,357.5
			c-0.9,1.7-1.8,3.4-2.9,5c-0.9,1.4-1.9,2.7-2.9,4.1c-0.9,1.2-2,2.4-3,3.6c-0.5,0.5-0.9,1-1.4,1.5c-0.4,0.4-0.9,0.7-1.3,1
			c-0.9,0.6-1.8,1.1-2.7,1.6c0.5-2.1,0.8-4.3,1-6.5c0.2-2.6,0.5-5.1,0.5-7.7c0-2.7,0-5.3-0.2-8c-0.1-2.6-0.3-5.1-0.7-7.7
			c-0.2-1.1-0.4-2.2-0.5-3.3c-0.2-1.2-0.3-2.5-0.5-3.7c-0.3-1.3-0.5-2.6-1.1-3.9c-0.5-1.1-1.1-2.1-1.6-3.1c-0.5-1.1-1-2.2-1.5-3.3
			c-0.6-1.2-1.2-2.3-1.8-3.5c-0.6-1-1.2-2.1-1.8-3.1c-0.7-1.1-1.3-2.1-1.9-3.2c-1.2-2.5-2.1-5.2-3.8-7.5c-0.7-1-1.4-2-2.1-3
			c-0.6-0.9-1.3-1.8-1.9-2.7c-0.3-0.4-0.5-0.9-0.7-1.3c0,0,0,0,0-0.1c0,0,0,0,0,0c-0.1-0.2-0.2-0.3-0.2-0.5c-0.3-1-1.3-1.8-2.4-1.8
			c-1.4,0-2.5,1.1-2.5,2.5c0,1,0.6,2,1,2.8c0.5,1,1.2,1.8,1.8,2.7c0.6,0.9,1.2,1.7,1.8,2.6c0.5,0.8,1.1,1.5,1.7,2.3
			c0.4,0.7,0.7,1.3,1.1,2c0.5,1.1,1,2.3,1.6,3.5c0.6,1.3,1.3,2.4,2.1,3.6c1.2,2,2.4,4.1,3.5,6.2c0.5,1,0.9,2.1,1.4,3.1
			c0.5,1,1,2,1.5,3c0.2,0.5,0.5,0.9,0.7,1.4c0.1,0.4,0.3,0.9,0.4,1.4c0.2,1.1,0.4,2.2,0.5,3.4c0.1,1.2,0.3,2.3,0.5,3.5
			c0.3,2.3,0.5,4.6,0.7,7c0.2,3.6,0.3,7.3,0.1,11c-0.1,1.7-0.3,3.3-0.4,5c-0.1,1.5-0.3,3.1-0.6,4.6c-0.4,1.9-1,3.8-1.7,5.7
			c-0.2,0.5-0.4,1-0.6,1.5c-0.4,0.8-0.9,1.6-1.3,2.3c-0.9,1.3-1.9,2.5-2.8,3.7c-0.8,1.1-1.7,2.3-2.6,3.3c-0.8,0.9-1.6,1.7-2.4,2.4
			c-1,0.9-2,1.7-3.1,2.5c-0.3,0.2-0.6,0.4-0.9,0.5c-0.5,0.2-1,0.5-1.5,0.6c-0.2,0.1-0.4,0.1-0.6,0.2c-0.8,0.1-1.5,0.2-2.3,0.3
			c-1.1,0.1-2.2,0.1-3.2,0.1c-1.1,0-2.2,0.1-3.2,0.2c-1.1,0.1-2.3,0.1-3.4,0.1c-1.1,0-2.3,0.1-3.4,0.1c-0.5,0-1,0.2-1.5,0.5
			c-0.1-0.1-0.2-0.1-0.2-0.2c0,0,0-0.1,0-0.1c0.6-1.2,1.1-2.3,1.6-3.5c0.4-0.7,0.9-1.4,1.3-2.1c0,0,0,0,0,0c0.3-0.5,0.7-1,1-1.5
			c0.7-1,1.5-2,2.1-3.2c0.6-1.1,1-2.2,1.4-3.4c0.8-2.3,1.4-4.7,1.9-7.1c0.3-1.3,0.5-2.6,0.7-3.9c0.2-1.3,0.4-2.7,0.5-4
			c0-1.3,0-2.6-0.2-3.9c-0.1-0.7-0.2-1.4-0.5-2c-0.2-0.6-0.4-1.1-0.6-1.6c-0.6-1.7-1.1-3.5-1.6-5.3c-0.6-1.8-1.3-3.7-2-5.5
			c-0.7-1.6-1.5-3.2-2.5-4.7c-0.9-1.5-1.8-3-2.6-4.5c-0.8-1.6-1.5-3.2-2.3-4.7c-0.8-1.4-1.6-2.9-2.5-4.3c-0.9-1.5-1.8-3-2.7-4.5
			c-0.8-1.4-1.6-2.9-2.4-4.4c-0.3-0.6-0.5-1.1-0.8-1.7c-0.1-0.3-0.2-0.5-0.2-0.8c-0.1-0.3-0.1-0.6-0.1-0.9c-0.2-1.2-1.2-2.2-2.5-2.2
			c-1.2,0-2.4,0.9-2.5,2.2c0,0.4,0,0.7,0,1.1c0,0.2,0.1,0.5,0.2,0.7c0.2,1,0.5,1.9,0.9,2.9c0.4,0.9,0.8,1.7,1.3,2.5
			c0.8,1.6,1.7,3.1,2.6,4.7c1.8,2.9,3.6,5.8,5.2,8.9c0.9,1.9,1.8,3.8,2.9,5.6c0.9,1.6,1.9,3.1,2.8,4.7c0.9,1.9,1.7,4,2.4,6
			c0.8,2.5,1.4,5,2.4,7.3c0.1,0.3,0.2,0.6,0.2,0.9c0.1,0.6,0.2,1.1,0.2,1.7c0,0.6,0,1.2,0,1.9c-0.2,2-0.5,3.9-0.8,5.8
			c-0.6,2.8-1.3,5.5-2.2,8.2c-0.3,0.7-0.5,1.4-0.8,2c-0.2,0.4-0.5,0.8-0.7,1.3c-1,1.4-2,2.7-2.9,4.1c-1,1.5-1.6,3.1-2.4,4.7
			c-1,1.9-2,3.9-3.2,5.7c-1,1.4-2,2.9-3.1,4.2c-0.6,0.7-1.2,1.3-1.8,1.9c-0.1,0.1-0.2,0.1-0.2,0.2c-0.1,0-0.1,0.1-0.2,0.1
			c-0.1,0.1-0.2,0.1-0.3,0.1c-0.6,0.2-1.3,0.4-1.9,0.5c-0.7,0.1-1.4,0.2-2.1,0.3c-1.2,0.1-2.4,0-3.6,0c-1.1,0-2.2,0-3.3-0.1
			c-0.7-0.1-1.4-0.2-2.1-0.2c-0.7-0.1-1.4-0.2-2.1-0.3c-0.4-0.1-0.8-0.2-1.1-0.3c-0.8-0.3-1.7-0.6-2.5-0.9c0,0,0,0,0,0
			c-0.1,0-0.2-0.1-0.3-0.1c-0.1-0.1-0.2-0.1-0.4-0.1c-0.1,0-0.2-0.1-0.3-0.1c0.2-0.4,0.3-0.8,0.4-1.3c0.3-1.1,0.7-2.1,1-3.2
			c0.4-1.2,0.8-2.5,0.9-3.7c0.4-2.6,0.2-5.2-0.1-7.9c-0.2-1.3-0.4-2.6-0.6-3.9c-0.3-1.2-0.6-2.4-0.8-3.6c-0.2-1.2-0.4-2.4-0.7-3.6
			c-0.2-1.3-0.5-2.5-0.8-3.8c-0.5-2.4-0.9-4.9-1.5-7.3c-1.3-4.9-2.5-9.7-3.6-14.6c-0.3-1.4-0.5-2.8-0.6-4.3c0-0.4,0-0.7,0-1
			c0-0.1,0-0.3,0-0.4c0.3-0.4,0.5-0.9,0.5-1.5c0-0.4,0-0.9-0.2-1.3c-0.5-1.1-1.8-1.8-3-1.4c-1.1,0.4-1.8,1.2-2,2.4
			c-0.2,0.7-0.3,1.4-0.3,2.1c-0.1,1.2,0,2.4,0.2,3.5c0.3,2.3,0.9,4.6,1.5,6.9c0.6,2.3,1.1,4.7,1.7,7c0.5,2.1,1.2,4.2,1.6,6.3
			c0,0,0-0.1,0-0.1c0,0,0,0.1,0,0.1c0,0,0,0,0,0c0,0,0,0,0,0c0,0,0,0.1,0,0.1c0,0,0,0,0,0.1c0.5,2.6,1,5.2,1.5,7.8
			c0.3,1.4,0.5,2.9,0.8,4.3c0.3,1.3,0.6,2.6,0.9,3.9c0.3,1.8,0.6,3.5,0.7,5.3c0.1,1.1,0.1,2.1,0,3.2c0,0.6-0.1,1.1-0.2,1.7
			c-0.5,2.1-1.2,4.3-1.9,6.3c-0.2,0.5-0.4,0.9-0.6,1.4c-0.1,0.2-0.2,0.4-0.4,0.6c-0.1,0.2-0.2,0.3-0.4,0.5c-0.1,0.1-0.1,0.1-0.2,0.2
			c0,0-0.1,0-0.1,0.1c0,0-0.1,0-0.1,0.1c-0.2,0.1-0.4,0.2-0.7,0.3c-1,0.3-1.9,0.6-2.9,1c-1.2,0.5-2.4,1.2-3.5,1.8
			c-0.4,0.2-0.8,0.4-1.3,0.6c-0.8,0.2-1.6,0.4-2.5,0.6c-0.8,0.2-1.5,0.3-2.3,0.5c-0.7,0.2-1.3,0.4-1.9,0.6c-0.6,0.2-1.2,0.4-1.7,0.5
			c-0.6,0.2-1.1,0.4-1.7,0.5c-1,0.2-2.1,0.2-3.1,0.4c-0.8,0.1-1.6,0.2-2.4,0.3c-0.2,0-0.3,0-0.5,0c-0.4,0-0.7-0.1-1.1-0.2
			c-0.1,0-0.2-0.1-0.4-0.1c-0.3-0.1-0.7-0.3-1-0.4c-0.3-0.2-0.6-0.4-0.9-0.6c-1.1-0.7-2.1-1.5-3.1-2.4c-0.2-0.2-0.4-0.4-0.6-0.6
			c-0.1-0.1-0.2-0.3-0.3-0.4c0-0.1-0.1-0.1-0.1-0.2c0,0,0-0.1,0-0.1c-0.1-0.3-0.4-0.6-0.6-0.8c0.3-0.3,0.6-0.6,1-0.9
			c1.6-1.6,2.5-3.7,3.5-5.7c0.8-1.6,1.7-3.3,2.1-5c0.5-1.8,0.8-3.6,0.9-5.4c0.1-1.2,0.2-2.4,0.3-3.5c0.1-1.3,0.2-2.5,0.3-3.8
			c0-1.2,0.1-2.5,0-3.7c0-1.4-0.2-2.7-0.5-4.1c-0.3-1.3-0.7-2.6-1.3-3.7c-0.7-1.2-1.5-2.2-2.4-3.2c-0.8-0.9-1.8-1.8-2.9-2.3
			c-0.6-0.3-1.2-0.6-1.8-0.8c0,0-0.1,0-0.1,0c0.1-0.2,0.2-0.3,0.3-0.5c0.6-1,1.2-2,1.8-3.1c0.6-1.1,1.2-2.2,1.6-3.4
			c0.5-1.2,0.8-2.4,0.9-3.6c0.1-1.2,0.3-2.5,0.2-3.7c-0.1-2.7-1-5.3-2-7.9c-0.9-2.4-2.3-4.7-4.1-6.5c-1-0.9-2-1.7-3.1-2.5
			c-1.1-0.7-2.1-1.4-3.2-2c-2.1-1.1-4.2-1.9-6.5-2.3c-1.7-0.3-3.5-0.3-5.1,0.2c0-0.2-0.1-0.5-0.1-0.7c-0.3-1.3-0.9-2.5-1.7-3.5
			c-0.8-1.1-1.7-2-2.7-2.9s-2-1.8-3-2.6c-1.1-0.8-2.1-1.5-3.3-2.1c-0.6-0.3-1.1-0.6-1.7-0.8c-0.7-0.3-1.5-0.6-2.2-0.9
			c-1-0.5-2-1.2-3-1.8c-0.6-0.3-1.1-0.6-1.7-0.7c-1.2-0.4-2.5-0.4-3.7,0c-2,0.6-3.9,1.4-5.8,2.3c-2.2,1-4.4,2-6.5,3.1
			c-0.8,0.4-1.7,0.9-2.5,1.5c-0.5,0.4-1,0.9-1.5,1.3c-1,0.8-2,1.6-3.1,2.4c-0.6,0.4-1.3,0.8-1.9,1.3c-0.6,0.5-1.2,1-1.8,1.4
			c-0.5,0.4-1,0.7-1.5,1.1c-0.5,0.4-0.9,0.8-1.4,1.2c-0.4,0.3-0.7,0.6-1.1,0.9c0.3-1.6,0.3-3.3-0.1-5c-0.4-1.4-1-2.9-1.7-4.2
			c-0.6-1.1-1.2-2.2-1.8-3.3c-0.8-1.4-1.5-2.8-2.8-3.9c-1.1-1-2.3-1.8-3.6-2.3c-0.7-0.3-1.5-0.5-2.2-0.8c0.7-1,1.4-1.9,2.1-2.9
			c1.3-1.8,2.5-3.6,3.6-5.4c1.1-1.9,2.2-3.9,3.2-6c0.9-2,1.8-4,2.8-6c0.9-1.7,1.8-3.4,2.6-5.1c1.1-2.3,2.2-4.7,3-7.2
			c0.8-2.6,1.5-5.2,2.3-7.8c0.8-2.5,1.6-5,2.3-7.6c0.6-2.5,1.1-5.1,1.6-7.6c0.8-4,1.8-8,2.5-12c0.8-4,1.4-8.1,2.2-12.2
			c0.1-0.5,0.2-1,0.3-1.5c0.6-2.7,1.2-5.3,1.7-8c0.5-2.6,0.8-5.3,1.2-7.9c0.2-1.3,0.3-2.6,0.4-3.8c0.1-1.2,0.2-2.5,0.2-3.7
			c0-0.6-0.1-1.2-0.1-1.8c0.6-0.1,1.1-0.4,1.5-0.9c1.6-0.5,3.1-0.9,4.7-1.4c1.5-0.5,3-0.9,4.6-1.2c3.5-0.7,7.1-0.8,10.7-1.1
			c0,0-0.1,0-0.1,0c0.8,0,1.6-0.1,2.4-0.1c2.7-0.1,5.4-0.2,8.1-0.3c2.6-0.1,5.3-0.1,7.9-0.2c5.1-0.1,10.1-0.6,15.2-1
			c1.2-0.1,2.4-0.1,3.6-0.1c0.9,0.1,1.7,0.2,2.6,0.4c0.2,0.1,0.5,0.1,0.7,0.2c0.1,0,0.2,0.1,0.2,0.1c0.2,0.1,0.5,0.3,0.7,0.4
			c0.5,0.4,1.1,0.8,1.6,1.2c0.5,0.4,0.9,0.9,1.3,1.4c0.9,1,1.7,2.1,2.5,3.2c0.7,0.9,1.4,1.8,2,2.7c0.6,0.9,1.2,1.9,1.7,2.9
			c0,0-0.1,0.1-0.1,0.1c-1.7,1.8-3.3,3.6-4.9,5.5c-0.2-0.3-0.4-0.5-0.8-0.7c-0.5-0.3-1-0.6-1.6-0.8c-0.6-0.3-1.3-0.4-2-0.6
			c-0.8-0.2-1.5-0.5-2.3-0.7c-1-0.2-2-0.4-3-0.5c-0.6-0.1-1.3-0.3-1.9-0.5c-0.8-0.3-1.5-0.5-2.2-0.9c-0.2-0.1-0.5-0.3-0.7-0.4
			c-0.5-0.7-1.2-1.1-2.1-1.1c-0.7,0-1.4,0.3-1.9,0.8c-0.8,0.8-1,2.1-0.4,3.1c0.5,0.7,1.2,1.2,1.9,1.6c0.5,0.3,1.1,0.6,1.7,0.9
			c1.1,0.5,2.3,0.9,3.4,1.2c1.1,0.3,2.3,0.4,3.4,0.6c0.8,0.2,1.5,0.4,2.3,0.6c0.6,0.2,1.1,0.3,1.7,0.5c0.1,0,0.2,0.1,0.3,0.1
			c0.3,0.2,0.6,0.3,0.9,0.5c0,0,0,0,0.1,0c-1.5,1.7-3.1,3.3-4.6,5c-1.6,1.8-3.3,3.6-4.6,5.7c-1.5,2.2-2.2,5-2.4,7.6
			c-0.2,2.8,0.4,5.6,1.7,8.1c0.4,0.7,0.8,1.4,1.2,2.1c0.8,1.2,1.9,2.2,3.1,3c1.1,0.7,2.3,1.5,3.5,2c1.2,0.5,2.4,1,3.7,1.2
			c1.4,0.3,2.7,0.5,4.1,0.6c0.4,0,0.9,0,1.3,0c0.2,0,0.4,0,0.6,0c0.1,0,0.2,0,0.2,0c0,0,0.1,0,0.1,0c0.1,0,0.2,0,0.3,0
			c0.1,0,0.2,0,0.2,0c0.6,0,1.2-0.1,1.8-0.2c1.3-0.2,2.6-0.4,3.8-0.7c2.5-0.6,5-1.4,7.5-2.2c1.4-0.5,2.7-0.9,4-1.5
			c1.2-0.5,2.3-1.1,3.5-1.7c1.1-0.6,2.3-1.2,3.4-1.8c1.1-0.6,2.2-1.2,3.2-1.9c0.6-0.4,1.2-0.8,1.7-1.3c0.4-0.4,0.8-0.8,1.2-1.2
			c0.9-0.9,1.7-1.9,2.4-2.9c0.5-0.6,1-1.3,1.4-1.9c0.1,0.1,0.3,0.2,0.4,0.3c0,0,0,0,0,0c0,0,0.1,0,0.1,0.1c0,0,0,0,0,0
			c0,0,0,0-0.1,0c0,0,0,0,0.1,0c0,0,0,0,0,0c0,0,0,0,0,0c1.1,0.8,2.3,1.6,3.5,2.4c1.3,0.9,2.7,1.9,4,2.8c1.2,0.8,2.4,1.6,3.7,2.4
			c1.8,1.3,3.4,2.7,5.1,4.2c-0.1-0.1-0.2-0.1-0.2-0.2c0.8,0.7,1.6,1.4,2.3,2.2c1.7,1.8,3.4,3.7,5.2,5.5c1.7,1.8,3.4,3.4,5.1,5.2
			c1.8,1.8,3.6,3.7,5.3,5.6c1.7,1.8,3.3,3.7,5,5.6c1.3,1.5,2.5,3,3.7,4.5c1.2,1.6,2.5,3,3.8,4.5c-0.1-0.1-0.1-0.2-0.2-0.2
			c1.3,1.5,2.6,3.1,4,4.6c1.3,1.5,2.7,3,4,4.5c1.3,1.5,2.6,2.9,3.8,4.5c1.2,1.6,2.5,3.2,3.7,4.8c1.3,1.6,2.6,3.3,3.9,4.8
			c1.3,1.5,2.7,2.9,4.1,4.4c1.7,2,3.4,4,4.9,6.1c0.4,0.6,0.8,1.3,1.1,2c0.8,1.6,1.5,3.4,2.1,5.1c0.1,0.2,0.1,0.4,0.2,0.6
			c0.1,0.8,0.2,1.5,0.3,2.3c0.1,1.5,0.1,3.1,0,4.7c-0.2,1.4-0.3,2.7-0.6,4c-0.2,0.7-0.3,1.4-0.6,2.1c-0.5,1.4-1.1,2.8-1.6,4.2
			c-0.6,1.5-1,3-1.5,4.6c-0.9,2.9-1.8,5.8-2.8,8.7C469,354.6,468.3,356.1,467.6,357.5z"/>
		<path class="st3" d="M122.8,106.7C122.8,106.7,122.8,106.7,122.8,106.7C122.8,106.7,122.8,106.7,122.8,106.7
			C122.8,106.7,122.8,106.7,122.8,106.7z"/>
	</g>
	<path class="st3" d="M213.4,339.1c-1.3-0.1-2.6-0.1-3.8-0.2c-1-0.1-2-0.3-2.9-0.6c-1.6-0.4-3.1-1.1-4.5-2.1
		c-2.4-1.7-4.2-4.4-4.7-7.3c-0.5-3,0.1-6.1,1.8-8.6c0.8-1.1,1.8-1.9,2.9-2.6c1.3-0.8,2.8-1.3,4.2-1.5c1.5-0.2,3.1-0.1,4.5,0.2
		c1.2,0.3,2.3,0.7,3.4,1.2c1.2,0.5,2.4,1.3,3.5,2.1c1.1,0.8,2.2,1.7,3.2,2.7c3.2,3.5,3.2,9.4-0.2,12.8c-0.9,0.9-1.8,1.6-2.9,2.2
		c-0.5,0.3-1.1,0.5-1.7,0.7c-0.4,0.1-0.8,0.3-1.2,0.3c-0.4,0.3-0.9,0.5-1.5,0.5C213.5,339.1,213.4,339.1,213.4,339.1z M207.5,321.1
		c-0.2,0-0.4,0-0.6,0.1c-0.3,0.1-0.7,0.2-1,0.3c-0.2,0.1-0.5,0.2-0.7,0.3c-0.2,0.1-0.4,0.2-0.7,0.4c-0.2,0.1-0.4,0.3-0.6,0.4
		c-0.2,0.1-0.3,0.3-0.5,0.4c-0.1,0.1-0.2,0.3-0.3,0.4c-0.1,0.1-0.2,0.2-0.2,0.4c-0.1,0.2-0.2,0.4-0.3,0.6c-0.1,0.3-0.2,0.7-0.3,1
		c-0.1,0.3-0.1,0.6-0.1,0.9c0,0.3,0,0.7,0,1c0,0.2,0.1,0.5,0.1,0.7c0.1,0.2,0.1,0.5,0.2,0.7c0.1,0.3,0.3,0.7,0.4,1
		c0.1,0.2,0.3,0.5,0.4,0.7c0.1,0.2,0.3,0.4,0.5,0.6c0.2,0.2,0.4,0.4,0.6,0.6c0.2,0.2,0.4,0.4,0.7,0.5c0.3,0.2,0.6,0.4,1,0.6
		c0.4,0.2,0.8,0.4,1.3,0.5c0.5,0.2,1.1,0.3,1.7,0.4c0.8,0.1,1.5,0.2,2.2,0.3c0.3,0,0.6,0,0.8,0c0.3-0.1,0.6-0.2,0.9-0.2
		c0.1,0,0.2,0,0.3,0c0.2,0,0.5-0.1,0.7-0.1c0.2,0,0.4-0.1,0.5-0.1c0.3-0.1,0.6-0.2,0.9-0.4c0.2-0.1,0.3-0.2,0.5-0.3
		c0.3-0.2,0.6-0.5,0.9-0.7c0.1-0.1,0.3-0.3,0.4-0.4c0.1-0.1,0.2-0.3,0.3-0.4c0.1-0.2,0.2-0.4,0.3-0.6c0.1-0.2,0.1-0.3,0.2-0.5
		c0.1-0.2,0.1-0.4,0.2-0.5c0-0.2,0.1-0.4,0.1-0.7c0-0.2,0-0.4,0-0.7c0-0.2-0.1-0.4-0.1-0.7c-0.1-0.2-0.1-0.5-0.2-0.7
		c-0.1-0.1-0.1-0.3-0.2-0.4c-0.1-0.1-0.1-0.2-0.2-0.3c-0.1-0.2-0.2-0.3-0.4-0.5c-0.2-0.2-0.4-0.4-0.6-0.6c-0.6-0.6-1.3-1.1-2-1.6
		c-0.8-0.5-1.6-1-2.4-1.5c-0.5-0.2-1-0.4-1.4-0.6c-0.4-0.1-0.7-0.2-1.1-0.3c-0.4-0.1-0.8-0.1-1.2-0.2c-0.2,0-0.4,0-0.6,0
		S207.7,321.1,207.5,321.1z"/>
	<path class="st3" d="M166.3,318.2c-1.4-0.3-2.7-1-3.9-1.8c-1-0.7-1.9-1.5-2.8-2.4c-0.9-0.9-1.8-1.8-2.4-2.9c-1-1.5-1.3-3.2-1.6-4.9
		c-0.2-1.3,0-2.6,0.2-3.8c0.1-0.7,0.3-1.4,0.6-2.1c0.5-1.3,1.4-2.4,2.5-3.3c0.5-0.4,1-0.8,1.5-1.1c0.6-0.4,1.1-0.7,1.7-1
		c1.2-0.5,2.4-0.9,3.7-1c1.2-0.1,2.4-0.2,3.6,0c2.9,0.4,5.7,1.5,7.9,3.4c0.8,0.7,1.4,1.7,2,2.6c0.4,0.5,0.7,1.1,1,1.7
		c0.6,1.2,1.1,2.5,1.5,3.8c0.4,1.3,0.8,2.6,0.8,3.9c0.1,1.7-0.4,3.5-1.6,4.7c-0.7,0.7-1.4,1.5-2.2,2c-1.1,0.8-2.4,1-3.6,1.4
		c-0.5,0.6-1.2,0.9-1.9,0.9c-1,0-1.9,0.1-2.9,0.1c-0.3,0-0.5,0-0.8,0C168.5,318.6,167.4,318.5,166.3,318.2z M167.3,298.8
		c-0.5,0-1.1,0.1-1.6,0.2c-0.3,0.1-0.6,0.1-0.9,0.2c-0.2,0.1-0.5,0.2-0.7,0.3c-0.4,0.2-0.8,0.4-1.1,0.7c-0.4,0.3-0.7,0.5-1.1,0.8
		c-0.1,0.1-0.3,0.3-0.4,0.4c-0.1,0.1-0.1,0.2-0.2,0.2c-0.1,0.1-0.1,0.2-0.2,0.3c-0.1,0.1-0.1,0.3-0.2,0.4c-0.1,0.3-0.1,0.5-0.2,0.8
		c-0.1,0.6-0.2,1.1-0.2,1.7c0,0.2,0,0.3,0,0.5c0.1,0.5,0.1,1,0.2,1.6c0.1,0.3,0.1,0.5,0.2,0.7c0.1,0.2,0.1,0.4,0.2,0.5
		c0.1,0.1,0.1,0.2,0.2,0.4c0.2,0.3,0.5,0.7,0.8,1c0.6,0.7,1.3,1.3,1.9,1.9c0.3,0.3,0.7,0.6,1,0.8c0.3,0.2,0.7,0.4,1.1,0.6
		c0.3,0.1,0.6,0.2,0.8,0.4c0.1,0,0.1,0,0.2,0.1c0.6,0.1,1.1,0.2,1.7,0.2c0.8,0,1.6,0,2.3-0.1c0.1,0,0.2,0,0.3-0.1
		c0.4-0.1,0.8-0.2,1.2-0.4c1-0.3,2-0.6,3-0.9c0.1,0,0.3-0.1,0.4-0.2c0.1-0.1,0.2-0.2,0.4-0.3c0.4-0.3,0.7-0.7,1.1-1
		c0,0,0.1-0.1,0.1-0.1c0,0,0,0,0-0.1c0,0,0,0,0,0c0,0,0-0.1,0-0.1c0-0.2,0.1-0.4,0.1-0.6c0-0.2,0-0.3,0-0.5c0-0.2,0-0.3-0.1-0.5
		c-0.2-0.9-0.5-1.8-0.8-2.7c-0.2-0.6-0.5-1.2-0.8-1.8l0,0c-0.4-0.8-0.8-1.5-1.3-2.3c-0.2-0.2-0.3-0.4-0.5-0.7
		c-0.1-0.2-0.3-0.3-0.5-0.5c-0.1-0.1-0.2-0.2-0.3-0.2c-0.3-0.2-0.7-0.4-1-0.6c-0.5-0.2-1.1-0.5-1.6-0.7c-0.4-0.1-0.8-0.3-1.3-0.4
		c-0.4-0.1-0.8-0.1-1.3-0.2c-0.2,0-0.3,0-0.5,0C167.7,298.8,167.5,298.8,167.3,298.8z"/>
	<path class="st3" d="M123.9,299.6c-1.4-0.3-2.7-0.9-3.8-1.7c-1.3-0.9-2.4-2-3.4-3.2c-0.9-1.2-1.5-2.6-1.8-4.1
		c-0.3-1.4-0.3-2.9,0.1-4.3c0.4-1.4,1.3-2.6,2.3-3.6c1.1-1.2,2.5-2.1,3.9-2.8c1.9-0.9,4-1.6,6.1-1.7c2.5-0.1,5.1,0.2,7.4,1.4
		c1.7,0.8,3.1,2,4.5,3.2c1,0.9,2.1,1.9,2.9,3.1c0.6,1,1.1,2,1.4,3.1c0.3,0.9,0.5,1.9,0.5,2.9c0,2.3-1.1,4.4-3,5.7
		c-1.1,0.7-2.4,1.2-3.6,1.8c-0.7,0.3-1.5,0.2-2.1-0.1c0,0-0.1,0-0.1,0c-0.3,0.1-0.6,0.2-0.9,0.3c-0.5,0.2-1,0.3-1.6,0.3
		c-0.7,0.1-1.3,0.2-2,0.2c-0.7,0.1-1.5,0.1-2.2,0.1c-0.1,0-0.2,0-0.3,0C126.8,300.2,125.3,300,123.9,299.6z M119.6,288.3
		c0,0.2,0,0.4,0,0.6c0,0.2,0.1,0.5,0.1,0.7c0.1,0.3,0.2,0.6,0.2,0.9c0.1,0.2,0.2,0.4,0.2,0.6c0.1,0.1,0.1,0.3,0.2,0.4
		c0.2,0.3,0.4,0.5,0.6,0.8c0.3,0.3,0.6,0.7,1,1c0.2,0.2,0.5,0.4,0.8,0.6c0.2,0.1,0.4,0.3,0.7,0.4c0.3,0.1,0.6,0.3,0.9,0.4
		c0.5,0.2,1,0.3,1.6,0.4c0.6,0.1,1.2,0.2,1.8,0.2c0.7,0,1.4,0,2.1,0c0.9-0.1,1.8-0.2,2.7-0.3c0.2-0.1,0.4-0.1,0.6-0.2
		c0.5-0.2,1-0.4,1.6-0.4c0.4,0,0.8,0.1,1.1,0.3c0.6-0.2,1.2-0.5,1.7-0.8c0.2-0.1,0.5-0.3,0.7-0.4c0.1,0,0.1-0.1,0.2-0.1
		c0,0,0.1-0.1,0.1-0.1c0,0,0.1-0.1,0.1-0.1c0.1-0.2,0.2-0.4,0.3-0.6c0,0.1-0.1,0.2-0.1,0.3c0-0.1,0.1-0.2,0.1-0.3c0,0,0-0.1,0-0.1
		c0-0.1,0-0.1,0-0.2c0,0,0-0.1,0-0.1c0-0.2-0.1-0.4-0.1-0.7c-0.1-0.4-0.2-0.9-0.4-1.3c-0.1-0.3-0.3-0.7-0.4-1
		c-0.1-0.2-0.2-0.3-0.3-0.4c-0.1-0.2-0.2-0.3-0.3-0.5c-0.6-0.6-1.2-1.2-1.9-1.8c-0.7-0.6-1.3-1.1-2-1.6c-0.3-0.2-0.7-0.4-1.1-0.6
		c-0.3-0.1-0.6-0.3-1-0.4c-0.3-0.1-0.6-0.2-1-0.3c-0.6-0.1-1.2-0.2-1.9-0.2c-0.5,0-0.9,0-1.4,0c-0.4,0-0.8,0.1-1.2,0.2
		c-0.4,0.1-0.7,0.2-1.1,0.3c-0.6,0.2-1.2,0.5-1.8,0.8c-0.4,0.2-0.8,0.4-1.1,0.6c-0.3,0.2-0.6,0.4-0.9,0.7c-0.2,0.2-0.4,0.4-0.6,0.6
		c-0.2,0.2-0.3,0.4-0.5,0.6c-0.1,0.1-0.2,0.3-0.2,0.4c0,0.1-0.1,0.1-0.1,0.2c0,0.1-0.1,0.2-0.1,0.3
		C119.6,288.1,119.6,288.2,119.6,288.3z"/>
	<path class="st3" d="M275.4,124.9c-1.2-2.2-2.4-4.3-3.5-6.5c-1.1-2-2.1-4.1-3.1-6.1c-0.3-0.5-0.5-1.2-0.6-1.9
		c-0.1-0.4-0.1-0.7-0.1-1.2c0.1-3.4,3.3-4.8,5.2-2.3c0.7,0.9,1.2,2.2,1.8,3.3c0.5,1,1,2,1.5,3c1.3,2.5,2.7,5,4.1,7.5
		c1.1,2,0.5,4.7-0.8,5.8c-0.4,0.3-0.7,0.5-1.1,0.5C277.5,127.3,276.3,126.4,275.4,124.9z"/>
	<path class="st3" d="M363.9,108.7c-1-4.5-1.9-9-2.6-13.5l0,0c0,0,0,0,0,0c-0.4-2.3,0.8-4.5,2.5-4.7c1.7-0.3,3.4,1.5,3.8,3.8
		c0.4,2.7,0.9,5.4,1.5,8.1c0.3,1.4,0.6,2.8,0.9,4.2c0.5,2.3-0.2,4.6-1.9,5.2c-0.1,0-0.3,0.1-0.4,0.1
		C366,112.2,364.3,110.8,363.9,108.7z"/>
	<path class="st3" d="M445.8,118.4c-1.7-0.4-3.2-2.6-3-4.9c0.3-3.3,0.7-6.6,1-9.9c0,0,0,0.1,0,0.1c0.1-0.8,0.2-1.7,0.2-2.5
		c-0.1-1.1,0.1-2.1,0.5-3c0.7-1.4,2-1.9,3.3-1.4c1.2,0.5,2.3,1.9,2.5,3.6c0.3,2.6-0.2,5.2-0.4,7.7c-0.2,2-0.4,3.9-0.6,5.9
		c0,0.3-0.1,0.6-0.1,1c-0.2,1.9-1.2,3.4-2.5,3.6C446.3,118.5,446.1,118.5,445.8,118.4z"/>
	<path class="st3" d="M511.9,134.9c-1.6-1.2-2.2-3.9-1.5-5.9c0.7-1.9,1.4-3.7,2.2-5.6c0.3-0.9,0.7-1.7,1-2.6
		c0.6-1.4,1.2-2.9,2.2-3.7c1.2-1,2.8-0.6,3.9,0.8c1.1,1.4,1.4,3.6,0.8,5.2c-0.2,0.4-0.4,0.8-0.6,1.1c0,0,0,0.1-0.1,0.1
		c0,0.1,0,0.1-0.1,0.1c-1.3,2.9-2.5,6-3.6,9.1c-0.4,1.2-1.3,1.9-2.2,2C513.2,135.5,512.5,135.3,511.9,134.9z"/>
</g>
</svg>
