<?xml version="1.0" encoding="utf-8"?>
<!-- Generator: Adobe Illustrator 25.2.1, SVG Export Plug-In . SVG Version: 6.00 Build 0)  -->
<svg version="1.1" id="レイヤー1" xmlns="http://www.w3.org/2000/svg" xmlns:xlink="http://www.w3.org/1999/xlink" x="0px"
	 y="0px" viewBox="0 0 88.3 21" style="enable-background:new 0 0 88.3 21;" xml:space="preserve">
<style type="text/css">
	.st0{fill:#FFFFFF;}
</style>
<g>
	<g>
		<path class="st0" d="M25.5,9.6V4.5h4v1h-3v1.1h2.6v1h-2.6v2.1H25.5z"/>
		<path class="st0" d="M32.3,9.6V4.5h1.1v5.1H32.3z"/>
		<path class="st0" d="M41.2,9.6h-1.3l-1.6-2.2h-0.6l0,2.2h-1V4.5h2.5c1.1,0,1.8,0.6,1.8,1.5c0,0.8-0.5,1.4-1.4,1.5L41.2,9.6z
			 M37.6,6.5h1.5c0.5,0,0.7-0.2,0.7-0.5c0-0.3-0.3-0.5-0.7-0.5h-1.5V6.5z"/>
		<path class="st0" d="M43.4,9L44,8.2c0.5,0.4,1.2,0.5,1.8,0.5c0.7,0,1.1-0.2,1.1-0.6c0-0.4-0.5-0.5-1.1-0.6l-0.1,0c0,0,0,0,0,0
			c0,0,0,0,0,0c-1.6-0.3-2.1-0.7-2.1-1.5c0-1.3,1.2-1.7,2.3-1.7c0.7,0,1.5,0.3,2.2,0.7l-0.7,0.8c-0.6-0.3-1-0.4-1.5-0.4
			c-0.8,0-1.2,0.2-1.2,0.6c0,0.3,0.3,0.4,1.2,0.6c0.7,0.1,2.1,0.3,2.1,1.5c0,0.9-0.9,1.6-2.2,1.6C44.9,9.7,43.9,9.3,43.4,9z"/>
		<path class="st0" d="M53.3,5.4v4.2h-1.1V5.4h-1.8v-1h4.6v1H53.3z"/>
		<path class="st0" d="M61.8,9l0.6-0.8c0.5,0.4,1.2,0.5,1.8,0.5c0.7,0,1.1-0.2,1.1-0.6c0-0.4-0.5-0.5-1.1-0.6l-0.1,0c0,0,0,0,0,0
			s0,0,0,0C62.6,7.3,62,6.8,62,6c0-1.3,1.2-1.7,2.3-1.7c0.7,0,1.5,0.3,2.2,0.7l-0.7,0.8c-0.6-0.3-1-0.4-1.5-0.4
			c-0.8,0-1.2,0.2-1.2,0.6c0,0.3,0.3,0.4,1.2,0.6c0.7,0.1,2.1,0.3,2.1,1.5c0,0.9-0.9,1.6-2.2,1.6C63.3,9.7,62.3,9.3,61.8,9z"/>
		<path class="st0" d="M71.7,5.4v4.2h-1.1V5.4h-1.8v-1h4.6v1H71.7z"/>
		<path class="st0" d="M80.2,9.6h-4.1V4.5h4v1h-3v1.1h2.6v1h-2.6v1.2h3V9.6z"/>
		<path class="st0" d="M84.1,9.6h-1V4.5h2.5c1.1,0,1.8,0.6,1.8,1.5c0,0.9-0.7,1.5-1.8,1.5h-1.5L84.1,9.6z M85.5,6.5
			c0.5,0,0.7-0.2,0.7-0.5c0-0.3-0.3-0.5-0.7-0.5h-1.5v1H85.5z"/>
		<path class="st0" d="M65.2,14.4c0,1.1-0.9,1.8-2,1.8h-1.4v-3.5h1.4C64.4,12.7,65.2,13.4,65.2,14.4z M64.8,14.4
			c0-0.8-0.6-1.4-1.5-1.4h-1v2.7h1C64.2,15.8,64.8,15.3,64.8,14.4z"/>
		<path class="st0" d="M68.8,15.9c0.3,0,0.6-0.1,0.8-0.3l0.3,0.3c-0.3,0.2-0.7,0.4-1.1,0.4c-0.8,0-1.4-0.5-1.4-1.3
			c0-0.8,0.6-1.3,1.4-1.3c0.9,0,1.3,0.6,1.3,1.2c0,0.1,0,0.2,0,0.3h-2.2C67.9,15.6,68.3,15.9,68.8,15.9z M69.7,14.7
			c0-0.4-0.3-0.8-0.9-0.8c-0.5,0-0.9,0.3-1,0.8L69.7,14.7L69.7,14.7z"/>
		<path class="st0" d="M72.2,16l0.2-0.3c0.2,0.1,0.6,0.3,1,0.3c0.4,0,0.7-0.1,0.7-0.4c0-0.3-0.4-0.3-0.8-0.4
			c-0.7-0.1-1.1-0.2-1.1-0.7c0-0.6,0.6-0.8,1.2-0.8c0.4,0,0.8,0.1,1,0.3l-0.2,0.3c-0.2-0.1-0.5-0.2-0.9-0.2c-0.5,0-0.7,0.1-0.7,0.4
			c0,0.2,0.1,0.3,0.7,0.4c0.6,0.1,1.2,0.2,1.2,0.7c0,0.5-0.5,0.8-1.2,0.8C73,16.3,72.5,16.1,72.2,16z"/>
		<path class="st0" d="M76.9,13c0-0.1,0.1-0.3,0.3-0.3c0.2,0,0.3,0.1,0.3,0.3c0,0.1-0.1,0.3-0.3,0.3C77,13.2,76.9,13.1,76.9,13z
			 M77,16.2v-2.5h0.4v2.5H77z"/>
		<path class="st0" d="M82,14c0.1,0.2,0.2,0.3,0.2,0.6c0,0.6-0.5,0.9-1.2,0.9c-0.1,0-0.3,0-0.4,0h0c-0.2,0-0.3,0.1-0.3,0.2
			c0,0.2,0.1,0.2,0.4,0.2h0.5c1,0,1.4,0.2,1.4,0.8c0,0.5-0.4,0.9-1.4,0.9c-0.9,0-1.4-0.4-1.4-0.8c0-0.3,0.2-0.5,0.4-0.6
			c-0.2-0.1-0.3-0.3-0.3-0.5c0-0.2,0.1-0.4,0.4-0.5c-0.2-0.2-0.3-0.4-0.3-0.7c0-0.5,0.5-0.9,1.2-0.9c0.2,0,0.3,0,0.5,0.1h1L82.4,14
			H82z M81.1,16.3h-0.5h-0.1c-0.3,0.1-0.4,0.2-0.4,0.4c0,0.3,0.3,0.5,1,0.5c0.7,0,0.9-0.2,0.9-0.5C82.1,16.4,81.9,16.3,81.1,16.3z
			 M81.8,14.5c0-0.3-0.3-0.6-0.7-0.6c-0.5,0-0.7,0.2-0.7,0.6c0,0.4,0.3,0.6,0.7,0.6C81.6,15.1,81.8,14.9,81.8,14.5z"/>
		<path class="st0" d="M87.3,14.6v1.6h-0.4v-1.5c0-0.5-0.3-0.7-0.8-0.7c-0.4,0-0.9,0.3-0.9,0.7v1.5h-0.4v-2.5h0.4V14
			c0.2-0.3,0.5-0.3,1-0.3C86.9,13.6,87.3,14,87.3,14.6z"/>
	</g>
	<g>
		<path class="st0" d="M7.6,13.3l8.3,0c0.7-0.1,1.3-0.7,1.3-1.4c0-0.8-0.6-1.4-1.4-1.4H11c-1.3,0-2.3-0.7-2.9-1.7
			c-0.2-0.5-0.4-1-0.4-1.5c0-0.5,0.1-1,0.3-1.4c0.5-1.1,1.6-1.9,3-1.9h5.7l1.7-2.9h-7.6c-1.1,0-2.1,0.4-3,0.9V0.9H4.9L1.2,7.3h2.9
			L4.8,6v12.1L7.6,13.3z"/>
		<path class="st0" d="M21.8,10.4c-0.2-0.6-0.4-1.2-0.8-1.7c-1-1.7-2.9-2.8-5-2.9h-5.1c-0.7,0.1-1.3,0.7-1.3,1.4
			c0,0.8,0.6,1.4,1.4,1.4h4.7c1.3,0,2.3,0.7,2.9,1.7c0.2,0.5,0.4,1,0.4,1.5c0,0.5-0.1,1-0.3,1.4c-0.5,1.1-1.6,1.9-3,1.9h-7l-1.7,2.9
			H4.8h0l0,0L3.1,21h2.3l1.7-2.9c0,0,8.8,0,8.9,0c2.1-0.1,3.9-1.2,5-2.9c0.4-0.6,0.6-1.2,0.8-1.9c0.1-0.4,0.2-0.9,0.2-1.4
			C22,11.4,21.9,10.9,21.8,10.4z"/>
		<path class="st0" d="M7.7,18.1h8.4c2.1-0.1,3.9-1.2,5-2.9"/>
	</g>
</g>
</svg>
