<svg xmlns="http://www.w3.org/2000/svg" width="922" height="55" viewBox="0 0 922 55">
  <defs>
    <style>
      .cls-1 {
        fill: #00234b;
        fill-rule: evenodd;
      }
    </style>
  </defs>
  <path id="line" class="cls-1" d="M823,1586h368a2,2,0,0,1,0,4H823A2,2,0,0,1,823,1586Zm550,0h368a2,2,0,0,1,0,4H1373A2,2,0,0,1,1373,1586Zm-179.47.97,89.37,49.82a2,2,0,0,1-1.95,3.5l-89.37-49.83A2,2,0,1,1,1193.53,1586.97Zm176.77,0.28-89.01,50a2.011,2.011,0,0,0-.77,2.73,1.982,1.982,0,0,0,2.71.77l89.01-49.99a2.014,2.014,0,0,0,.77-2.73A1.983,1.983,0,0,0,1370.3,1587.25Z" transform="translate(-821 -1586)"/>
</svg>
